<?xml version="1.0" encoding="UTF-8" standalone="no"?>
<svg width="60px" height="60px" viewBox="0 0 60 60" version="1.1" xmlns="http://www.w3.org/2000/svg" xmlns:xlink="http://www.w3.org/1999/xlink">
    <!-- Generator: Sketch 40.1 (33804) - http://www.bohemiancoding.com/sketch -->
    <title>Artboard</title>
    <desc>Created with Sketch.</desc>
    <defs></defs>
    <g id="Page-1" stroke="none" stroke-width="1" fill="none" fill-rule="evenodd">
        <g id="Artboard">
            <circle id="Oval" fill="#FFFFFF" cx="30" cy="30" r="30"></circle>
            <g id="user-(12)" transform="translate(15.000000, 13.000000)" fill="#092581">
                <g id="Layer_1">
                    <g id="Group">
                        <path d="M12.930614,16.9723326 C14.8548627,16.9723326 16.7338964,15.7972055 18.2215751,13.663418 C19.5344171,11.7803695 20.318171,9.45218245 20.318171,7.43551963 C20.318171,3.33558891 17.0040622,0 12.930614,0 C8.85708549,0 5.54297668,3.33558891 5.54297668,7.43551963 C5.54297668,9.45218245 6.32673057,11.7803695 7.63957254,13.663418 C9.1272513,15.7972055 11.006285,16.9723326 12.930614,16.9723326 L12.930614,16.9723326 Z M12.930614,1.21247113 C16.3398912,1.21247113 19.1135078,4.0041455 19.1135078,7.43551963 C19.1135078,9.18592379 18.393842,11.3054042 17.2354378,12.9669746 C15.9979275,14.7418707 14.4288938,15.7598614 12.9305337,15.7598614 C11.4321736,15.7598614 9.8631399,14.7418707 8.62562953,12.9669746 C7.46714508,11.3054042 6.74755959,9.18592379 6.74755959,7.43551963 C6.7476399,4.0041455 9.52125648,1.21247113 12.930614,1.21247113 L12.930614,1.21247113 Z" id="Shape"></path>
                        <path d="M15.8162642,31.3917667 C15.8238938,31.3970208 15.8304793,31.4014665 15.8148187,31.3907159 C15.7994793,31.3802887 15.806386,31.3850577 15.8140959,31.3903118 C15.5830415,31.2335797 15.2633238,31.2647806 15.0635104,31.4583718 C14.8899585,31.626582 14.832215,31.8892841 14.9199145,32.1152887 C15.0057668,32.3363626 15.2196347,32.4912356 15.4557487,32.5007737 C15.7145907,32.5112009 15.9566477,32.347679 16.0457927,32.1035681 C16.1411218,31.8426443 16.0425,31.5481755 15.8162642,31.3917667 L15.8162642,31.3917667 Z" id="Shape"></path>
                        <path d="M23.1184508,19.166582 C23.0600648,19.166582 23.0018394,19.167552 22.9436943,19.1688453 C21.7339715,17.6632794 20.1890311,16.434157 18.4567254,15.6041801 C18.2268756,15.4940069 17.9528549,15.5413741 17.7723964,15.7223557 C16.3212591,17.1791801 14.6467772,17.949261 12.9302124,17.949261 C11.2134067,17.949261 9.53932642,17.179261 8.08891192,15.7224365 C7.90853368,15.5412125 7.63451295,15.4939261 7.40450259,15.6041801 C5.23908031,16.6418938 3.40638601,18.2649076 2.10462694,20.2978176 C0.767290155,22.3861778 0.0603937824,24.8090993 0.0603937824,27.3046074 L0.0603937824,27.3151155 C0.0603937824,27.4861547 0.13219171,27.6492725 0.258119171,27.7642148 C3.73389378,30.9367667 8.23427461,32.6839376 12.9302124,32.6839376 C13.1782124,32.6839376 13.4288627,32.6790069 13.6752565,32.669388 C14.0076632,32.6563741 14.2666658,32.3746767 14.2537358,32.0401155 C14.2408057,31.7055543 13.9601192,31.4447921 13.6285155,31.4578868 C13.3977021,31.4668591 13.1627927,31.4714665 12.9302124,31.4714665 C8.62394301,31.4714665 4.49315285,29.9018822 1.26786788,27.0462702 C1.31468912,24.8755427 1.95171503,22.7746536 3.11718653,20.9545727 C4.22274611,19.2280947 5.75041969,17.8276905 7.55259585,16.8841455 C9.16250777,18.37597 11.0135933,19.1615704 12.9302927,19.1615704 C14.846671,19.1615704 16.6980777,18.3758891 18.3085518,16.8841455 C19.499,17.5083256 20.5817513,18.3432333 21.4959301,19.3369746 C17.9543005,20.0911316 15.2881399,23.261582 15.2881399,27.0474018 C15.2881399,31.39306 18.8007772,34.9284642 23.1184508,34.9284642 C27.4361244,34.9284642 30.9487617,31.39306 30.9487617,27.0474018 C30.948842,22.7017436 27.4361244,19.166582 23.1184508,19.166582 L23.1184508,19.166582 Z M23.1184508,33.7162356 C19.4651088,33.7162356 16.4928031,30.724746 16.4928031,27.0476443 C16.4928031,23.3705427 19.4651088,20.3790531 23.1184508,20.3790531 C26.7717927,20.3790531 29.7440984,23.3705427 29.7440984,27.0476443 C29.7440984,30.724746 26.7717927,33.7162356 23.1184508,33.7162356 L23.1184508,33.7162356 Z" id="Shape"></path>
                        <path d="M28.1158756,26.4414088 L23.7207824,26.4414088 L23.7207824,22.0178291 C23.7207824,21.6830254 23.4511788,21.4115935 23.1184508,21.4115935 C22.7857228,21.4115935 22.5161192,21.6830254 22.5161192,22.0178291 L22.5161192,26.4414088 L18.1210259,26.4414088 C17.7882979,26.4414088 17.5186943,26.7128406 17.5186943,27.0476443 C17.5186943,27.382448 17.7882979,27.6538799 18.1210259,27.6538799 L22.5161192,27.6538799 L22.5161192,32.0773788 C22.5161192,32.4121824 22.7857228,32.6836143 23.1184508,32.6836143 C23.4511788,32.6836143 23.7207824,32.4121824 23.7207824,32.0773788 L23.7207824,27.6538799 L28.1158756,27.6538799 C28.4486036,27.6538799 28.7182073,27.382448 28.7182073,27.0476443 C28.7182073,26.7128406 28.4485233,26.4414088 28.1158756,26.4414088 L28.1158756,26.4414088 Z" id="Shape"></path>
                    </g>
                </g>
            </g>
        </g>
    </g>
</svg>