<svg xmlns="http://www.w3.org/2000/svg" viewBox="0 0 18 18"><defs><style>.a{fill:none;stroke:#3c5a99;stroke-miterlimit:10;}.b{fill:#3c5a99;}</style></defs><title>slices_fixtures_v03</title><path class="a" d="M9,12.87c-5,0-5-6.75-5-12.33H14C14,6.12,14,12.87,9,12.87Z"/><line class="a" x1="9" y1="12.87" x2="9" y2="14.63"/><path class="b" d="M9,15.47A2.5,2.5,0,0,1,11.29,17H6.71A2.5,2.5,0,0,1,9,15.47m0-1A3.5,3.5,0,0,0,5.5,18h7A3.5,3.5,0,0,0,9,14.47H9Z"/><path class="a" d="M4,7V0.54S0.75,0.58.75,2.13C0.75,4,4,7,4,7Z"/><path class="a" d="M14,7V0.54s3.29,0,3.29,1.59C17.25,4,14,7,14,7Z"/></svg>