<svg id="_06-Other_Profile" data-name="06-Other_Profile" xmlns="http://www.w3.org/2000/svg" viewBox="0 0 35.71 44.74"><defs><style>.cls-1{fill:#fff;}.cls-2{fill:none;stroke:#fff;stroke-miterlimit:10;stroke-width:2px;}</style></defs><title>follow-friends</title><path class="cls-1" d="M1888,9794c3.78,0,7.35,4.71,7.35,9.69s-3.57,9.69-7.35,9.69-7.35-4.7-7.35-9.67,3.57-9.72,7.35-9.72m0-2c-5.17,0-9.35,5.9-9.35,11.72s4.19,11.67,9.35,11.67,9.35-5.88,9.35-11.69S1893.2,9792,1888,9792h0Z" transform="translate(-1870.68 -9792)"/><path class="cls-2" d="M1904.92,9826.65a5.77,5.77,0,0,0,.47-2.5c0-9.35-8.28-9.94-8.28-9.94-1.95,3.61-5.6,4.68-9.06,4.68h0c-3.25-.2-6.25-1.21-8.09-4.6,0,0-8.28.58-8.28,9.94,0,4.67,3.27,4.78,8.18,4.77h5.53" transform="translate(-1870.68 -9792)"/><polyline class="cls-2" points="22.97 30 30.72 37 22.97 44"/><line class="cls-2" x1="31.36" y1="37" x2="17.36" y2="37"/></svg>