<svg xmlns="http://www.w3.org/2000/svg" xmlns:xlink="http://www.w3.org/1999/xlink" viewBox="0 0 8 14"><defs><style>.cls-1{fill:none;}.cls-2{isolation:isolate;}.cls-3{opacity:0.3;}.cls-4{clip-path:url(#clip-path);}.cls-5{mix-blend-mode:multiply;}.cls-6{fill:#378f43;}.cls-7{fill:#fff;}</style><clipPath id="clip-path"><rect class="cls-1" x="-31" y="-184" width="270" height="100"/></clipPath></defs><title>slices_fixtures_v02</title><g class="cls-2"><g id="Layer_1" data-name="Layer 1"><g class="cls-3"><g class="cls-4"><g class="cls-5"><path class="cls-6" d="M17.4,16L7.8,6.4A1,1,0,1,0,6.4,7.8L14.6,16h2.8Z"/><path class="cls-6" d="M10.3,16L4.1,9.8a1,1,0,0,0-1.4,1.4L7.5,16h2.8Z"/><path class="cls-6" d="M3.2,16L0.6,13.3a1,1,0,0,0-1.4,0,1,1,0,0,0-.3.7,1,1,0,0,0,.3.7L0.4,16H3.2Z"/><path class="cls-6" d="M31.5,16L7.2-8.3a1,1,0,0,0-1.4,0,1,1,0,0,0-.3.7,1,1,0,0,0,.3.7L28.7,16h2.8Z"/><path class="cls-6" d="M24.5,16L3.6-4.9a1,1,0,0,0-1.4,0,1,1,0,0,0-.3.7,1,1,0,0,0,.3.7L21.6,16h2.8Z"/><path class="cls-6" d="M17.4,16L0-1.4a1,1,0,0,0-1.4,0,1,1,0,0,0-.3.7,1,1,0,0,0,.3.7l16,16h2.8Z"/><path class="cls-6" d="M10.3,16L-3.5,2.2a1,1,0,0,0-1.4,0,1,1,0,0,0-.3.7,1,1,0,0,0,.3.7L7.5,16h2.8Z"/><path class="cls-6" d="M3.3,16L-7.3,5.4a1,1,0,0,0-1.4,0,1,1,0,0,0-.3.7,1,1,0,0,0,.3.7L0.4,16H3.3Z"/><path class="cls-6" d="M7.2-20.2a0.9,0.9,0,0,1,.3-0.6,0.9,0.9,0,0,1,1.3,0L42.5,13a0.9,0.9,0,1,1-1.3,1.3L7.4-19.6A0.9,0.9,0,0,1,7.2-20.2Z"/><path class="cls-6" d="M38.4,16L5-17.4a0.9,0.9,0,0,0-1.3,0,0.9,0.9,0,0,0-.3.6,0.9,0.9,0,0,0,.3.6L35.9,16h2.5Z"/><path class="cls-6" d="M31.5,16L-0.6-16.1a1,1,0,0,0-1.4,0,1,1,0,0,0-.3.7,1,1,0,0,0,.3.7L28.7,16h2.8Z"/><path class="cls-6" d="M24.5,16L-4.1-12.5a1,1,0,0,0-1.4,0,1,1,0,0,0-.3.7,1,1,0,0,0,.3.7L21.6,16h2.8Z"/><path class="cls-6" d="M17.4,16L-7.8-9.2a1,1,0,0,0-1.4,0,1,1,0,0,0-.3.7,1,1,0,0,0,.3.7L14.5,16h2.9Z"/><path class="cls-6" d="M10.3,16L-11.4-5.8a1,1,0,0,0-1.4,0,1,1,0,0,0-.3.7,1,1,0,0,0,.3.7L7.5,16h2.9Z"/><path class="cls-6" d="M3.3,16L-15-2.3a1,1,0,0,0-1.4,0,1,1,0,0,0-.3.7,1,1,0,0,0,.3.7L0.4,16H3.3Z"/><path class="cls-6" d="M3.1-31.4A0.9,0.9,0,0,1,3.3-32a0.9,0.9,0,0,1,1.3,0L38.4,1.9a0.9,0.9,0,1,1-1.3,1.3L3.3-30.7A0.9,0.9,0,0,1,3.1-31.4Z"/><path class="cls-6" d="M-0.8-28.1a0.9,0.9,0,0,1,.3-0.6,0.9,0.9,0,0,1,1.3,0L35.2,5.7A0.9,0.9,0,1,1,33.9,7L-0.5-27.5A0.9,0.9,0,0,1-.8-28.1Z"/><path class="cls-6" d="M-4.3-24.6a0.9,0.9,0,0,1,.3-0.6,0.9,0.9,0,0,1,1.3,0L31.7,9.2a0.9,0.9,0,1,1-1.3,1.3L-4.1-24A0.9,0.9,0,0,1-4.3-24.6Z"/><path class="cls-6" d="M-8-21.2a0.9,0.9,0,0,1,.3-0.6,0.9,0.9,0,0,1,1.3,0L28.3,12.9A0.9,0.9,0,1,1,27,14.2L-7.7-20.6A0.9,0.9,0,0,1-8-21.2Z"/><path class="cls-6" d="M24.3,16L-10-18.3a0.9,0.9,0,0,0-1.3,0,0.9,0.9,0,0,0-.3.6,0.9,0.9,0,0,0,.3.6l33,33h2.6Z"/><path class="cls-6" d="M17.3,16L-13.7-14.9a0.9,0.9,0,0,0-1.3,0,0.9,0.9,0,0,0-.3.6,0.9,0.9,0,0,0,.3.6L14.7,16h2.6Z"/><path class="cls-6" d="M10.2,16L-17.2-11.4a0.9,0.9,0,0,0-1.3,0,0.9,0.9,0,0,0-.3.6,0.9,0.9,0,0,0,.3.6L7.6,16h2.6Z"/><path class="cls-6" d="M3.1,16L-21-8.2a0.9,0.9,0,0,0-1.3,0,0.9,0.9,0,0,0-.3.7,0.9,0.9,0,0,0,.3.7L0.5,16H3.1Z"/><path class="cls-6" d="M-12.1-32.4a0.9,0.9,0,0,1,.3-0.6,0.9,0.9,0,0,1,1.3,0L24.2,1.7A0.9,0.9,0,1,1,22.9,3L-11.9-31.7A0.9,0.9,0,0,1-12.1-32.4Z"/><path class="cls-6" d="M-15.8-29a0.9,0.9,0,0,1,.3-0.6,0.9,0.9,0,0,1,1.3,0L20.8,5.4a0.9,0.9,0,0,1-1.3,1.3L-15.5-28.4A0.9,0.9,0,0,1-15.8-29Z"/><path class="cls-6" d="M-19.3-25.5a0.9,0.9,0,0,1,.3-0.6,0.9,0.9,0,0,1,1.3,0L17.3,8.9A0.9,0.9,0,0,1,16,10.2L-19.1-24.8A0.9,0.9,0,0,1-19.3-25.5Z"/><path class="cls-6" d="M-23-22.1a0.9,0.9,0,0,1,.3-0.7,0.9,0.9,0,0,1,1.3,0L13.9,12.6a0.9,0.9,0,1,1-1.3,1.3L-22.8-21.4A0.9,0.9,0,0,1-23-22.1Z"/><path class="cls-6" d="M10.2,16L-25.1-19.4a0.9,0.9,0,0,0-1.3,0,0.9,0.9,0,0,0-.3.7,0.9,0.9,0,0,0,.3.7l34,34h2.6Z"/><path class="cls-6" d="M3.2,16l-32-32a0.9,0.9,0,0,0-1.3,0,0.9,0.9,0,0,0-.3.7,0.9,0.9,0,0,0,.3.7L0.5,16H3.2Z"/><path class="cls-6" d="M-27.1-33.3a0.9,0.9,0,0,1,.3-0.7,0.9,0.9,0,0,1,1.3,0L9.8,1.4A0.9,0.9,0,0,1,8.5,2.7L-26.9-32.6A0.9,0.9,0,0,1-27.1-33.3Z"/><path class="cls-6" d="M-30.8-29.9a0.9,0.9,0,0,1,.3-0.7,0.9,0.9,0,0,1,1.3,0L6.4,5.1A0.9,0.9,0,0,1,5.1,6.4L-30.6-29.2A0.9,0.9,0,0,1-30.8-29.9Z"/><path class="cls-6" d="M-31-22.6L1.7,10.1A0.9,0.9,0,0,0,3,8.8l-34-34v2.7Z"/></g><g class="cls-5"><path class="cls-6" d="M-5.2,16L0,10.8A1.3,1.3,0,0,0,0,8.9a1.3,1.3,0,0,0-1.9,0L-9,16h3.8Z"/><path class="cls-6" d="M1.8,16l1.7-1.7a1.3,1.3,0,1,0-1.9-1.9L-2,16H1.8Z"/><path class="cls-6" d="M-12.4,16L2.9,0.7a1.3,1.3,0,0,0,0-1.8A1.3,1.3,0,0,0,1-1.1L-16,16h3.6Z"/><path class="cls-6" d="M-5.3,16L6.4,4.3A1.3,1.3,0,1,0,4.6,2.5L-9,16h3.6Z"/><path class="cls-6" d="M1.8,16L9.9,7.8A1.3,1.3,0,1,0,8.1,6l-10,10H1.8Z"/><path class="cls-6" d="M8.8,16l4.6-4.6a1.3,1.3,0,0,0-1.8-1.8L5.2,16H8.8Z"/><path class="cls-6" d="M-31,9.8v3.6L-0.3-17.4a1.3,1.3,0,0,0,0-1.8,1.3,1.3,0,0,0-1.8,0Z"/><path class="cls-6" d="M-26.5,16l30-30a1.3,1.3,0,0,0,0-1.8,1.3,1.3,0,0,0-1.8,0L-30.2,16h3.6Z"/><path class="cls-6" d="M-19.5,16L7-10.4a1.3,1.3,0,0,0,0-1.8,1.3,1.3,0,0,0-1.8,0L-23.1,16h3.6Z"/><path class="cls-6" d="M-12.4,16L10.5-6.9a1.3,1.3,0,0,0,0-1.8,1.3,1.3,0,0,0-1.8,0L-16,16h3.6Z"/><path class="cls-6" d="M-5.4,16L12.6-2.1a1.2,1.2,0,0,0,0-1.7,1.2,1.2,0,0,0-1.7,0L-8.9,16h3.4Z"/><path class="cls-6" d="M1.7,16L16.3,1.3A1.2,1.2,0,0,0,14.6-.4L-1.8,16H1.7Z"/><path class="cls-6" d="M8.7,16L19.9,4.9a1.2,1.2,0,1,0-1.7-1.7L5.3,16H8.7Z"/><path class="cls-6" d="M-31,2.9V6.1L1.2-26.1a1.1,1.1,0,0,0,0-1.6,1.1,1.1,0,0,0-1.6,0Z"/><path class="cls-6" d="M-31,10v3.2L4.7-22.5a1.1,1.1,0,0,0,0-1.6,1.1,1.1,0,0,0-1.6,0Z"/><path class="cls-6" d="M-26.7,16l35-35a1.1,1.1,0,0,0,0-1.6,1.1,1.1,0,0,0-1.6,0L-30,16h3.2Z"/><path class="cls-6" d="M-19.7,16L11.8-15.5a1.1,1.1,0,0,0,0-1.6,1.1,1.1,0,0,0-1.6,0L-22.9,16h3.2Z"/><path class="cls-6" d="M-12.5,16L16.7-13.2a1.2,1.2,0,0,0,0-1.7A1.2,1.2,0,0,0,15-15l-31,31h3.4Z"/><path class="cls-6" d="M-5.3,16l27-27a1.3,1.3,0,0,0,0-1.8,1.3,1.3,0,0,0-1.8,0L-9,16h3.6Z"/><path class="cls-6" d="M1.8,16L25.2-7.5a1.3,1.3,0,0,0,0-1.8,1.3,1.3,0,0,0-1.8,0L-1.9,16H1.8Z"/><path class="cls-6" d="M8.8,16L28.8-3.9a1.3,1.3,0,0,0,0-1.8,1.3,1.3,0,0,0-1.8,0L5.2,16H8.8Z"/><path class="cls-6" d="M-31,2.9V6.1L8.7-33.6a1.1,1.1,0,0,0,0-1.6,1.1,1.1,0,0,0-1.6,0Z"/><path class="cls-6" d="M-31,10v3.2L12.2-30a1.1,1.1,0,0,0,0-1.6,1.1,1.1,0,0,0-1.6,0Z"/><path class="cls-6" d="M-26.7,16L15.8-26.5a1.1,1.1,0,0,0,0-1.6,1.1,1.1,0,0,0-1.6,0L-29.3,15.3a1.1,1.1,0,0,0-.3.7h2.9Z"/><path class="cls-6" d="M-19.7,16L19.5-23.1a1.1,1.1,0,0,0,0-1.6,1.1,1.1,0,0,0-1.6,0L-22.9,16h3.2Z"/><path class="cls-6" d="M-12.6,16L23-19.6a1.1,1.1,0,0,0,0-1.6,1.1,1.1,0,0,0-1.6,0L-15.8,16h3.2Z"/><path class="cls-6" d="M-5.5,16l32-32a1.1,1.1,0,0,0,0-1.6,1.1,1.1,0,0,0-1.6,0L-8.8,16h3.2Z"/><path class="cls-6" d="M1.6,16L30.1-12.5a1.1,1.1,0,0,0,0-1.6,1.1,1.1,0,0,0-1.6,0L-1.7,16H1.6Z"/><path class="cls-6" d="M8.6,16l25-25a1.1,1.1,0,0,0,0-1.6,1.1,1.1,0,0,0-1.6,0L5.4,16H8.6Z"/><path class="cls-6" d="M-29.1,1.4A1.1,1.1,0,0,1-28.7.6L14.7-42.8a1.1,1.1,0,0,1,1.6,0,1.1,1.1,0,0,1,0,1.6L-27.1,2.2a1.1,1.1,0,0,1-1.6,0A1.1,1.1,0,0,1-29.1,1.4Z"/><path class="cls-6" d="M-25.5,5a1.1,1.1,0,0,1,.3-0.8L18.3-39.3a1.1,1.1,0,0,1,1.6,0,1.1,1.1,0,0,1,0,1.6L-23.6,5.8a1.1,1.1,0,0,1-1.6,0A1.1,1.1,0,0,1-25.5,5Z"/><path class="cls-6" d="M-22.1,8.6a1.1,1.1,0,0,1,.3-0.8L21.9-35.9a1.1,1.1,0,0,1,1.6,0,1.1,1.1,0,0,1,0,1.6L-20.2,9.5a1.1,1.1,0,0,1-1.6,0A1.1,1.1,0,0,1-22.1,8.6Z"/><path class="cls-6" d="M-18.6,12.2a1.1,1.1,0,0,1,.3-0.8L25.5-32.4a1.1,1.1,0,0,1,1.6,0,1.1,1.1,0,0,1,0,1.6L-16.7,13a1.1,1.1,0,0,1-1.6,0A1.1,1.1,0,0,1-18.6,12.2Z"/><path class="cls-6" d="M-12.6,16L30.6-27.2a1.1,1.1,0,0,0,0-1.6,1.1,1.1,0,0,0-1.6,0L-14.7,14.9a1.1,1.1,0,0,0-.3.8V16h2.4Z"/><path class="cls-6" d="M-5.5,16L34.2-23.7a1.1,1.1,0,0,0,0-1.6,1.1,1.1,0,0,0-1.6,0L-8.8,16h3.2Z"/><path class="cls-6" d="M1.5,16L37.7-20.2a1.1,1.1,0,0,0,0-1.6,1.1,1.1,0,0,0-1.6,0L-1.7,16H1.5Z"/><path class="cls-6" d="M8.6,16L41.2-16.6a1.1,1.1,0,0,0,0-1.6,1.1,1.1,0,0,0-1.6,0L5.4,16H8.6Z"/><path class="cls-6" d="M-7.2.9A1,1,0,0,1-6.9.3L29.7-36.3a1,1,0,0,1,1.4,0,1,1,0,0,1,0,1.4L-5.5,1.6a1,1,0,0,1-1.4,0A1,1,0,0,1-7.2.9Z"/><path class="cls-6" d="M-5.7,6.4a1,1,0,0,1,.3-0.7L35.1-34.8a1.1,1.1,0,0,1,1.5,0,1.1,1.1,0,0,1,0,1.5L-3.9,7.2a1.1,1.1,0,0,1-1.5,0A1.1,1.1,0,0,1-5.7,6.4Z"/><path class="cls-6" d="M-2.2,10a1,1,0,0,1,.3-0.7L38.6-31.2a1.1,1.1,0,0,1,1.5,0,1.1,1.1,0,0,1,0,1.5L-0.4,10.7a1.1,1.1,0,0,1-1.5,0A1.1,1.1,0,0,1-2.2,10Z"/><path class="cls-6" d="M1.2,13.6a1.1,1.1,0,0,1,.3-0.8L42.3-27.9a1.1,1.1,0,0,1,1.5,0,1.1,1.1,0,0,1,0,1.5L3,14.4A1.1,1.1,0,0,1,1.2,13.6Z"/><path class="cls-6" d="M8.5,16L47.3-22.8a1.1,1.1,0,0,0,0-1.5,1.1,1.1,0,0,0-1.5,0L5.5,16h3Z"/></g></g></g><polygon class="cls-7" points="2 7 8 1 7 0 0 7 7 14 8 13 2 7"/></g></g></svg>