<?xml version="1.0" encoding="utf-8"?>
<!-- Generator: Adobe Illustrator 19.2.1, SVG Export Plug-In . SVG Version: 6.00 Build 0)  -->
<svg version="1.1" id="Layer_1" xmlns="http://www.w3.org/2000/svg" xmlns:xlink="http://www.w3.org/1999/xlink" x="0px" y="0px"
	 viewBox="0 0 50 50" style="enable-background:new 0 0 50 50;" xml:space="preserve">
<style type="text/css">
	.st0{opacity:0.65;}
	.st1{fill:#001842;}
	.st2{fill:#FFFFFF;}
	.st3{fill-rule:evenodd;clip-rule:evenodd;fill:#E9E9E9;}
	.st4{fill:url(#SVGID_1_);}
	.st5{fill:#E2A101;}
	.st6{fill:#FDE545;}
	.st7{fill:#766062;}
	.st8{fill:#473538;}
	.st9{fill:#00309B;}
	.st10{fill:url(#SVGID_2_);}
	.st11{fill:#FFC632;}
	.st12{fill:#FFD84A;}
	.st13{fill:#FAA339;}
	.st14{fill:#D7A043;}
	.st15{fill:#D9AC4E;}
	.st16{fill:#D58A44;}
	.st17{opacity:0.35;}
	.st18{fill:#999999;}
	.st19{clip-path:url(#SVGID_6_);}
	.st20{fill:#003699;}
	.st21{fill:#0347B8;}
	.st22{fill:#C3996D;}
	.st23{fill:#A27C52;}
	.st24{fill:#1A1A1A;}
	.st25{fill:#AAD4FF;}
	.st26{fill:#009DFF;}
	.st27{fill:#F9B619;}
	.st28{clip-path:url(#SVGID_8_);}
	.st29{fill:#F4DDB4;}
	.st30{opacity:0.3;fill:#FFFFFF;}
	.st31{fill:#0D1E15;}
	.st32{fill:#213228;}
	.st33{fill:#EB3A3F;}
	.st34{fill:#D8D9DA;}
	.st35{fill:#F2F2F2;}
	.st36{fill:#9DB202;}
	.st37{fill:#58452D;}
	.st38{clip-path:url(#SVGID_10_);fill:#9FB202;}
	.st39{clip-path:url(#SVGID_10_);}
	.st40{fill-rule:evenodd;clip-rule:evenodd;fill:#0E3154;}
	.st41{fill-rule:evenodd;clip-rule:evenodd;fill:#E3E7E8;}
	.st42{fill-rule:evenodd;clip-rule:evenodd;fill:#C4E3F6;}
	.st43{fill-rule:evenodd;clip-rule:evenodd;fill:#0A0A0D;}
	.st44{fill-rule:evenodd;clip-rule:evenodd;fill:#FFFFFF;}
	.st45{fill-rule:evenodd;clip-rule:evenodd;fill:#FCAB01;}
	.st46{fill-rule:evenodd;clip-rule:evenodd;fill:#F6BCB8;}
	.st47{clip-path:url(#SVGID_12_);}
	.st48{clip-path:url(#SVGID_14_);fill:#004FB9;}
	.st49{fill:#2B68B5;}
	.st50{fill:#B4C7E2;}
	.st51{fill:#C97B14;}
	.st52{fill:#EAB45E;}
	.st53{fill:#FFD78F;}
	.st54{fill:none;stroke:#3C2415;stroke-linecap:round;stroke-miterlimit:10;}
	.st55{fill:#3C2415;}
	.st56{fill:#D1D5D8;}
	.st57{fill:#47557A;}
	.st58{fill:#3181CE;}
	.st59{fill:#F9B119;}
	.st60{fill:#151D30;}
	.st61{fill:#FAB719;}
	.st62{fill:#E3E3E3;}
	.st63{fill:#C94B37;}
	.st64{fill:#E4553F;}
	.st65{fill:#EFEFEF;}
	.st66{fill:#404040;}
	.st67{fill:none;stroke:#EFEFEF;stroke-width:3;stroke-linecap:round;stroke-linejoin:round;stroke-miterlimit:10;}
	.st68{fill:none;stroke:#404040;stroke-width:3;stroke-linecap:round;stroke-miterlimit:10;}
	.st69{fill:url(#SVGID_15_);}
</style>
<g>
	<circle class="st3" cx="25" cy="25" r="19"/>
	<g>
		<g>
			<circle class="st5" cx="25.4" cy="20.6" r="6.9"/>
			<circle class="st6" cx="25.4" cy="20.6" r="5.5"/>
			<g>
				<path class="st5" d="M24.8,25v-1c-0.7,0-1.4-0.2-1.8-0.5l0.3-1.3c0.5,0.2,1.1,0.5,1.8,0.5c0.6,0,1-0.2,1-0.7
					c0-0.4-0.3-0.7-1.1-0.9c-1.2-0.4-2-0.9-2-2c0-1,0.7-1.7,1.8-1.9v-1h1.1v1c0.7,0,1.2,0.2,1.6,0.4l-0.3,1.2
					c-0.3-0.1-0.8-0.4-1.6-0.4c-0.7,0-0.9,0.3-0.9,0.6c0,0.4,0.4,0.6,1.3,0.9c1.3,0.5,1.8,1.1,1.8,2c0,1-0.7,1.8-1.9,2V25H24.8z"/>
			</g>
		</g>
		<g>
			<path class="st7" d="M34.6,33c0,1-0.8,1.8-1.8,1.8H17.4c-1,0-1.8-0.8-1.8-1.8V21.7c0-1,0.8-1.8,1.8-1.8h15.4c1,0,1.8,0.8,1.8,1.8
				V33z"/>
			<path class="st8" d="M35.1,28.5c0,0.6-0.5,1-1,1h-5c-1.2,0-2.3-1-2.3-2.3s1-2.3,2.3-2.3h5c0.6,0,1,0.5,1,1V28.5z"/>
			<circle class="st2" cx="29" cy="27.2" r="1.1"/>
		</g>
	</g>
</g>
</svg>
