<svg xmlns="http://www.w3.org/2000/svg" viewBox="0 0 20 20"><defs><style>.a{fill:none;stroke:#737373;stroke-miterlimit:10;}.b{fill:#737373;}</style></defs><title>slices_fixtures_v03</title><path class="a" d="M10,13.9c-5,0-5-6.8-5-12.3H15C15,7.1,15,13.9,10,13.9Z"/><line class="a" x1="10" y1="13.9" x2="10" y2="15.6"/><path class="b" d="M10,16.5A2.5,2.5,0,0,1,12.3,18H7.7A2.5,2.5,0,0,1,10,16.5m0-1A3.5,3.5,0,0,0,6.5,19h7A3.5,3.5,0,0,0,10,15.5h0Z"/><path class="a" d="M5,8V1.5s-3.3,0-3.3,1.6S5,8,5,8Z"/><path class="a" d="M15,8V1.5s3.3,0,3.3,1.6S15,8,15,8Z"/></svg>