<svg xmlns="http://www.w3.org/2000/svg" viewBox="0 0 502 502">
  <defs>
    <style>
      .a {
        fill: #fff;
      }
    </style>
  </defs>
  <title>icon_profile</title>
  <path class="a" d="M257.11,5c-138.63,0-251,112.36-251,251s112.36,251,251,251,251-112.37,251-251S395.74,5,257.11,5Zm0,20.92C384,25.92,487.19,129.13,487.19,256A229,229,0,0,1,434,402.92c-22.94-9.58-77.09-28.37-110.61-38.27-2.86-.9-3.31-1-3.31-12.94,0-9.83,4-19.72,8-28.1a144.05,144.05,0,0,0,11.15-38.13c5.09-5.9,12-17.55,16.46-39.74,3.9-19.56,2.08-26.68-.51-33.36-0.27-.71-0.55-1.4-0.76-2.09-1-4.59.37-28.41,3.72-46.9,2.31-12.68-.59-39.66-18.06-62C329,87.33,307.95,70,269.4,67.61l-21.14,0c-37.89,2.39-59,19.7-70,33.81-17.46,22.32-20.36,49.29-18.06,62,3.37,18.49,4.7,42.32,3.74,46.82a17.2,17.2,0,0,1-.78,2.19c-2.57,6.68-4.41,13.8-.49,33.36,4.43,22.19,11.36,33.84,16.46,39.74a142.55,142.55,0,0,0,11.15,38.13c3.13,6.66,4.6,15.72,4.6,28.52,0,11.9-.45,12-3.13,12.89-34.66,10.23-89.83,30.17-110.4,39.18A229,229,0,0,1,27,256C27,129.13,130.24,25.92,257.11,25.92ZM96.47,420.52C120,410.9,167,394.15,197.83,385c17.93-5.66,17.93-20.76,17.93-32.9,0-10.06-.69-24.89-6.58-37.43-4-8.59-8.66-23.32-9.68-34.85a10.36,10.36,0,0,0-3.53-7c-3-2.6-9-12.09-12.83-31.25-3-15.17-1.76-18.49-.51-21.69a40.58,40.58,0,0,0,1.45-4.24c2.51-9.18-.29-39.34-3.33-56.07-1.33-7.27.35-27.93,14-45.34C206.9,98.72,225.36,90,248.92,88.52l19.83,0c24.18,1.52,42.65,10.21,54.86,25.81,13.6,17.4,15.26,38.06,13.93,45.35-3,16.72-5.84,46.88-3.33,56.05,0.43,1.53.92,2.88,1.45,4.25,1.25,3.21,2.53,6.53-.49,21.69-3.84,19.16-9.89,28.66-12.85,31.25a10.54,10.54,0,0,0-3.53,7c-1,11.53-5.62,26.26-9.66,34.85-4.64,9.86-10,23-10,37,0,12.13,0,27.24,18.12,32.95,29.52,8.72,76.7,24.93,101.62,34.73A229.58,229.58,0,0,1,96.47,420.52Z" transform="translate(-6.11 -5)"/>
</svg>
