<svg id="_07-Friends" data-name="07-Friends" xmlns="http://www.w3.org/2000/svg" viewBox="0 0 35.71 44"><defs><style>.cls-1{fill:#fff;}.cls-2{fill:none;stroke:#fff;stroke-miterlimit:10;stroke-width:2px;}</style></defs><title>invite-friends</title><path class="cls-1" d="M2707.94,9467.38c3.78,0,7.35,4.71,7.35,9.69s-3.57,9.69-7.35,9.69-7.35-4.7-7.35-9.67,3.57-9.71,7.35-9.71m0-2c-5.17,0-9.35,5.9-9.35,11.71s4.19,11.67,9.35,11.67,9.35-5.88,9.35-11.69-4.19-11.69-9.35-11.69h0Z" transform="translate(-2690.58 -9465.38)"/><path class="cls-2" d="M2724.82,9500a5.77,5.77,0,0,0,.47-2.5c0-9.35-8.28-9.94-8.28-9.94-1.95,3.61-5.6,4.68-9.06,4.68h0c-3.25-.2-6.25-1.21-8.09-4.6,0,0-8.28.58-8.28,9.94,0,4.67,3.27,4.78,8.18,4.77h5.53" transform="translate(-2690.58 -9465.38)"/><line class="cls-2" x1="24.36" y1="30" x2="24.36" y2="44"/><line class="cls-2" x1="31.36" y1="37" x2="17.36" y2="37"/></svg>