<?xml version="1.0" encoding="UTF-8" standalone="no"?>
<svg width="20px" height="14px" viewBox="0 0 20 14" version="1.1" xmlns="http://www.w3.org/2000/svg" xmlns:xlink="http://www.w3.org/1999/xlink">
    <!-- Generator: Sketch 39.1 (31720) - http://www.bohemiancoding.com/sketch -->
    <title>Group 4</title>
    <desc>Created with Sketch.</desc>
    <defs></defs>
    <g id="Symbols" stroke="none" stroke-width="1" fill="none" fill-rule="evenodd">
        <g id="scorepredictor/users-list/User-list" transform="translate(-265.000000, -520.000000)" fill="#C0C0C0">
            <g id="User-list">
                <g id="User-group">
                    <g id="User" transform="translate(0.000000, 486.000000)">
                        <g id="Group-2" transform="translate(15.000000, 15.000000)">
                            <g id="Group-4" transform="translate(250.000000, 19.000000)">
                                <g id="scorepredictor/account-plus">
                                    <g id="account-plus">
                                        <path d="M12.7272727,8.75 C10.3,8.75 5.45454545,9.91375 5.45454545,12.25 L5.45454545,14 L20,14 L20,12.25 C20,9.91375 15.1545455,8.75 12.7272727,8.75 L12.7272727,8.75 Z M4.54545455,5.25 L4.54545455,2.625 L2.72727273,2.625 L2.72727273,5.25 L0,5.25 L0,7 L2.72727273,7 L2.72727273,9.625 L4.54545455,9.625 L4.54545455,7 L7.27272727,7 L7.27272727,5.25 L4.54545455,5.25 Z M12.7272727,7 C14.7355809,7 16.3636364,5.43299662 16.3636364,3.5 C16.3636364,1.56700338 14.7355809,0 12.7272727,0 C10.7189645,0 9.09090909,1.56700338 9.09090909,3.5 C9.09090909,5.43299662 10.7189645,7 12.7272727,7 Z" id="Shape"></path>
                                    </g>
                                </g>
                            </g>
                        </g>
                    </g>
                </g>
            </g>
        </g>
    </g>
</svg>