<?xml version="1.0" encoding="utf-8"?>
<!-- Generator: Adobe Illustrator 19.2.1, SVG Export Plug-In . SVG Version: 6.00 Build 0)  -->
<svg version="1.1" id="Layer_1" xmlns="http://www.w3.org/2000/svg" xmlns:xlink="http://www.w3.org/1999/xlink" x="0px" y="0px"
	 viewBox="0 0 50 50" style="enable-background:new 0 0 50 50;" xml:space="preserve">
<style type="text/css">
	.st0{opacity:0.65;}
	.st1{fill:#001842;}
	.st2{fill:#FFFFFF;}
	.st3{fill-rule:evenodd;clip-rule:evenodd;fill:#E9E9E9;}
	.st4{fill:url(#SVGID_1_);}
	.st5{fill:#E2A101;}
	.st6{fill:#FDE545;}
	.st7{fill:#766062;}
	.st8{fill:#473538;}
	.st9{fill:#00309B;}
	.st10{fill:url(#SVGID_2_);}
	.st11{fill:#FFC632;}
	.st12{fill:#FFD84A;}
	.st13{fill:#FAA339;}
	.st14{fill:#D7A043;}
	.st15{fill:#D9AC4E;}
	.st16{fill:#D58A44;}
	.st17{opacity:0.35;}
	.st18{fill:#999999;}
	.st19{clip-path:url(#SVGID_6_);}
	.st20{fill:#003699;}
	.st21{fill:#0347B8;}
	.st22{fill:#C3996D;}
	.st23{fill:#A27C52;}
	.st24{fill:#1A1A1A;}
	.st25{fill:#AAD4FF;}
	.st26{fill:#009DFF;}
	.st27{fill:#F9B619;}
	.st28{clip-path:url(#SVGID_8_);}
	.st29{fill:#F4DDB4;}
	.st30{opacity:0.3;fill:#FFFFFF;}
	.st31{fill:#0D1E15;}
	.st32{fill:#213228;}
	.st33{fill:#EB3A3F;}
	.st34{fill:#D8D9DA;}
	.st35{fill:#F2F2F2;}
	.st36{fill:#9DB202;}
	.st37{fill:#58452D;}
	.st38{clip-path:url(#SVGID_10_);fill:#9FB202;}
	.st39{clip-path:url(#SVGID_10_);}
	.st40{fill-rule:evenodd;clip-rule:evenodd;fill:#0E3154;}
	.st41{fill-rule:evenodd;clip-rule:evenodd;fill:#E3E7E8;}
	.st42{fill-rule:evenodd;clip-rule:evenodd;fill:#C4E3F6;}
	.st43{fill-rule:evenodd;clip-rule:evenodd;fill:#0A0A0D;}
	.st44{fill-rule:evenodd;clip-rule:evenodd;fill:#FFFFFF;}
	.st45{fill-rule:evenodd;clip-rule:evenodd;fill:#FCAB01;}
	.st46{fill-rule:evenodd;clip-rule:evenodd;fill:#F6BCB8;}
	.st47{clip-path:url(#SVGID_12_);}
	.st48{clip-path:url(#SVGID_14_);fill:#004FB9;}
	.st49{fill:#2B68B5;}
	.st50{fill:#B4C7E2;}
	.st51{fill:#C97B14;}
	.st52{fill:#EAB45E;}
	.st53{fill:#FFD78F;}
	.st54{fill:none;stroke:#3C2415;stroke-linecap:round;stroke-miterlimit:10;}
	.st55{fill:#3C2415;}
	.st56{fill:#D1D5D8;}
	.st57{fill:#47557A;}
	.st58{fill:#3181CE;}
	.st59{fill:#F9B119;}
	.st60{fill:#151D30;}
	.st61{fill:#FAB719;}
	.st62{fill:#E3E3E3;}
	.st63{fill:#C94B37;}
	.st64{fill:#E4553F;}
	.st65{fill:#EFEFEF;}
	.st66{fill:#404040;}
	.st67{fill:none;stroke:#EFEFEF;stroke-width:3;stroke-linecap:round;stroke-linejoin:round;stroke-miterlimit:10;}
	.st68{fill:none;stroke:#404040;stroke-width:3;stroke-linecap:round;stroke-miterlimit:10;}
	.st69{fill:url(#SVGID_15_);}
</style>
<g>
	<circle class="st3" cx="25" cy="25" r="19"/>
	<g>
		<linearGradient id="SVGID_1_" gradientUnits="userSpaceOnUse" x1="15.3211" y1="25.9961" x2="34.3211" y2="25.9961">
			<stop  offset="0.5" style="stop-color:#EFC503"/>
			<stop  offset="0.5" style="stop-color:#E99A03"/>
		</linearGradient>
		<path class="st4" d="M30.8,19.4c0.1-1.7,0-2.9,0-2.9h-12c0,0-0.1,1.2,0,2.9h-3.5v0.6c0,1.5,0.3,8.8,6.3,9.1
			c0.7,0.8,1.6,1.3,2.6,1.4v2.4c-0.5,0.4-2.7,1.9-4.6,1.9v0.8H30v-0.9c-2.1,0-4.1-1.5-4.6-1.8v-2.4c1.1-0.1,1.9-0.7,2.6-1.4
			c6-0.3,6.3-7.6,6.3-9.1v-0.6H30.8z M16.5,20.5h2.4c0.2,2.3,0.7,5.1,1.8,7.2C17.2,26.8,16.6,22.4,16.5,20.5z M28.9,27.7
			c1.1-2,1.6-4.9,1.8-7.2h2.4C33.1,22.4,32.5,26.8,28.9,27.7z"/>
	</g>
</g>
</svg>
