<?xml version="1.0" encoding="UTF-8" standalone="no"?>
<svg width="20px" height="14px" viewBox="0 0 20 14" version="1.1" xmlns="http://www.w3.org/2000/svg" xmlns:xlink="http://www.w3.org/1999/xlink">
    <!-- Generator: Sketch 39.1 (31720) - http://www.bohemiancoding.com/sketch -->
    <title>Group 3</title>
    <desc>Created with Sketch.</desc>
    <defs></defs>
    <g id="Symbols" stroke="none" stroke-width="1" fill="none" fill-rule="evenodd">
        <g id="scorepredictor/users-list/User-list" transform="translate(-265.000000, -196.000000)" fill="#082581">
            <g id="User-list">
                <g id="User-group">
                    <g id="User" transform="translate(0.000000, 162.000000)">
                        <g id="Group-2" transform="translate(15.000000, 15.000000)">
                            <g id="Group-3" transform="translate(250.000000, 19.000000)">
                                <g id="scorepredictor/account-check">
                                    <g id="account-check">
                                        <path d="M7,8.8817842e-16 C8.93299662,0 10.5,1.56700338 10.5,3.5 C10.5,5.43299662 8.93299662,7 7,7 C5.06700338,7 3.5,5.43299662 3.5,3.5 C3.5,1.56700338 5.06700338,0 7,0 L7,8.8817842e-16 Z M7,8.75 C10.87,8.75 14,10.32 14,12.25 L14,14 L0,14 L0,12.25 C0,10.32 3.13,8.75 7,8.75 L7,8.75 Z M15,7.66 L12.25,4.66 L13.41,3.5 L15,5.09 L18.59,1.5 L19.75,2.91 L15,7.66 Z" id="Shape"></path>
                                    </g>
                                </g>
                            </g>
                        </g>
                    </g>
                </g>
            </g>
        </g>
    </g>
</svg>