<svg id="_05-User_Profile" data-name="05-User_Profile" xmlns="http://www.w3.org/2000/svg" viewBox="0 0 35.71 44.74"><defs><style>.cls-1{fill:#082581;}.cls-2{fill:none;stroke:#082581;stroke-miterlimit:10;stroke-width:2px;}</style></defs><title>following</title><path class="cls-1" d="M1705.88,12464c3.78,0,7.35,4.71,7.35,9.69s-3.57,9.69-7.35,9.69-7.35-4.7-7.35-9.67,3.57-9.71,7.35-9.71m0-2c-5.17,0-9.35,5.9-9.35,11.71s4.19,11.67,9.35,11.67,9.35-5.88,9.35-11.69-4.19-11.69-9.35-11.69h0Z" transform="translate(-1688.52 -12462)"/><path class="cls-2" d="M1722.77,12496.65a5.77,5.77,0,0,0,.47-2.5c0-9.35-8.28-9.94-8.28-9.94-1.95,3.61-5.6,4.68-9.06,4.68h0c-3.25-.2-6.25-1.21-8.09-4.6,0,0-8.28.58-8.28,9.94,0,4.67,3.27,4.78,8.18,4.77h5.53" transform="translate(-1688.52 -12462)"/><polyline class="cls-2" points="25.74 44 17.99 37 25.74 30"/><line class="cls-2" x1="17.36" y1="37" x2="31.36" y2="37"/></svg>