<svg id="_05-User_Profile" data-name="05-User_Profile" xmlns="http://www.w3.org/2000/svg" viewBox="0 0 43.91 47"><defs><style>.cls-1{fill:#fff;}.cls-2{fill:none;stroke:#fff;stroke-miterlimit:10;stroke-width:2px;}</style></defs><title>Match Quiz_v18_EvertonBranded_RAS</title><path class="cls-1" d="M844.37,9792c4.95,0,9.63,6.09,9.63,12.54s-4.68,12.54-9.63,12.54-9.63-6.08-9.63-12.51,4.68-12.57,9.63-12.57m0-2c-6.42,0-11.63,7.34-11.63,14.57s5.21,14.51,11.63,14.51,11.63-7.31,11.63-14.54S850.79,9790,844.37,9790h0Z" transform="translate(-823.02 -9790.02)"/><path class="cls-2" d="M855.64,9817.64c-2.42,4.48-7,5.81-11.27,5.81h0c-4-.25-7.77-1.5-10.05-5.72,0,0-10.3.73-10.3,12.36,0,5.8,4.06,5.94,10.17,5.94h20.35c6.78,0,11.39.15,11.39-6C865.93,9818.37,855.64,9817.64,855.64,9817.64Z" transform="translate(-823.02 -9790.02)"/></svg>