<svg xmlns="http://www.w3.org/2000/svg" viewBox="0 0 18 18"><defs><style>.a{fill:none;stroke:#439cd6;stroke-miterlimit:10;}.b{fill:#439cd6;}</style></defs><title>slices_fixtures_v03</title><path class="a" d="M9,12.86c-5,0-5-6.75-5-12.33H14C14,6.11,14,12.86,9,12.86Z"/><line class="a" x1="9" y1="12.86" x2="9" y2="14.62"/><path class="b" d="M9,15.47A2.5,2.5,0,0,1,11.29,17H6.71A2.5,2.5,0,0,1,9,15.47m0-1A3.5,3.5,0,0,0,5.5,18h7A3.5,3.5,0,0,0,9,14.47H9Z"/><path class="a" d="M4,7V0.53S0.75,0.58.75,2.12C0.75,4,4,7,4,7Z"/><path class="a" d="M14,7V0.53s3.29,0,3.29,1.59C17.25,4,14,7,14,7Z"/></svg>