<?xml version="1.0" encoding="utf-8"?>
<!-- Generator: Adobe Illustrator 17.0.0, SVG Export Plug-In . SVG Version: 6.00 Build 0)  -->
<!DOCTYPE svg PUBLIC "-//W3C//DTD SVG 1.1//EN" "http://www.w3.org/Graphics/SVG/1.1/DTD/svg11.dtd">
<svg version="1.1" id="Layer_1" xmlns="http://www.w3.org/2000/svg" xmlns:xlink="http://www.w3.org/1999/xlink" x="0px" y="0px"
	 width="75px" height="50px" viewBox="0 0 75 50" style="enable-background:new 0 0 75 50;" xml:space="preserve">
<style type="text/css">
	.st0{fill:#FFFFFF;}
	.st1{fill:none;stroke:#FFFFFF;stroke-miterlimit:10;}
	.st2{fill:#BA8B2D;}
	.st3{fill:#263C83;}
	.st4{fill:#2B2F36;}
	.st5{fill:#9E8644;}
	.st6{fill:#A29165;}
	.st7{fill:#A48C4C;}
	.st8{fill:#FFFFFA;}
	.st9{fill:#A28C51;}
	.st10{fill:#A48C49;}
	.st11{fill:#FFFFFD;}
	.st12{fill:#25397A;}
	.st13{fill:#374041;}
	.st14{fill:#424740;}
	.st15{fill:#E1C177;}
	.st16{fill:#A48C4D;}
	.st17{fill:#323C41;}
	.st18{fill:#2B3B48;}
	.st19{fill:#B98A2D;}
	.st20{fill:#2A3843;}
	.st21{fill:#1D2F44;}
	.st22{fill:#B29349;}
	.st23{fill:#524E35;}
	.st24{fill:#596EB2;}
	.st25{fill:#586EB2;}
	.st26{fill:#D3D3D6;}
	.st27{fill:#596DB3;}
	.st28{fill:#D2D3D9;}
	.st29{fill:#CED4E0;}
	.st30{fill:#B5C7E7;}
	.st31{fill:#D3D3D7;}
	.st32{fill:#5A6DB3;}
	.st33{fill:#E81E25;}
	.st34{fill:#536EB5;}
	.st35{fill:#5A6EAF;}
	.st36{fill:#D7D3D5;}
	.st37{fill:#FCF7FA;}
	.st38{fill:#FCF8FB;}
	.st39{fill:#C6363B;}
	.st40{fill:#C63136;}
	.st41{fill:#576DB4;}
	.st42{fill:#D2D3D8;}
	.st43{fill:#D2D3D7;}
	.st44{fill:#ED1C24;}
	.st45{fill:#E21F26;}
	.st46{fill:#DB1F26;}
	.st47{fill:#D3D3D8;}
	.st48{fill:#E01F26;}
	.st49{fill:#E11F26;}
	.st50{fill:#E91D25;}
	.st51{fill:#E31E26;}
	.st52{fill:#E71E25;}
	.st53{fill:#566DB4;}
	.st54{fill:#D1D3D8;}
	.st55{fill:#BC7D80;}
	.st56{fill:#C86D70;}
	.st57{fill:#C3363A;}
	.st58{fill:#566EB0;}
	.st59{fill:#CE3438;}
	.st60{fill:#CC2A30;}
	.st61{fill:#CA2127;}
	.st62{fill:#CED4DF;}
	.st63{fill:#5A6DB2;}
	.st64{fill:#6C81B9;}
	.st65{fill:#FEF3F8;}
	.st66{fill:#FEF2F4;}
	.st67{fill:#263A7D;}
	.st68{fill:#D0D4DE;}
	.st69{fill:#D2D3D6;}
	.st70{fill:#586DB4;}
	.st71{fill:#C8CDE1;}
	.st72{fill:#586EB0;}
	.st73{fill:#338956;}
	.st74{fill:#5B72AE;}
	.st75{fill:#2A3A46;}
	.st76{fill:#FFFEF8;}
	.st77{fill:#A69A77;}
	.st78{fill:#323B38;}
	.st79{fill:#1B3461;}
	.st80{fill:#9B916E;}
	.st81{fill:#3B4342;}
	.st82{fill:#FFFEF5;}
	.st83{fill:#FFFEF6;}
	.st84{fill:#263B7F;}
	.st85{fill:#28334A;}
	.st86{fill:#2F3C42;}
	.st87{fill:#FFFEF7;}
	.st88{fill:#FFFEF4;}
	.st89{fill:#253876;}
	.st90{fill:#374654;}
	.st91{fill:#253C58;}
	.st92{fill:#2A3E55;}
	.st93{fill:#C2B388;}
	.st94{fill:#3E4B53;}
	.st95{fill:#FFFFF9;}
	.st96{fill:#293E58;}
	.st97{fill:#A0936B;}
	.st98{fill:#363A31;}
	.st99{fill:#AB945B;}
	.st100{fill:#464B45;}
	.st101{fill:#3B4544;}
	.st102{fill:#2D3F56;}
	.st103{fill:#2F3D49;}
	.st104{fill:#B0A789;}
	.st105{fill-rule:evenodd;clip-rule:evenodd;fill:#252C6A;}
	.st106{fill-rule:evenodd;clip-rule:evenodd;fill:#FFFFFF;}
	.st107{opacity:0.3;}
	.st108{fill:none;stroke:#FFFFFF;stroke-width:7;stroke-miterlimit:10;}
	.st109{fill:none;stroke:#FFFFFF;stroke-width:8;stroke-miterlimit:10;}
	.st110{opacity:0.89;}
	.st111{display:none;opacity:0.1;fill:#010101;}
	.st112{fill:#EDAC68;}
	.st113{fill:#FDC892;}
	.st114{clip-path:url(#SVGID_2_);}
	.st115{fill:#2E292A;}
	.st116{fill:#262125;}
	.st117{fill:#312C2F;}
	.st118{clip-path:url(#SVGID_4_);}
	.st119{fill:#0F303F;}
	.st120{fill:#2D5972;}
	.st121{fill:none;}
	.st122{opacity:0.5;fill:#B6B7B7;}
	.st123{fill:none;stroke:#F0F0F0;stroke-width:1.0228;stroke-miterlimit:10;}
	.st124{fill:#F0F0F0;}
	.st125{fill:none;stroke:#F0F0F0;stroke-width:2.0113;stroke-miterlimit:10;}
	.st126{fill:none;stroke:#F0F0F0;stroke-miterlimit:10;}
	.st127{fill:#F0F0F0;stroke:#F0F0F0;stroke-width:0.5;stroke-miterlimit:10;}
	.st128{opacity:0.77;}
	.st129{fill:none;stroke:#FFFFFF;stroke-width:4;stroke-linecap:round;stroke-linejoin:round;stroke-miterlimit:10;}
	.st130{fill:none;stroke:#FFFFFF;stroke-width:3.5;stroke-miterlimit:10;}
	.st131{fill:none;stroke:#FFFFFF;stroke-width:4;stroke-miterlimit:10;}
</style>
<g class="st110">
	<path class="st111" d="M141.5,13.8L133.8-14L65.6,4.7v0l-2.8,0.8L63,6.4l-6.8,1.9l0.3,1.3L52,9c-0.7-0.1-1.3,0-1.9,0.1
		c-0.5-0.2-1-0.4-1.5-0.5l0,0l-0.1,0l0,0l-4-1.3l-4.4-1.5l0,0.1l-4.3-1.4l0,0l-19,2l-6.8-1.8l0.2-0.9L7.5,3v0l-68.3-18.4l-7.5,27.8
		L0,30.8l0,0l2.8,0.7l0,0h0l0.3-1l6.8,1.8l0.1-0.3l5.1-0.4l1.6,1.4c-0.2,1,0,2,0.7,2.9c1,1.2,2.6,1.6,3.9,1.1l0.8,0.7
		c-0.3,1.1-0.1,2.2,0.7,3.2c1.1,1.3,2.9,1.6,4.3,0.9l0.6,0.5c-0.5,1.1-0.3,2.5,0.5,3.5c1.1,1.4,3.1,1.7,4.6,0.8l0.4,0.4
		c-0.6,1.2-0.5,2.7,0.4,3.9c1.2,1.5,3.4,1.7,4.9,0.5c1.5,1.2,3.6,1,4.9-0.5c1-1.2,1.1-2.8,0.3-4.1c0.3-0.1,0.5-0.2,0.8-0.3
		c1.4,0.7,3.2,0.4,4.3-0.9c0.6-0.8,0.9-1.8,0.7-2.8l1.5-1.2c1.1,0.1,2.2-0.4,2.9-1.3c0.4-0.5,0.7-1.1,0.7-1.7l5.9-4.9
		c0.6-0.5,1-1,1.4-1.5l1,0.2l0.5,1.8l3.7-1h0l3.1-0.9l0.3,1h0l2.8-0.8v0L141.5,13.8z"/>
	<g>
		<g>
			<g>
				<path class="st112" d="M41.4,7.4c3.6-2.9,8.8-2.4,11.7,1.2l8.5,10.5c2.9,3.6,2.4,8.8-1.2,11.7l-14,11.5
					c-3.6,2.9-8.8,2.4-11.7-1.2l-8.5-10.5c-2.9-3.6-2.4-8.8,1.2-11.7L41.4,7.4z"/>
			</g>
			<g>
				<path class="st112" d="M67,30.3l-17.1-3.4c-3.2-0.3-5.5-3.1-5.1-6.3l0.9-9.3c0.3-3.2,3.1-5.5,6.3-5.1L71.7,9L67,30.3z"/>
			</g>
		</g>
	</g>
	<g>
		<g>
			<g>
				<g>
					<path class="st113" d="M32.4,5c-3.6-2.9-8.8-2.3-11.7,1.2l-8.1,10.1c-2.9,3.6-2.4,8.8,1.2,11.7l11.8,10
						c3.6,2.9,8.8,2.4,11.7-1.2l8.2-10.1c2.9-3.6,2.3-8.8-1.2-11.7L32.4,5z"/>
				</g>
				<g>
					<path class="st113" d="M48.6,42.9c-1.2,1.5-3.4,1.7-4.9,0.5l-20-16.2c-1.5-1.2-1.7-3.4-0.5-4.9l0,0c1.2-1.5,3.4-1.7,4.9-0.5
						l20,16.2C49.6,39.2,49.9,41.4,48.6,42.9L48.6,42.9z"/>
				</g>
				<g>
					<path class="st113" d="M43.3,48.2c-1.2,1.5-3.5,1.7-4.9,0.4L18.6,32.1c-1.5-1.2-1.7-3.4-0.4-4.9l0,0c1.2-1.5,3.5-1.7,4.9-0.4
						l19.8,16.5C44.3,44.5,44.5,46.7,43.3,48.2L43.3,48.2z"/>
				</g>
				<g>
					<path class="st113" d="M53.8,37.6c-1.2,1.5-3.4,1.7-4.9,0.5l-20-16.2c-1.5-1.2-1.7-3.4-0.5-4.9l0,0c1.2-1.5,3.4-1.7,4.9-0.5
						l20,16.2C54.8,33.9,55,36.1,53.8,37.6L53.8,37.6z"/>
				</g>
				<g>
					<path class="st113" d="M58.8,32.2c-1.2,1.5-3.4,1.7-4.9,0.5l-20-16.2c-1.5-1.2-1.7-3.4-0.5-4.9l0,0c1.2-1.5,3.4-1.7,4.9-0.5
						l20,16.2C59.8,28.5,60,30.7,58.8,32.2L58.8,32.2z"/>
				</g>
				<g>
					<path class="st113" d="M9.9,29.5L27.8,28c3.4-0.4,5.9-3.4,5.5-6.8l-1-10c-0.4-3.4-3.4-5.9-6.8-5.5L7.6,7.3L9.9,29.5z"/>
				</g>
			</g>
			<g>
				<g>
					<g>
						<path class="st113" d="M40.2,3.2l0.7,9.6c0.3,3.3,3.2,5.8,6.6,5.5l2-0.2c0.1,0,0.2,0,0.3,0L48.6,6.1L40.2,3.2z"/>
					</g>
				</g>
				<g>
					<polygon class="st113" points="45.4,12.6 34.1,10.1 35.9,1.9 48.6,6 					"/>
				</g>
				<g>
					<path class="st113" d="M7.9,4.9L36,1.9c0.2,0.7,0.4,1.3,0.4,2c0.7,6.9-6,13.2-15.1,14.1c-4.7,0.5-9.1-0.6-12.4-2.7L7.9,4.9z"/>
				</g>
			</g>
		</g>
	</g>
	<g>
		<defs>
			<circle id="SVGID_1_" cx="37.7" cy="21.5" r="37.5"/>
		</defs>
		<clipPath id="SVGID_2_">
			<use xlink:href="#SVGID_1_"  style="overflow:visible;"/>
		</clipPath>
		<g class="st114">
			<g>
				<g>
					
						<rect x="-6.7" y="8.3" transform="matrix(-0.2607 0.9654 -0.9654 -0.2607 23.778 12.2103)" class="st0" width="27.8" height="13.8"/>
					<path class="st115" d="M4.5,0.6l12.3,3.3l-7,25.9l-12.3-3.3L4.5,0.6 M3.8-0.6l-0.3,1l-7,25.9l-0.3,1l1,0.3l12.3,3.3l1,0.3
						l0.3-1l7-25.9l0.3-1l-1-0.3L4.8-0.4L3.8-0.6L3.8-0.6z"/>
				</g>
				
					<rect x="-43.4" y="-31.3" transform="matrix(-0.2607 0.9654 -0.9654 -0.2607 -31.2431 34.9148)" class="st116" width="28.8" height="73.7"/>
				
					<rect x="-9.2" y="13.3" transform="matrix(-0.2606 0.9654 -0.9654 -0.2606 20.7344 13.5588)" class="st117" width="28.8" height="2.9"/>
			</g>
		</g>
	</g>
	<g>
		<g>
			<g>
				<g>
					<path class="st112" d="M34.2,4.9L33,14.7c-0.5,3.4-3.6,5.7-7,5.2l-2-0.3c-0.1,0-0.2,0-0.3-0.1l1.8-12.3L34.2,4.9z"/>
				</g>
			</g>
			<g>
				<polygon class="st112" points="28.3,14.2 40,12.2 38.7,3.8 25.5,7.3 				"/>
			</g>
			<g>
				<path class="st112" d="M67,8.4L38.6,3.8c-0.3,0.7-0.5,1.3-0.6,2.1c-1.1,7,5.4,13.8,14.5,15.3c4.8,0.8,9.3-0.1,12.7-2L67,8.4z"/>
			</g>
		</g>
	</g>
	<path class="st112" d="M33.5,48.7c1.2,1.5,3.4,1.7,4.9,0.5l4.2-3.4c1.5-1.2,1.7-3.4,0.5-4.9l0,0c-1.2-1.5-3.4-1.7-4.9-0.5L34,43.7
		C32.5,45,32.3,47.2,33.5,48.7L33.5,48.7z"/>
	<path class="st112" d="M28.2,43.7c1.2,1.5,3.4,1.7,4.9,0.5l4.2-3.4c1.5-1.2,1.7-3.4,0.5-4.9l0,0c-1.2-1.5-3.4-1.7-4.9-0.5l-4.2,3.4
		C27.2,40,26.9,42.2,28.2,43.7L28.2,43.7z"/>
	<path class="st112" d="M22.7,38.8c1.2,1.5,3.4,1.7,4.9,0.5l4.2-3.4c1.5-1.2,1.7-3.4,0.5-4.9l0,0c-1.2-1.5-3.4-1.7-4.9-0.5l-4.2,3.4
		C21.7,35.1,21.5,37.3,22.7,38.8L22.7,38.8z"/>
	<path class="st112" d="M17.4,33.9c1.2,1.5,3.4,1.7,4.9,0.5l4.2-3.4c1.5-1.2,1.7-3.4,0.5-4.9l0,0c-1.2-1.5-3.4-1.7-4.9-0.5L17.9,29
		C16.4,30.2,16.2,32.4,17.4,33.9L17.4,33.9z"/>
	<g>
		<defs>
			<circle id="SVGID_3_" cx="37.7" cy="21.5" r="37.5"/>
		</defs>
		<clipPath id="SVGID_4_">
			<use xlink:href="#SVGID_3_"  style="overflow:visible;"/>
		</clipPath>
		<g class="st118">
			<g>
				<g>
					
						<rect x="59.1" y="2.8" transform="matrix(-0.9642 0.2651 -0.2651 -0.9642 133.997 15.2932)" class="st0" width="13.8" height="27.8"/>
					<path class="st119" d="M68.6,2.1l7.1,25.9l-12.3,3.4L56.2,5.4L68.6,2.1 M69.3,0.8l-1,0.3L56,4.5l-1,0.3l0.3,1l7.1,25.9l0.3,1
						l1-0.3L76,28.9l1-0.3l-0.3-1L69.5,1.8L69.3,0.8L69.3,0.8z"/>
				</g>
				
					<rect x="87.7" y="-30" transform="matrix(0.265 0.9642 -0.9642 0.265 81.6228 -93.4701)" class="st120" width="28.8" height="73.7"/>
				
					<rect x="53.6" y="14.8" transform="matrix(0.265 0.9642 -0.9642 0.265 65.5896 -53.6727)" class="st119" width="28.8" height="2.9"/>
			</g>
		</g>
		<g class="st118">
			<g>
				<g>
					
						<rect x="-6.7" y="8.3" transform="matrix(-0.2607 0.9654 -0.9654 -0.2607 23.778 12.2103)" class="st0" width="27.8" height="13.8"/>
					<path class="st115" d="M4.5,0.6l12.3,3.3l-7,25.9l-12.3-3.3L4.5,0.6 M3.8-0.6l-0.3,1l-7,25.9l-0.3,1l1,0.3l12.3,3.3l1,0.3
						l0.3-1l7-25.9l0.3-1l-1-0.3L4.8-0.4L3.8-0.6L3.8-0.6z"/>
				</g>
				
					<rect x="-43.4" y="-31.3" transform="matrix(-0.2607 0.9654 -0.9654 -0.2607 -31.2431 34.9148)" class="st116" width="28.8" height="73.7"/>
				
					<rect x="-9.2" y="13.3" transform="matrix(-0.2606 0.9654 -0.9654 -0.2606 20.7344 13.5588)" class="st117" width="28.8" height="2.9"/>
			</g>
		</g>
	</g>
</g>
</svg>
