<svg xmlns="http://www.w3.org/2000/svg" viewBox="0 0 20 20"><defs><style>.a{fill:#253e91;}.b{fill:#ffc734;}.c{fill:#ffd84b;}.d{fill:#faa43b;}.e{fill:#d7a044;}.f{fill:#d9ac4f;}.g{fill:#d58a43;}</style></defs><title>slices_fixtures_v03</title><rect class="a" width="20.2" height="20.18"/><path class="b" d="M16.7,8.6a0.8,0.8,0,1,0-1.6.3L13.8,10,13.3,8.8a0.8,0.8,0,1,0-.9,0L11.5,9.9,10.4,8.5a0.8,0.8,0,1,0-.8,0L8.5,9.9,7.6,8.8a0.8,0.8,0,1,0-.9,0L6.2,10,4.9,8.9a0.8,0.8,0,1,0-.8.5L5,13H15l0.9-3.6a0.8,0.8,0,0,0,.8-0.8"/><path class="c" d="M4.1,8.3A0.3,0.3,0,1,1,3.8,8a0.3,0.3,0,0,1,.3.3"/><path class="c" d="M15.9,8.3A0.3,0.3,0,1,1,15.6,8a0.3,0.3,0,0,1,.3.3"/><path class="c" d="M12.9,7.9a0.3,0.3,0,1,1-.3-0.3,0.3,0.3,0,0,1,.3.3"/><path class="c" d="M7.1,7.9a0.3,0.3,0,1,1-.3-0.3,0.3,0.3,0,0,1,.3.3"/><path class="c" d="M10,7.6a0.3,0.3,0,1,1-.3-0.3,0.3,0.3,0,0,1,.3.3"/><path class="d" d="M15.1,12.6h0"/><path class="e" d="M10,7v5.3h5.2l0.7-3a0.8,0.8,0,1,0-.8-0.5L13.8,10,13.3,8.8a0.8,0.8,0,1,0-.9,0L11.5,9.9,10.4,8.5A0.8,0.8,0,0,0,10,7m2.6,1.2a0.3,0.3,0,1,1,.3-0.3,0.3,0.3,0,0,1-.3.3m3,0.4a0.3,0.3,0,1,1,.3-0.3,0.3,0.3,0,0,1-.3.3m-0.5,3.9H10V13h5V12.6Z"/><path class="f" d="M15.6,8a0.3,0.3,0,1,0,.3.3A0.3,0.3,0,0,0,15.6,8"/><path class="f" d="M12.6,7.6a0.3,0.3,0,1,0,.3.3,0.3,0.3,0,0,0-.3-0.3"/><path class="g" d="M15.1,12.3H10v0.2h5.1"/></svg>