<?xml version="1.0" encoding="utf-8"?>
<!-- Generator: Adobe Illustrator 17.0.0, SVG Export Plug-In . SVG Version: 6.00 Build 0)  -->
<!DOCTYPE svg PUBLIC "-//W3C//DTD SVG 1.1//EN" "http://www.w3.org/Graphics/SVG/1.1/DTD/svg11.dtd">
<svg version="1.1" id="Layer_1" xmlns="http://www.w3.org/2000/svg" xmlns:xlink="http://www.w3.org/1999/xlink" x="0px" y="0px"
	 width="24px" height="24px" viewBox="0 0 24 24" style="enable-background:new 0 0 24 24;" xml:space="preserve">
<style type="text/css">
	.st0{fill:#FFFFFF;}
	.st1{fill:none;stroke:#FFFFFF;stroke-miterlimit:10;}
	.st2{fill:#BA8B2D;}
	.st3{fill:#263C83;}
	.st4{fill:#2B2F36;}
	.st5{fill:#9E8644;}
	.st6{fill:#A29165;}
	.st7{fill:#A48C4C;}
	.st8{fill:#FFFFFA;}
	.st9{fill:#A28C51;}
	.st10{fill:#A48C49;}
	.st11{fill:#FFFFFD;}
	.st12{fill:#25397A;}
	.st13{fill:#374041;}
	.st14{fill:#424740;}
	.st15{fill:#E1C177;}
	.st16{fill:#A48C4D;}
	.st17{fill:#323C41;}
	.st18{fill:#2B3B48;}
	.st19{fill:#B98A2D;}
	.st20{fill:#2A3843;}
	.st21{fill:#1D2F44;}
	.st22{fill:#B29349;}
	.st23{fill:#524E35;}
	.st24{fill:#596EB2;}
	.st25{fill:#586EB2;}
	.st26{fill:#D3D3D6;}
	.st27{fill:#596DB3;}
	.st28{fill:#D2D3D9;}
	.st29{fill:#CED4E0;}
	.st30{fill:#B5C7E7;}
	.st31{fill:#D3D3D7;}
	.st32{fill:#5A6DB3;}
	.st33{fill:#E81E25;}
	.st34{fill:#536EB5;}
	.st35{fill:#5A6EAF;}
	.st36{fill:#D7D3D5;}
	.st37{fill:#FCF7FA;}
	.st38{fill:#FCF8FB;}
	.st39{fill:#C6363B;}
	.st40{fill:#C63136;}
	.st41{fill:#576DB4;}
	.st42{fill:#D2D3D8;}
	.st43{fill:#D2D3D7;}
	.st44{fill:#ED1C24;}
	.st45{fill:#E21F26;}
	.st46{fill:#DB1F26;}
	.st47{fill:#D3D3D8;}
	.st48{fill:#E01F26;}
	.st49{fill:#E11F26;}
	.st50{fill:#E91D25;}
	.st51{fill:#E31E26;}
	.st52{fill:#E71E25;}
	.st53{fill:#566DB4;}
	.st54{fill:#D1D3D8;}
	.st55{fill:#BC7D80;}
	.st56{fill:#C86D70;}
	.st57{fill:#C3363A;}
	.st58{fill:#566EB0;}
	.st59{fill:#CE3438;}
	.st60{fill:#CC2A30;}
	.st61{fill:#CA2127;}
	.st62{fill:#CED4DF;}
	.st63{fill:#5A6DB2;}
	.st64{fill:#6C81B9;}
	.st65{fill:#FEF3F8;}
	.st66{fill:#FEF2F4;}
	.st67{fill:#263A7D;}
	.st68{fill:#D0D4DE;}
	.st69{fill:#D2D3D6;}
	.st70{fill:#586DB4;}
	.st71{fill:#C8CDE1;}
	.st72{fill:#586EB0;}
	.st73{fill:#338956;}
	.st74{fill:#5B72AE;}
	.st75{fill:#2A3A46;}
	.st76{fill:#FFFEF8;}
	.st77{fill:#A69A77;}
	.st78{fill:#323B38;}
	.st79{fill:#1B3461;}
	.st80{fill:#9B916E;}
	.st81{fill:#3B4342;}
	.st82{fill:#FFFEF5;}
	.st83{fill:#FFFEF6;}
	.st84{fill:#263B7F;}
	.st85{fill:#28334A;}
	.st86{fill:#2F3C42;}
	.st87{fill:#FFFEF7;}
	.st88{fill:#FFFEF4;}
	.st89{fill:#253876;}
	.st90{fill:#374654;}
	.st91{fill:#253C58;}
	.st92{fill:#2A3E55;}
	.st93{fill:#C2B388;}
	.st94{fill:#3E4B53;}
	.st95{fill:#FFFFF9;}
	.st96{fill:#293E58;}
	.st97{fill:#A0936B;}
	.st98{fill:#363A31;}
	.st99{fill:#AB945B;}
	.st100{fill:#464B45;}
	.st101{fill:#3B4544;}
	.st102{fill:#2D3F56;}
	.st103{fill:#2F3D49;}
	.st104{fill:#B0A789;}
	.st105{fill-rule:evenodd;clip-rule:evenodd;fill:#252C6A;}
	.st106{fill-rule:evenodd;clip-rule:evenodd;fill:#FFFFFF;}
	.st107{opacity:0.3;}
	.st108{fill:none;stroke:#FFFFFF;stroke-width:7;stroke-miterlimit:10;}
	.st109{fill:none;stroke:#FFFFFF;stroke-width:8;stroke-miterlimit:10;}
	.st110{opacity:0.89;}
	.st111{display:none;opacity:0.1;fill:#010101;}
	.st112{fill:#EDAC68;}
	.st113{fill:#FDC892;}
	.st114{clip-path:url(#SVGID_2_);}
	.st115{fill:#2E292A;}
	.st116{fill:#262125;}
	.st117{fill:#312C2F;}
	.st118{clip-path:url(#SVGID_4_);}
	.st119{fill:#0F303F;}
	.st120{fill:#2D5972;}
	.st121{fill:none;}
	.st122{opacity:0.5;fill:#B6B7B7;}
	.st123{fill:none;stroke:#F0F0F0;stroke-width:1.0228;stroke-miterlimit:10;}
	.st124{fill:#F0F0F0;}
	.st125{fill:none;stroke:#F0F0F0;stroke-width:2.0113;stroke-miterlimit:10;}
	.st126{fill:none;stroke:#F0F0F0;stroke-miterlimit:10;}
	.st127{fill:#F0F0F0;stroke:#F0F0F0;stroke-width:0.5;stroke-miterlimit:10;}
	.st128{opacity:0.77;}
	.st129{fill:none;stroke:#FFFFFF;stroke-width:4;stroke-linecap:round;stroke-linejoin:round;stroke-miterlimit:10;}
	.st130{fill:none;stroke:#FFFFFF;stroke-width:3.5;stroke-miterlimit:10;}
	.st131{fill:none;stroke:#FFFFFF;stroke-width:4;stroke-miterlimit:10;}
</style>
<g>
	<circle class="st126" cx="12" cy="12" r="11"/>
	<path class="st127" d="M20.7,6.4C20.7,6.4,20.6,6.4,20.7,6.4c0-0.6,0-1.2,0-1.2l0,0l0,0c-0.3-0.3-0.6-0.7-0.9-1c0,0,0,0,0,0
		c-0.3-0.3-0.6-0.6-1-0.9c0,0,0,0,0,0c-0.2-0.2-0.5-0.4-0.7-0.5c0,0,0,0,0,0c-0.1-0.1-0.2-0.2-0.4-0.2c0,0,0,0,0,0
		c-0.2-0.1-0.5-0.3-0.7-0.4c0,0,0,0,0,0C16.9,2.1,16.8,2,16.7,2c0,0,0,0,0,0c-0.3-0.1-0.5-0.2-0.8-0.3c0,0,0,0,0,0
		c-0.1,0-0.3-0.1-0.4-0.1c0,0,0,0,0,0c-0.1,0-0.3-0.1-0.4-0.1h0c-0.2,1-0.4,1.8-0.5,2c-3,0.4-4.6,1.4-4.8,1.5C9.4,4.7,8.3,4,6.3,3.8
		c0-0.3,0.1-0.9,0.2-1.5c-0.1,0-0.1,0.1-0.2,0.1C6.2,3.1,6.1,3.7,6.1,3.9C5.8,4.1,4.4,5,3,7.2c0,0,0,0,0,0c0,0-0.6,0.1-1.1,0.3
		c0,0.1-0.1,0.2-0.1,0.2C2.2,7.6,2.8,7.4,3,7.4C3,7.7,3.4,8.9,4.6,10.7c0,0,0,0,0,0c0,0-0.8,2.4-0.6,4.9c0,0,0,0,0,0
		c-0.2,0.1-0.9,0.5-2,0.8L2,16.6c0.3,0.6,0.7,1.3,1.1,1.8c0,0,0,0,0,0c0.2,0.3,0.5,0.7,0.8,1c0,0,0,0,0,0c0.2,0.2,0.4,0.4,0.6,0.6
		c0,0,0,0,0,0c0.3,0.3,0.6,0.6,1,0.8c0,0,0,0,0,0c0.2,0.2,0.4,0.3,0.7,0.5c0,0,0,0,0,0c0.1,0.1,0.2,0.1,0.4,0.2l0,0
		c0.1-0.1,0.2-0.1,0.2-0.1s0.7-0.1,1.1-0.1c0,0,0,0,0,0c0,0,1.8,1.1,3.7,1.6c0.1,0,0.3,0,0.4,0c0.1,0,0.2,0,0.3,0
		C10.1,22.5,8,21.2,8,21.2c0,0,0,0,0,0c0-0.2-0.1-0.9-0.1-1.9c0.6-0.2,2.9-0.8,4.7-1.6c0.4,0.3,2.1,1.6,4.3,1.9c0,0.3,0,1.4-0.4,2.5
		c0.1,0,0.1-0.1,0.2-0.1c0.4-1.2,0.4-2.3,0.4-2.5c0.4-0.3,2.2-1.9,3-3.9c0,0,0,0,0.1,0c0.3,0,1.2-0.1,2.5-0.6c0-0.1,0-0.1,0.1-0.2
		c-1.4,0.6-2.3,0.6-2.6,0.6c-0.1-0.4-0.4-2-1.9-3.9c0.6-2.9,0.6-4.5,0.6-4.8c0.6,0,1.6-0.1,1.9-0.2c0,0,0,0,0,0.1
		c0,0,1.6,1.5,2.4,4.1c0-0.3-0.1-0.7-0.2-1C21.9,7.6,20.7,6.5,20.7,6.4z M12.5,17.5c-1.8,0.8-4.3,1.5-4.7,1.6
		c-0.5-0.3-2.5-1.8-3.7-3.5c0,0,0,0,0-0.1c-0.2-2.4,0.6-4.8,0.6-4.8c0,0,0,0,0,0c0.4-0.2,1.7-0.8,4-1.5c0.1,0,1.6,1.3,4.3,3.7
		C13,13.6,12.7,16.1,12.5,17.5z M18,11.5c-0.5,0.2-2.5,0.9-4.8,1.4C10.5,10.5,9,9.3,8.8,9.2c0.1-0.4,0.3-2,0.9-4.1c0,0,0,0,0,0
		c0,0,1.6-1.1,4.8-1.5c2.1,1,3.5,2.7,3.9,3.1c0,0,0,0,0,0.1C18.5,6.7,18.6,8.3,18,11.5z"/>
</g>
</svg>
