<svg xmlns="http://www.w3.org/2000/svg" viewBox="0 0 24 24"><defs><style>.a{fill:#f0f0f0;}.b,.c{fill:none;stroke:#f0f0f0;}.b{stroke-miterlimit:10;}.c{stroke-linecap:round;stroke-linejoin:round;}</style></defs><title>slices_fixtures_v03</title><path class="a" d="M15,3.06l0.17,0a0.56,0.56,0,0,0,.53-0.39,0.55,0.55,0,1,0-.69.36h0Zm0,0"/><path class="a" d="M13,2.66h0.06a0.57,0.57,0,1,0-.06,0h0Zm0,0"/><path class="a" d="M8.87,3.09L9,3.07a0.56,0.56,0,1,0-.17,0h0Zm0,0"/><path class="a" d="M16.81,3.85a0.55,0.55,0,1,0-.22-0.75,0.55,0.55,0,0,0,.22.75h0Zm0,0"/><path class="a" d="M6.92,3.93a0.55,0.55,0,1,0-.48-0.28,0.55,0.55,0,0,0,.48.28h0Zm0,0"/><path class="a" d="M18.45,5a0.56,0.56,0,0,0,.36.13,0.54,0.54,0,0,0,.42-0.19,0.55,0.55,0,1,0-.78.06h0Zm0,0"/><path class="a" d="M21.39,8.46a0.57,0.57,0,0,0,.24-0.06,0.56,0.56,0,1,0-.24.06h0Zm0,0"/><path class="a" d="M21.59,10a0.55,0.55,0,0,0,.53.41l0.14,0a0.55,0.55,0,1,0-.67-0.4h0Zm0,0"/><path class="a" d="M22.42,11.43a0.55,0.55,0,0,0,0,1.1h0a0.55,0.55,0,0,0-.06-1.1h0Zm0,0"/><path class="a" d="M10.94,2.67H11a0.53,0.53,0,1,0-.06,0h0Zm0,0"/><path class="a" d="M21.18,17.58a0.55,0.55,0,0,0-.58.93,0.57,0.57,0,0,0,.29.08,0.55,0.55,0,0,0,.47-0.26,0.54,0.54,0,0,0-.17-0.75h0Zm0,0"/><path class="a" d="M22.43,13.55a0.55,0.55,0,0,0-.63.46,0.55,0.55,0,0,0,.46.62h0.08a0.55,0.55,0,0,0,.54-0.47,0.55,0.55,0,0,0-.46-0.62h0Zm0,0"/><path class="a" d="M20.7,5.78a0.55,0.55,0,1,0-.87.68,0.56,0.56,0,0,0,.44.21,0.53,0.53,0,0,0,.34-0.11,0.55,0.55,0,0,0,.1-0.77h0Zm0,0"/><path class="a" d="M5.19,5.13a0.55,0.55,0,1,0-.42-0.19,0.54,0.54,0,0,0,.42.19h0Zm0,0"/><path class="a" d="M4.17,6.45a0.55,0.55,0,1,0-.43.21,0.53,0.53,0,0,0,.43-0.21h0Zm0,0"/><path class="a" d="M2.7,16a0.55,0.55,0,1,0-.51.74,0.48,0.48,0,0,0,.19,0A0.54,0.54,0,0,0,2.7,16h0Zm0,0"/><path class="a" d="M1.52,12.54h0A0.55,0.55,0,1,0,1,12a0.55,0.55,0,0,0,.55.58h0Zm0,0"/><path class="a" d="M3.58,17.76a0.55,0.55,0,1,0-.46.85,0.54,0.54,0,0,0,.29-0.08,0.56,0.56,0,0,0,.17-0.76h0Zm0,0"/><path class="a" d="M1.74,14.65a0.57,0.57,0,1,0-.09,0H1.74Zm0,0"/><path class="a" d="M1.74,10.43l0.14,0a0.55,0.55,0,1,0-.14,0h0Zm0,0"/><path class="a" d="M2.37,8.41a0.57,0.57,0,0,0,.24.06,0.55,0.55,0,1,0-.24-0.06h0Zm0,0"/><path class="a" d="M22,15.63a0.55,0.55,0,1,0-.38,1,0.57,0.57,0,0,0,.19,0A0.55,0.55,0,0,0,22,15.63h0Zm0,0"/><path class="b" d="M8.13,10.9a0.08,0.08,0,0,1,0,0C8.3,7.24,11,7,11.81,7H12c0.82,0,3.5.28,3.67,3.91a0.08,0.08,0,0,0,0,0S16,14.24,14.48,16a3.26,3.26,0,0,1-2.54,1.06H11.88A3.25,3.25,0,0,1,9.34,16c-1.55-1.75-1.21-5.06-1.21-5.1h0Z"/><path class="c" d="M12,22.43a11.6,11.6,0,0,1-7.71-2.89c3.62-1.17,4.62-2.64,5-3.54a3.22,3.22,0,0,0,2.6,1.06h0A3.37,3.37,0,0,0,14.48,16c0.47,0.89,1.77,2.52,5.2,3.58A11.61,11.61,0,0,1,12,22.43h0Z"/></svg>