<?xml version="1.0" encoding="utf-8"?>
<!-- Generator: Adobe Illustrator 19.2.1, SVG Export Plug-In . SVG Version: 6.00 Build 0)  -->
<svg version="1.1" id="Layer_1" xmlns="http://www.w3.org/2000/svg" xmlns:xlink="http://www.w3.org/1999/xlink" x="0px" y="0px"
	 width="270px" height="100px" viewBox="0 0 270 100" style="enable-background:new 0 0 270 100;" xml:space="preserve">
<style type="text/css">
	.st0{fill:#C8E5C9;}
	.st1{fill:#FFFFFF;}
	.st2{fill:none;stroke:#FFFFFF;stroke-miterlimit:10;}
	.st3{fill:#BA8B2D;}
	.st4{fill:#263C83;}
	.st5{fill:#2B2F36;}
	.st6{fill:#9E8644;}
	.st7{fill:#A29165;}
	.st8{fill:#A48C4C;}
	.st9{fill:#FFFFFA;}
	.st10{fill:#A28C51;}
	.st11{fill:#A48C49;}
	.st12{fill:#FFFFFD;}
	.st13{fill:#25397A;}
	.st14{fill:#374041;}
	.st15{fill:#424740;}
	.st16{fill:#E1C177;}
	.st17{fill:#A48C4D;}
	.st18{fill:#323C41;}
	.st19{fill:#2B3B48;}
	.st20{fill:#B98A2D;}
	.st21{fill:#2A3843;}
	.st22{fill:#1D2F44;}
	.st23{fill:#B29349;}
	.st24{fill:#524E35;}
	.st25{fill:#596EB2;}
	.st26{fill:#586EB2;}
	.st27{fill:#D3D3D6;}
	.st28{fill:#596DB3;}
	.st29{fill:#D2D3D9;}
	.st30{fill:#CED4E0;}
	.st31{fill:#B5C7E7;}
	.st32{fill:#D3D3D7;}
	.st33{fill:#5A6DB3;}
	.st34{fill:#E81E25;}
	.st35{fill:#536EB5;}
	.st36{fill:#5A6EAF;}
	.st37{fill:#D7D3D5;}
	.st38{fill:#FCF7FA;}
	.st39{fill:#FCF8FB;}
	.st40{fill:#C6363B;}
	.st41{fill:#C63136;}
	.st42{fill:#576DB4;}
	.st43{fill:#D2D3D8;}
	.st44{fill:#D2D3D7;}
	.st45{fill:#ED1C24;}
	.st46{fill:#E21F26;}
	.st47{fill:#DB1F26;}
	.st48{fill:#D3D3D8;}
	.st49{fill:#E01F26;}
	.st50{fill:#E11F26;}
	.st51{fill:#E91D25;}
	.st52{fill:#E31E26;}
	.st53{fill:#E71E25;}
	.st54{fill:#566DB4;}
	.st55{fill:#D1D3D8;}
	.st56{fill:#BC7D80;}
	.st57{fill:#C86D70;}
	.st58{fill:#C3363A;}
	.st59{fill:#566EB0;}
	.st60{fill:#CE3438;}
	.st61{fill:#CC2A30;}
	.st62{fill:#CA2127;}
	.st63{fill:#CED4DF;}
	.st64{fill:#5A6DB2;}
	.st65{fill:#6C81B9;}
	.st66{fill:#FEF3F8;}
	.st67{fill:#FEF2F4;}
	.st68{fill:#263A7D;}
	.st69{fill:#D0D4DE;}
	.st70{fill:#D2D3D6;}
	.st71{fill:#586DB4;}
	.st72{fill:#C8CDE1;}
	.st73{fill:#586EB0;}
	.st74{fill:#338956;}
	.st75{fill:#5B72AE;}
	.st76{fill:#2A3A46;}
	.st77{fill:#FFFEF8;}
	.st78{fill:#A69A77;}
	.st79{fill:#323B38;}
	.st80{fill:#1B3461;}
	.st81{fill:#9B916E;}
	.st82{fill:#3B4342;}
	.st83{fill:#FFFEF5;}
	.st84{fill:#FFFEF6;}
	.st85{fill:#263B7F;}
	.st86{fill:#28334A;}
	.st87{fill:#2F3C42;}
	.st88{fill:#FFFEF7;}
	.st89{fill:#FFFEF4;}
	.st90{fill:#253876;}
	.st91{fill:#374654;}
	.st92{fill:#253C58;}
	.st93{fill:#2A3E55;}
	.st94{fill:#C2B388;}
	.st95{fill:#3E4B53;}
	.st96{fill:#FFFFF9;}
	.st97{fill:#293E58;}
	.st98{fill:#A0936B;}
	.st99{fill:#363A31;}
	.st100{fill:#AB945B;}
	.st101{fill:#464B45;}
	.st102{fill:#3B4544;}
	.st103{fill:#2D3F56;}
	.st104{fill:#2F3D49;}
	.st105{fill:#B0A789;}
	.st106{fill-rule:evenodd;clip-rule:evenodd;fill:#252C6A;}
	.st107{fill-rule:evenodd;clip-rule:evenodd;fill:#FFFFFF;}
	.st108{opacity:0.3;}
	.st109{fill:none;stroke:#FFFFFF;stroke-width:7;stroke-miterlimit:10;}
	.st110{fill:none;stroke:#FFFFFF;stroke-width:8;stroke-miterlimit:10;}
	.st111{opacity:0.89;}
	.st112{display:none;opacity:0.1;fill:#010101;}
	.st113{fill:#EDAC68;}
	.st114{fill:#FDC892;}
	.st115{clip-path:url(#SVGID_2_);}
	.st116{fill:#2E292A;}
	.st117{fill:#262125;}
	.st118{fill:#312C2F;}
	.st119{clip-path:url(#SVGID_4_);}
	.st120{fill:#0F303F;}
	.st121{fill:#2D5972;}
	.st122{fill:none;}
	.st123{opacity:0.5;fill:#B6B7B7;}
	.st124{fill:none;stroke:#F0F0F0;stroke-width:1.0228;stroke-miterlimit:10;}
	.st125{fill:#F0F0F0;}
	.st126{fill:none;stroke:#F0F0F0;stroke-width:2.0113;stroke-miterlimit:10;}
	.st127{fill:none;stroke:#F0F0F0;stroke-miterlimit:10;}
	.st128{fill:#F0F0F0;stroke:#F0F0F0;stroke-width:0.5;stroke-miterlimit:10;}
	.st129{opacity:0.77;}
	.st130{fill:none;stroke:#FFFFFF;stroke-width:4;stroke-linecap:round;stroke-linejoin:round;stroke-miterlimit:10;}
	.st131{fill:none;stroke:#FFFFFF;stroke-width:3.5;stroke-miterlimit:10;}
	.st132{fill:none;stroke:#FFFFFF;stroke-width:4;stroke-miterlimit:10;}
	.st133{fill:none;stroke:#737373;stroke-width:2;stroke-linecap:round;stroke-linejoin:round;stroke-miterlimit:10;}
	.st134{fill:#4655A5;}
	.st135{fill:none;stroke:#C8E5C9;stroke-width:7.7823;stroke-linecap:round;stroke-linejoin:round;stroke-miterlimit:10;}
	.st136{fill:#4DAF4F;}
	.st137{opacity:0.5;fill:none;stroke:#737373;stroke-miterlimit:10;}
	.st138{fill:#3C5A99;}
	.st139{fill:#439CD6;}
	.st140{fill:#E3E4E5;}
	.st141{fill:#F7F9F9;}
	.st142{fill:#EFEFEF;}
	.st143{fill:#223228;}
	.st144{clip-path:url(#SVGID_6_);}
	.st145{fill:#378F43;}
	.st146{clip-path:url(#SVGID_6_);fill:url(#SVGID_7_);}
</style>
<rect class="st0" width="270" height="100"/>
<g class="st108">
	<defs>
		<rect id="SVGID_5_" class="st108" width="270" height="100"/>
	</defs>
	<clipPath id="SVGID_2_">
		<use xlink:href="#SVGID_5_"  style="overflow:visible;"/>
	</clipPath>
	<g class="st115">
		<g>
			<g>
				<path class="st145" d="M270,117.4l-20.5-20.5c-0.4-0.4-1.2-0.4-1.6,0c-0.2,0.2-0.3,0.5-0.3,0.8c0,0.3,0.1,0.6,0.3,0.8l22.1,22.1
					V117.4z"/>
			</g>
			<g>
				<path class="st145" d="M270,124.4l-24.2-24.2c-0.4-0.4-1.2-0.4-1.6,0c-0.2,0.2-0.3,0.5-0.3,0.8c0,0.3,0.1,0.6,0.3,0.8l25.8,25.8
					V124.4z"/>
			</g>
			<g>
				<path class="st145" d="M270,117.5l-26.7-26.7c-0.4-0.4-1.1-0.4-1.5,0c-0.2,0.2-0.3,0.5-0.3,0.7s0.1,0.5,0.3,0.7l28.2,28.2V117.5
					z"/>
			</g>
			<g>
				<path class="st145" d="M270,124.6l-30.2-30.2c-0.4-0.4-1.1-0.4-1.5,0c-0.2,0.2-0.3,0.5-0.3,0.7s0.1,0.5,0.3,0.7l31.7,31.7V124.6
					z"/>
			</g>
			<g>
				<path class="st145" d="M270,131.8l-32-32c-0.4-0.4-1-0.4-1.4,0c-0.2,0.2-0.3,0.4-0.3,0.7c0,0.2,0.1,0.5,0.3,0.7l33.4,33.4V131.8
					z"/>
			</g>
			<g>
				<path class="st145" d="M270,117.6L237.4,85c-0.4-0.4-1-0.4-1.4,0c-0.2,0.2-0.3,0.4-0.3,0.7c0,0.2,0.1,0.5,0.3,0.7l34,34V117.6z"
					/>
			</g>
			<g>
				<path class="st145" d="M270,124.7l-36.1-36.1c-0.4-0.4-1-0.4-1.4,0c-0.2,0.2-0.3,0.4-0.3,0.7c0,0.2,0.1,0.5,0.3,0.7l36.6,36.6
					c0.3,0.3,0.6,0.3,0.9,0.2V124.7z"/>
			</g>
			<g>
				<path class="st145" d="M228.7,92.8c0-0.2,0.1-0.5,0.3-0.7c0.4-0.4,1-0.4,1.4,0l36.6,36.6c0.4,0.4,0.4,1,0,1.4
					c-0.4,0.4-1,0.4-1.4,0L229,93.4C228.8,93.3,228.7,93,228.7,92.8z"/>
			</g>
			<g>
				<path class="st145" d="M225.2,96.3c0-0.2,0.1-0.5,0.3-0.7c0.4-0.4,1-0.4,1.4,0l36.6,36.6c0.4,0.4,0.4,1,0,1.4
					c-0.4,0.4-1,0.4-1.4,0L225.4,97C225.3,96.8,225.2,96.5,225.2,96.3z"/>
			</g>
			<g>
				<path class="st145" d="M221.6,99.8c0-0.2,0.1-0.5,0.3-0.7c0.4-0.4,1-0.4,1.4,0l36.6,36.6c0.4,0.4,0.4,1,0,1.4
					c-0.4,0.4-1,0.4-1.4,0l-36.6-36.6C221.7,100.3,221.6,100.1,221.6,99.8z"/>
			</g>
			<g>
				<path class="st145" d="M232.9,82.5c0-0.2,0.1-0.4,0.2-0.5c0.3-0.3,0.7-0.3,1,0l27.6,27.6c0.3,0.3,0.3,0.7,0,1
					c-0.3,0.3-0.7,0.3-1,0l-27.6-27.6C232.9,82.9,232.9,82.7,232.9,82.5z"/>
			</g>
			<g>
				<path class="st145" d="M229.3,86.1c0-0.2,0.1-0.4,0.2-0.5c0.3-0.3,0.7-0.3,1,0l27.6,27.6c0.3,0.3,0.3,0.7,0,1
					c-0.3,0.3-0.7,0.3-1,0l-27.6-27.6C229.4,86.5,229.3,86.3,229.3,86.1z"/>
			</g>
			<g>
				<path class="st145" d="M225.8,89.6c0-0.2,0.1-0.4,0.2-0.5c0.3-0.3,0.7-0.3,1,0l27.6,27.6c0.3,0.3,0.3,0.7,0,1
					c-0.3,0.3-0.7,0.3-1,0L226,90.1C225.9,90,225.8,89.8,225.8,89.6z"/>
			</g>
			<g>
				<path class="st145" d="M222.2,93.2c0-0.2,0.1-0.4,0.2-0.5c0.3-0.3,0.7-0.3,1,0l27.6,27.6c0.3,0.3,0.3,0.7,0,1
					c-0.3,0.3-0.7,0.3-1,0l-27.6-27.6C222.3,93.5,222.2,93.3,222.2,93.2z"/>
			</g>
			<g>
				<path class="st145" d="M218.7,96.7c0-0.2,0.1-0.4,0.2-0.5c0.3-0.3,0.7-0.3,1,0l27.6,27.6c0.3,0.3,0.3,0.7,0,1
					c-0.3,0.3-0.7,0.3-1,0l-27.6-27.6C218.8,97.1,218.7,96.9,218.7,96.7z"/>
			</g>
			<g>
				<path class="st145" d="M215.2,100.2c0-0.2,0.1-0.4,0.2-0.5c0.3-0.3,0.7-0.3,1,0l27.6,27.6c0.3,0.3,0.3,0.7,0,1
					c-0.3,0.3-0.7,0.3-1,0l-27.6-27.6C215.2,100.6,215.2,100.4,215.2,100.2z"/>
			</g>
			<g>
				<path class="st145" d="M225.2,74.9c0-0.2,0.1-0.4,0.2-0.5c0.3-0.3,0.7-0.3,1,0L254,102c0.3,0.3,0.3,0.7,0,1
					c-0.3,0.3-0.7,0.3-1,0l-27.6-27.6C225.3,75.3,225.2,75.1,225.2,74.9z"/>
			</g>
			<g>
				<path class="st145" d="M221.7,78.4c0-0.2,0.1-0.4,0.2-0.5c0.3-0.3,0.7-0.3,1,0l27.6,27.6c0.3,0.3,0.3,0.7,0,1
					c-0.3,0.3-0.7,0.3-1,0L221.9,79C221.7,78.8,221.7,78.6,221.7,78.4z"/>
			</g>
			<g>
				<path class="st145" d="M218.1,82c0-0.2,0.1-0.4,0.2-0.5c0.3-0.3,0.7-0.3,1,0l27.6,27.6c0.3,0.3,0.3,0.7,0,1
					c-0.3,0.3-0.7,0.3-1,0l-27.6-27.6C218.2,82.4,218.1,82.2,218.1,82z"/>
			</g>
			<g>
				<path class="st145" d="M214.6,85.5c0-0.2,0.1-0.4,0.2-0.5c0.3-0.3,0.7-0.3,1,0l27.6,27.6c0.3,0.3,0.3,0.7,0,1
					c-0.3,0.3-0.7,0.3-1,0L214.8,86C214.7,85.9,214.6,85.7,214.6,85.5z"/>
			</g>
			<g>
				<path class="st145" d="M211.1,89.1c0-0.2,0.1-0.4,0.2-0.5c0.3-0.3,0.7-0.3,1,0l27.6,27.6c0.3,0.3,0.3,0.7,0,1
					c-0.3,0.3-0.7,0.3-1,0l-27.6-27.6C211.1,89.4,211.1,89.2,211.1,89.1z"/>
			</g>
			<g>
				<path class="st145" d="M207.5,92.6c0-0.2,0.1-0.4,0.2-0.5c0.3-0.3,0.7-0.3,1,0l27.6,27.6c0.3,0.3,0.3,0.7,0,1
					c-0.3,0.3-0.7,0.3-1,0l-27.6-27.6C207.6,93,207.5,92.8,207.5,92.6z"/>
			</g>
			<g>
				<path class="st145" d="M204,96.1c0-0.2,0.1-0.4,0.2-0.5c0.3-0.3,0.7-0.3,1,0l27.6,27.6c0.3,0.3,0.3,0.7,0,1
					c-0.3,0.3-0.7,0.3-1,0l-27.6-27.6C204.1,96.5,204,96.3,204,96.1z"/>
			</g>
			<g>
				<path class="st145" d="M200.3,99.5c0-0.2,0.1-0.4,0.2-0.5c0.3-0.3,0.7-0.3,1,0l27.9,27.9c0.3,0.3,0.3,0.7,0,1
					c-0.3,0.3-0.7,0.3-1,0L200.5,100C200.4,99.9,200.3,99.7,200.3,99.5z"/>
			</g>
			<g>
				<path class="st145" d="M220.6,70.1c0-0.1,0.1-0.3,0.2-0.4c0.2-0.2,0.6-0.2,0.8,0l21.9,21.9c0.2,0.2,0.2,0.6,0,0.8
					c-0.2,0.2-0.6,0.2-0.8,0l-21.9-21.9C220.6,70.4,220.6,70.3,220.6,70.1z"/>
			</g>
			<g>
				<path class="st145" d="M217,73.6c0-0.1,0.1-0.3,0.2-0.4c0.2-0.2,0.6-0.2,0.8,0l21.9,21.9c0.2,0.2,0.2,0.6,0,0.8
					c-0.2,0.2-0.6,0.2-0.8,0l-21.9-21.9C217.1,73.9,217,73.8,217,73.6z"/>
			</g>
			<g>
				<path class="st145" d="M213.5,77.2c0-0.1,0.1-0.3,0.2-0.4c0.2-0.2,0.6-0.2,0.8,0l21.9,21.9c0.2,0.2,0.2,0.6,0,0.8
					c-0.2,0.2-0.6,0.2-0.8,0l-21.9-21.9C213.6,77.5,213.5,77.3,213.5,77.2z"/>
			</g>
			<g>
				<path class="st145" d="M210,80.7c0-0.1,0.1-0.3,0.2-0.4c0.2-0.2,0.6-0.2,0.8,0l21.9,21.9c0.2,0.2,0.2,0.6,0,0.8
					c-0.2,0.2-0.6,0.2-0.8,0l-21.9-21.9C210,81,210,80.9,210,80.7z"/>
			</g>
			<g>
				<path class="st145" d="M206.4,84.3c0-0.1,0.1-0.3,0.2-0.4c0.2-0.2,0.6-0.2,0.8,0l21.9,21.9c0.2,0.2,0.2,0.6,0,0.8
					c-0.2,0.2-0.6,0.2-0.8,0l-21.9-21.9C206.5,84.5,206.4,84.4,206.4,84.3z"/>
			</g>
			<g>
				<path class="st145" d="M202.9,87.8c0-0.1,0.1-0.3,0.2-0.4c0.2-0.2,0.6-0.2,0.8,0l21.9,21.9c0.2,0.2,0.2,0.6,0,0.8
					c-0.2,0.2-0.6,0.2-0.8,0l-21.9-21.9C202.9,88.1,202.9,87.9,202.9,87.8z"/>
			</g>
			<g>
				<path class="st145" d="M199.4,91.3c0-0.1,0.1-0.3,0.2-0.4c0.2-0.2,0.6-0.2,0.8,0l21.9,21.9c0.2,0.2,0.2,0.6,0,0.8
					c-0.2,0.2-0.6,0.2-0.8,0l-21.9-21.9C199.4,91.6,199.4,91.5,199.4,91.3z"/>
			</g>
			<g>
				<path class="st145" d="M192.7,91.9c0-0.2,0.1-0.4,0.2-0.5c0.3-0.3,0.7-0.3,1,0l27.9,27.9c0.3,0.3,0.3,0.7,0,1
					c-0.3,0.3-0.7,0.3-1,0l-27.9-27.9C192.7,92.2,192.7,92.1,192.7,91.9z"/>
			</g>
			<g>
				<path class="st145" d="M189.1,95.4c0-0.2,0.1-0.4,0.2-0.5c0.3-0.3,0.7-0.3,1,0l27.9,27.9c0.3,0.3,0.3,0.7,0,1
					c-0.3,0.3-0.7,0.3-1,0l-27.9-27.9C189.2,95.8,189.1,95.6,189.1,95.4z"/>
			</g>
			<g>
				<path class="st145" d="M185.4,98.8c0-0.2,0.1-0.4,0.2-0.5c0.3-0.3,0.8-0.3,1,0l28.2,28.2c0.3,0.3,0.3,0.8,0,1s-0.8,0.3-1,0
					l-28.2-28.2C185.5,99.2,185.4,99,185.4,98.8z"/>
			</g>
			<g>
				<path class="st145" d="M212.9,62.5c0-0.1,0.1-0.3,0.2-0.4c0.2-0.2,0.6-0.2,0.8,0l21.9,21.9c0.2,0.2,0.2,0.6,0,0.8
					c-0.2,0.2-0.6,0.2-0.8,0l-21.9-21.9C213,62.8,212.9,62.6,212.9,62.5z"/>
			</g>
			<g>
				<path class="st145" d="M209.4,66c0-0.1,0.1-0.3,0.2-0.4c0.2-0.2,0.6-0.2,0.8,0l21.9,21.9c0.2,0.2,0.2,0.6,0,0.8
					c-0.2,0.2-0.6,0.2-0.8,0l-21.9-21.9C209.4,66.3,209.4,66.2,209.4,66z"/>
			</g>
			<g>
				<path class="st145" d="M205.9,69.5c0-0.1,0.1-0.3,0.2-0.4c0.2-0.2,0.6-0.2,0.8,0L228.7,91c0.2,0.2,0.2,0.6,0,0.8
					c-0.2,0.2-0.6,0.2-0.8,0L206,69.9C205.9,69.8,205.9,69.7,205.9,69.5z"/>
			</g>
			<g>
				<path class="st145" d="M202.3,73.1c0-0.1,0.1-0.3,0.2-0.4c0.2-0.2,0.6-0.2,0.8,0l21.9,21.9c0.2,0.2,0.2,0.6,0,0.8
					c-0.2,0.2-0.6,0.2-0.8,0l-21.9-21.9C202.4,73.4,202.3,73.2,202.3,73.1z"/>
			</g>
			<g>
				<path class="st145" d="M198.8,76.6c0-0.1,0.1-0.3,0.2-0.4c0.2-0.2,0.6-0.2,0.8,0l21.9,21.9c0.2,0.2,0.2,0.6,0,0.8
					c-0.2,0.2-0.6,0.2-0.8,0L199,77C198.8,76.9,198.8,76.8,198.8,76.6z"/>
			</g>
			<g>
				<path class="st145" d="M195.3,80.2c0-0.1,0.1-0.3,0.2-0.4c0.2-0.2,0.6-0.2,0.8,0l21.9,21.9c0.2,0.2,0.2,0.6,0,0.8
					c-0.2,0.2-0.6,0.2-0.8,0l-21.9-21.9C195.3,80.4,195.3,80.3,195.3,80.2z"/>
			</g>
			<g>
				<path class="st145" d="M191.7,83.7c0-0.1,0.1-0.3,0.2-0.4c0.2-0.2,0.6-0.2,0.8,0l21.9,21.9c0.2,0.2,0.2,0.6,0,0.8
					c-0.2,0.2-0.6,0.2-0.8,0l-21.9-21.9C191.8,84,191.7,83.8,191.7,83.7z"/>
			</g>
			<g>
				<path class="st145" d="M188.2,87.2c0-0.1,0.1-0.3,0.2-0.4c0.2-0.2,0.6-0.2,0.8,0l21.9,21.9c0.2,0.2,0.2,0.6,0,0.8
					c-0.2,0.2-0.6,0.2-0.8,0l-21.9-21.9C188.2,87.5,188.2,87.4,188.2,87.2z"/>
			</g>
			<g>
				<path class="st145" d="M184.6,90.8c0-0.1,0.1-0.3,0.2-0.4c0.2-0.2,0.6-0.2,0.8,0l21.9,21.9c0.2,0.2,0.2,0.6,0,0.8
					c-0.2,0.2-0.6,0.2-0.8,0l-21.9-21.9C184.7,91.1,184.6,90.9,184.6,90.8z"/>
			</g>
			<g>
				<path class="st145" d="M181.1,94.3c0-0.1,0.1-0.3,0.2-0.4c0.2-0.2,0.6-0.2,0.8,0l21.9,21.9c0.2,0.2,0.2,0.6,0,0.8
					c-0.2,0.2-0.6,0.2-0.8,0l-21.9-21.9C181.2,94.6,181.1,94.4,181.1,94.3z"/>
			</g>
			<g>
				<path class="st145" d="M177.6,97.8c0-0.1,0.1-0.3,0.2-0.4c0.2-0.2,0.6-0.2,0.8,0l21.9,21.9c0.2,0.2,0.2,0.6,0,0.8
					c-0.2,0.2-0.6,0.2-0.8,0l-21.9-21.9C177.6,98.1,177.6,98,177.6,97.8z"/>
			</g>
			<g>
				<path class="st145" d="M170.6,98.1c0-0.2,0.1-0.4,0.2-0.5c0.3-0.3,0.8-0.3,1.1,0l28.5,28.5c0.3,0.3,0.3,0.8,0,1.1
					c-0.3,0.3-0.8,0.3-1.1,0l-28.5-28.5C170.6,98.4,170.6,98.3,170.6,98.1z"/>
			</g>
			<g>
				<path class="st145" d="M208.6,58c0-0.1,0-0.2,0.1-0.3c0.2-0.2,0.4-0.2,0.6,0l15.6,15.6c0.2,0.2,0.2,0.4,0,0.6
					c-0.2,0.2-0.4,0.2-0.6,0l-15.6-15.6C208.6,58.2,208.6,58.1,208.6,58z"/>
			</g>
			<g>
				<path class="st145" d="M205.1,61.5c0-0.1,0-0.2,0.1-0.3c0.2-0.2,0.4-0.2,0.6,0l15.6,15.6c0.2,0.2,0.2,0.4,0,0.6
					c-0.2,0.2-0.4,0.2-0.6,0l-15.6-15.6C205.1,61.7,205.1,61.6,205.1,61.5z"/>
			</g>
			<g>
				<path class="st145" d="M201.5,65c0-0.1,0-0.2,0.1-0.3c0.2-0.2,0.4-0.2,0.6,0l15.6,15.6c0.2,0.2,0.2,0.4,0,0.6
					c-0.2,0.2-0.4,0.2-0.6,0l-15.6-15.6C201.6,65.3,201.5,65.2,201.5,65z"/>
			</g>
			<g>
				<path class="st145" d="M198,68.6c0-0.1,0-0.2,0.1-0.3c0.2-0.2,0.4-0.2,0.6,0l15.6,15.6c0.2,0.2,0.2,0.4,0,0.6
					c-0.2,0.2-0.4,0.2-0.6,0l-15.6-15.6C198,68.8,198,68.7,198,68.6z"/>
			</g>
			<g>
				<path class="st145" d="M194.5,72.1c0-0.1,0-0.2,0.1-0.3c0.2-0.2,0.4-0.2,0.6,0l15.6,15.6c0.2,0.2,0.2,0.4,0,0.6
					c-0.2,0.2-0.4,0.2-0.6,0l-15.6-15.6C194.5,72.3,194.5,72.2,194.5,72.1z"/>
			</g>
			<g>
				<path class="st145" d="M190.8,75.5c0-0.1,0-0.2,0.1-0.3c0.2-0.2,0.4-0.2,0.6,0l15.9,15.9c0.2,0.2,0.2,0.4,0,0.6
					c-0.2,0.2-0.4,0.2-0.6,0l-15.9-15.9C190.8,75.7,190.8,75.6,190.8,75.5z"/>
			</g>
			<g>
				<path class="st145" d="M187.2,79c0-0.1,0-0.2,0.1-0.3c0.2-0.2,0.4-0.2,0.6,0l15.9,15.9c0.2,0.2,0.2,0.4,0,0.6
					c-0.2,0.2-0.4,0.2-0.6,0l-15.9-15.9C187.3,79.3,187.2,79.1,187.2,79z"/>
			</g>
			<g>
				<path class="st145" d="M183.7,82.6c0-0.1,0-0.2,0.1-0.3c0.2-0.2,0.4-0.2,0.6,0l15.9,15.9c0.2,0.2,0.2,0.4,0,0.6
					c-0.2,0.2-0.4,0.2-0.6,0l-15.9-15.9C183.7,82.8,183.7,82.7,183.7,82.6z"/>
			</g>
			<g>
				<path class="st145" d="M180.2,86.1c0-0.1,0-0.2,0.1-0.3c0.2-0.2,0.4-0.2,0.6,0l15.9,15.9c0.2,0.2,0.2,0.4,0,0.6
					c-0.2,0.2-0.4,0.2-0.6,0l-15.9-15.9C180.2,86.3,180.2,86.2,180.2,86.1z"/>
			</g>
			<g>
				<path class="st145" d="M176.6,89.7c0-0.1,0-0.2,0.1-0.3c0.2-0.2,0.4-0.2,0.6,0l15.9,15.9c0.2,0.2,0.2,0.4,0,0.6
					c-0.2,0.2-0.4,0.2-0.6,0l-15.9-15.9C176.7,89.9,176.6,89.8,176.6,89.7z"/>
			</g>
			<g>
				<path class="st145" d="M172.9,93c0-0.1,0-0.2,0.1-0.3c0.2-0.2,0.4-0.2,0.6,0l16.2,16.2c0.2,0.2,0.2,0.4,0,0.6
					c-0.2,0.2-0.4,0.2-0.6,0L173,93.3C173,93.2,172.9,93.1,172.9,93z"/>
			</g>
			<g>
				<path class="st145" d="M169.4,96.6c0-0.1,0-0.2,0.1-0.3c0.2-0.2,0.4-0.2,0.6,0l16.2,16.2c0.2,0.2,0.2,0.4,0,0.6
					c-0.2,0.2-0.4,0.2-0.6,0l-16.2-16.2C169.4,96.8,169.4,96.7,169.4,96.6z"/>
			</g>
			<g>
				<path class="st145" d="M165.9,100.1c0-0.1,0-0.2,0.1-0.3c0.2-0.2,0.4-0.2,0.6,0l16.2,16.2c0.2,0.2,0.2,0.4,0,0.6
					c-0.2,0.2-0.4,0.2-0.6,0L166,100.4C165.9,100.3,165.9,100.2,165.9,100.1z"/>
			</g>
			<g>
				<path class="st145" d="M158.4,99.9c0-0.2,0.1-0.3,0.2-0.4c0.2-0.2,0.6-0.2,0.9,0l23.7,23.7c0.2,0.2,0.2,0.6,0,0.9
					c-0.2,0.2-0.6,0.2-0.9,0l-23.7-23.7C158.4,100.2,158.4,100.1,158.4,99.9z"/>
			</g>
			<g>
				<path class="st145" d="M201,50.3c0-0.1,0-0.2,0.1-0.3c0.2-0.2,0.4-0.2,0.6,0l15.6,15.6c0.2,0.2,0.2,0.4,0,0.6
					c-0.2,0.2-0.4,0.2-0.6,0l-15.6-15.6C201,50.5,201,50.4,201,50.3z"/>
			</g>
			<g>
				<path class="st145" d="M197.4,53.9c0-0.1,0-0.2,0.1-0.3c0.2-0.2,0.4-0.2,0.6,0l15.6,15.6c0.2,0.2,0.2,0.4,0,0.6
					c-0.2,0.2-0.4,0.2-0.6,0l-15.6-15.6C197.5,54.1,197.4,54,197.4,53.9z"/>
			</g>
			<g>
				<path class="st145" d="M193.9,57.4c0-0.1,0-0.2,0.1-0.3c0.2-0.2,0.4-0.2,0.6,0l15.6,15.6c0.2,0.2,0.2,0.4,0,0.6
					c-0.2,0.2-0.4,0.2-0.6,0L194,57.7C193.9,57.6,193.9,57.5,193.9,57.4z"/>
			</g>
			<g>
				<path class="st145" d="M190.2,60.8c0-0.1,0-0.2,0.1-0.3c0.2-0.2,0.4-0.2,0.6,0l15.9,15.9c0.2,0.2,0.2,0.4,0,0.6
					c-0.2,0.2-0.4,0.2-0.6,0l-15.9-15.9C190.2,61,190.2,60.9,190.2,60.8z"/>
			</g>
			<g>
				<path class="st145" d="M186.7,64.3c0-0.1,0-0.2,0.1-0.3c0.2-0.2,0.4-0.2,0.6,0l15.9,15.9c0.2,0.2,0.2,0.4,0,0.6
					c-0.2,0.2-0.4,0.2-0.6,0l-15.9-15.9C186.7,64.5,186.7,64.4,186.7,64.3z"/>
			</g>
			<g>
				<path class="st145" d="M183.1,67.9c0-0.1,0-0.2,0.1-0.3c0.2-0.2,0.4-0.2,0.6,0l15.9,15.9c0.2,0.2,0.2,0.4,0,0.6
					c-0.2,0.2-0.4,0.2-0.6,0l-15.9-15.9C183.2,68.1,183.1,68,183.1,67.9z"/>
			</g>
			<g>
				<path class="st145" d="M179.6,71.4c0-0.1,0-0.2,0.1-0.3c0.2-0.2,0.4-0.2,0.6,0L196.2,87c0.2,0.2,0.2,0.4,0,0.6
					c-0.2,0.2-0.4,0.2-0.6,0l-15.9-15.9C179.6,71.6,179.6,71.5,179.6,71.4z"/>
			</g>
			<g>
				<path class="st145" d="M176,74.9c0-0.1,0-0.2,0.1-0.3c0.2-0.2,0.4-0.2,0.6,0l15.9,15.9c0.2,0.2,0.2,0.4,0,0.6
					c-0.2,0.2-0.4,0.2-0.6,0l-15.9-15.9C176.1,75.1,176,75,176,74.9z"/>
			</g>
			<g>
				<path class="st145" d="M172.4,78.3c0-0.1,0-0.2,0.1-0.3c0.2-0.2,0.4-0.2,0.6,0l16.2,16.2c0.2,0.2,0.2,0.4,0,0.6
					c-0.2,0.2-0.4,0.2-0.6,0l-16.2-16.2C172.4,78.5,172.4,78.4,172.4,78.3z"/>
			</g>
			<g>
				<path class="st145" d="M168.8,81.9c0-0.1,0-0.2,0.1-0.3c0.2-0.2,0.4-0.2,0.6,0l16.2,16.2c0.2,0.2,0.2,0.4,0,0.6
					c-0.2,0.2-0.4,0.2-0.6,0l-16.2-16.2C168.9,82.1,168.8,82,168.8,81.9z"/>
			</g>
			<g>
				<path class="st145" d="M165.3,85.4c0-0.1,0-0.2,0.1-0.3c0.2-0.2,0.4-0.2,0.6,0l16.2,16.2c0.2,0.2,0.2,0.4,0,0.6
					c-0.2,0.2-0.4,0.2-0.6,0l-16.2-16.2C165.3,85.6,165.3,85.5,165.3,85.4z"/>
			</g>
			<g>
				<path class="st145" d="M161.7,88.9c0-0.1,0-0.2,0.1-0.3c0.2-0.2,0.4-0.2,0.6,0l16.2,16.2c0.2,0.2,0.2,0.4,0,0.6
					c-0.2,0.2-0.4,0.2-0.6,0l-16.2-16.2C161.8,89.1,161.7,89,161.7,88.9z"/>
			</g>
			<g>
				<path class="st145" d="M158.2,92.5c0-0.1,0-0.2,0.1-0.3c0.2-0.2,0.4-0.2,0.6,0l16.2,16.2c0.2,0.2,0.2,0.4,0,0.6
					c-0.2,0.2-0.4,0.2-0.6,0l-16.2-16.2C158.3,92.7,158.2,92.6,158.2,92.5z"/>
			</g>
			<g>
				<path class="st145" d="M154.7,96c0-0.1,0-0.2,0.1-0.3c0.2-0.2,0.4-0.2,0.6,0l16.2,16.2c0.2,0.2,0.2,0.4,0,0.6
					c-0.2,0.2-0.4,0.2-0.6,0l-16.2-16.2C154.7,96.2,154.7,96.1,154.7,96z"/>
			</g>
			<g>
				<path class="st145" d="M147,95.6c0-0.2,0.1-0.3,0.2-0.4c0.2-0.2,0.6-0.2,0.9,0l24,24c0.2,0.2,0.2,0.6,0,0.9
					c-0.2,0.2-0.6,0.2-0.9,0l-24-24C147.1,96,147,95.8,147,95.6z"/>
			</g>
			<g>
				<path class="st145" d="M143.5,99.2c0-0.2,0.1-0.3,0.2-0.4c0.2-0.2,0.6-0.2,0.9,0l24,24c0.2,0.2,0.2,0.6,0,0.9
					c-0.2,0.2-0.6,0.2-0.9,0l-24-24C143.6,99.5,143.5,99.3,143.5,99.2z"/>
			</g>
			<g>
				<path class="st145" d="M193.3,42.7c0-0.1,0-0.2,0.1-0.3c0.2-0.2,0.4-0.2,0.6,0L209.6,58c0.2,0.2,0.2,0.4,0,0.6
					c-0.2,0.2-0.4,0.2-0.6,0L193.4,43C193.4,42.9,193.3,42.8,193.3,42.7z"/>
			</g>
			<g>
				<path class="st145" d="M189.6,46.1c0-0.1,0-0.2,0.1-0.3c0.2-0.2,0.4-0.2,0.6,0l15.9,15.9c0.2,0.2,0.2,0.4,0,0.6
					c-0.2,0.2-0.4,0.2-0.6,0l-15.9-15.9C189.7,46.3,189.6,46.2,189.6,46.1z"/>
			</g>
			<g>
				<path class="st145" d="M186.1,49.6c0-0.1,0-0.2,0.1-0.3c0.2-0.2,0.4-0.2,0.6,0l15.9,15.9c0.2,0.2,0.2,0.4,0,0.6
					c-0.2,0.2-0.4,0.2-0.6,0l-15.9-15.9C186.1,49.8,186.1,49.7,186.1,49.6z"/>
			</g>
			<g>
				<path class="st145" d="M182.6,53.2c0-0.1,0-0.2,0.1-0.3c0.2-0.2,0.4-0.2,0.6,0l15.9,15.9c0.2,0.2,0.2,0.4,0,0.6
					c-0.2,0.2-0.4,0.2-0.6,0l-15.9-15.9C182.6,53.4,182.6,53.3,182.6,53.2z"/>
			</g>
			<g>
				<path class="st145" d="M179,56.7c0-0.1,0-0.2,0.1-0.3c0.2-0.2,0.4-0.2,0.6,0l15.9,15.9c0.2,0.2,0.2,0.4,0,0.6
					c-0.2,0.2-0.4,0.2-0.6,0L179.1,57C179.1,56.9,179,56.8,179,56.7z"/>
			</g>
			<g>
				<path class="st145" d="M175.5,60.2c0-0.1,0-0.2,0.1-0.3c0.2-0.2,0.4-0.2,0.6,0l15.9,15.9c0.2,0.2,0.2,0.4,0,0.6
					c-0.2,0.2-0.4,0.2-0.6,0l-15.9-15.9C175.5,60.4,175.5,60.3,175.5,60.2z"/>
			</g>
			<g>
				<path class="st145" d="M171.9,63.8c0-0.1,0-0.2,0.1-0.3c0.2-0.2,0.4-0.2,0.6,0l15.9,15.9c0.2,0.2,0.2,0.4,0,0.6
					c-0.2,0.2-0.4,0.2-0.6,0l-15.9-15.9C172,64,171.9,63.9,171.9,63.8z"/>
			</g>
			<g>
				<path class="st145" d="M168.2,67.1c0-0.1,0-0.2,0.1-0.3c0.2-0.2,0.4-0.2,0.6,0L185.2,83c0.2,0.2,0.2,0.4,0,0.6
					c-0.2,0.2-0.4,0.2-0.6,0l-16.2-16.2C168.3,67.4,168.2,67.3,168.2,67.1z"/>
			</g>
			<g>
				<path class="st145" d="M164.7,70.7c0-0.1,0-0.2,0.1-0.3c0.2-0.2,0.4-0.2,0.6,0l16.2,16.2c0.2,0.2,0.2,0.4,0,0.6
					c-0.2,0.2-0.4,0.2-0.6,0L164.8,71C164.8,70.9,164.7,70.8,164.7,70.7z"/>
			</g>
			<g>
				<path class="st145" d="M161.2,74.2c0-0.1,0-0.2,0.1-0.3c0.2-0.2,0.4-0.2,0.6,0l16.2,16.2c0.2,0.2,0.2,0.4,0,0.6
					c-0.2,0.2-0.4,0.2-0.6,0l-16.2-16.2C161.2,74.4,161.2,74.3,161.2,74.2z"/>
			</g>
			<g>
				<path class="st145" d="M157.6,77.8c0-0.1,0-0.2,0.1-0.3c0.2-0.2,0.4-0.2,0.6,0l16.2,16.2c0.2,0.2,0.2,0.4,0,0.6
					c-0.2,0.2-0.4,0.2-0.6,0l-16.2-16.2C157.7,78,157.6,77.9,157.6,77.8z"/>
			</g>
			<g>
				<path class="st145" d="M154.1,81.3c0-0.1,0-0.2,0.1-0.3c0.2-0.2,0.4-0.2,0.6,0L171,97.2c0.2,0.2,0.2,0.4,0,0.6
					c-0.2,0.2-0.4,0.2-0.6,0l-16.2-16.2C154.1,81.5,154.1,81.4,154.1,81.3z"/>
			</g>
			<g>
				<path class="st145" d="M150.4,84.7c0-0.1,0-0.2,0.1-0.3c0.2-0.2,0.4-0.2,0.6,0l16.5,16.5c0.2,0.2,0.2,0.4,0,0.6
					c-0.2,0.2-0.4,0.2-0.6,0L150.5,85C150.5,84.9,150.4,84.8,150.4,84.7z"/>
			</g>
			<g>
				<path class="st145" d="M146.9,88.2c0-0.1,0-0.2,0.1-0.3c0.2-0.2,0.4-0.2,0.6,0l16.5,16.5c0.2,0.2,0.2,0.4,0,0.6
					c-0.2,0.2-0.4,0.2-0.6,0L147,88.5C146.9,88.4,146.9,88.3,146.9,88.2z"/>
			</g>
			<g>
				<path class="st145" d="M143.3,91.7c0-0.1,0-0.2,0.1-0.3c0.2-0.2,0.4-0.2,0.6,0l16.5,16.5c0.2,0.2,0.2,0.4,0,0.6s-0.4,0.2-0.6,0
					L143.5,92C143.4,92,143.3,91.9,143.3,91.7z"/>
			</g>
			<g>
				<path class="st145" d="M135.9,91.5c0-0.2,0.1-0.3,0.2-0.4c0.2-0.2,0.6-0.2,0.9,0l24,24c0.2,0.2,0.2,0.6,0,0.9
					c-0.2,0.2-0.6,0.2-0.9,0l-24-24C135.9,91.9,135.9,91.7,135.9,91.5z"/>
			</g>
			<g>
				<path class="st145" d="M132.2,94.9c0-0.2,0.1-0.3,0.2-0.4c0.2-0.2,0.7-0.2,0.9,0l24.3,24.3c0.2,0.2,0.2,0.6,0,0.9
					c-0.2,0.2-0.7,0.2-0.9,0l-24.3-24.3C132.2,95.2,132.2,95.1,132.2,94.9z"/>
			</g>
			<g>
				<path class="st145" d="M128.6,98.5c0-0.2,0.1-0.3,0.2-0.4c0.2-0.2,0.7-0.2,0.9,0l24.3,24.3c0.2,0.2,0.2,0.6,0,0.9
					c-0.2,0.2-0.7,0.2-0.9,0l-24.3-24.3C128.7,98.8,128.6,98.6,128.6,98.5z"/>
			</g>
			<g>
				<path class="st145" d="M189.3,38.5c0-0.1,0-0.1,0.1-0.2c0.1-0.1,0.2-0.1,0.3,0l8.7,8.7c0.1,0.1,0.1,0.2,0,0.3
					c-0.1,0.1-0.2,0.1-0.3,0l-8.7-8.7C189.3,38.6,189.3,38.6,189.3,38.5z"/>
			</g>
			<g>
				<path class="st145" d="M185.8,42c0-0.1,0-0.1,0.1-0.2c0.1-0.1,0.2-0.1,0.3,0l8.7,8.7c0.1,0.1,0.1,0.2,0,0.3
					c-0.1,0.1-0.2,0.1-0.3,0l-8.7-8.7C185.8,42.2,185.8,42.1,185.8,42z"/>
			</g>
			<g>
				<path class="st145" d="M182.2,45.6c0-0.1,0-0.1,0.1-0.2c0.1-0.1,0.2-0.1,0.3,0l8.7,8.7c0.1,0.1,0.1,0.2,0,0.3
					c-0.1,0.1-0.2,0.1-0.3,0l-8.7-8.7C182.3,45.7,182.2,45.6,182.2,45.6z"/>
			</g>
			<g>
				<path class="st145" d="M178.7,49.1c0-0.1,0-0.1,0.1-0.2c0.1-0.1,0.2-0.1,0.3,0l8.7,8.7c0.1,0.1,0.1,0.2,0,0.3
					c-0.1,0.1-0.2,0.1-0.3,0l-8.7-8.7C178.7,49.2,178.7,49.2,178.7,49.1z"/>
			</g>
			<g>
				<path class="st145" d="M175.2,52.6c0-0.1,0-0.1,0.1-0.2c0.1-0.1,0.2-0.1,0.3,0l8.7,8.7c0.1,0.1,0.1,0.2,0,0.3
					c-0.1,0.1-0.2,0.1-0.3,0l-8.7-8.7C175.2,52.8,175.2,52.7,175.2,52.6z"/>
			</g>
			<g>
				<path class="st145" d="M171.6,56.2c0-0.1,0-0.1,0.1-0.2c0.1-0.1,0.2-0.1,0.3,0l8.7,8.7c0.1,0.1,0.1,0.2,0,0.3
					c-0.1,0.1-0.2,0.1-0.3,0l-8.7-8.7C171.6,56.3,171.6,56.2,171.6,56.2z"/>
			</g>
			<g>
				<path class="st145" d="M164.1,56c0-0.1,0-0.2,0.1-0.3c0.2-0.2,0.4-0.2,0.6,0L181,71.8c0.2,0.2,0.2,0.4,0,0.6
					c-0.2,0.2-0.4,0.2-0.6,0l-16.2-16.2C164.2,56.2,164.1,56.1,164.1,56z"/>
			</g>
			<g>
				<path class="st145" d="M160.6,59.5c0-0.1,0-0.2,0.1-0.3c0.2-0.2,0.4-0.2,0.6,0l16.2,16.2c0.2,0.2,0.2,0.4,0,0.6
					c-0.2,0.2-0.4,0.2-0.6,0l-16.2-16.2C160.7,59.7,160.6,59.6,160.6,59.5z"/>
			</g>
			<g>
				<path class="st145" d="M157.1,63c0-0.1,0-0.2,0.1-0.3c0.2-0.2,0.4-0.2,0.6,0L174,78.9c0.2,0.2,0.2,0.4,0,0.6
					c-0.2,0.2-0.4,0.2-0.6,0l-16.2-16.2C157.1,63.3,157.1,63.1,157.1,63z"/>
			</g>
			<g>
				<path class="st145" d="M153.5,66.6c0-0.1,0-0.2,0.1-0.3c0.2-0.2,0.4-0.2,0.6,0l16.2,16.2c0.2,0.2,0.2,0.4,0,0.6
					c-0.2,0.2-0.4,0.2-0.6,0l-16.2-16.2C153.6,66.8,153.5,66.7,153.5,66.6z"/>
			</g>
			<g>
				<path class="st145" d="M149.8,70c0-0.1,0-0.2,0.1-0.3c0.2-0.2,0.4-0.2,0.6,0l16.5,16.5c0.2,0.2,0.2,0.4,0,0.6
					c-0.2,0.2-0.4,0.2-0.6,0L150,70.3C149.9,70.2,149.8,70.1,149.8,70z"/>
			</g>
			<g>
				<path class="st145" d="M146.3,73.5c0-0.1,0-0.2,0.1-0.3c0.2-0.2,0.4-0.2,0.6,0l16.5,16.5c0.2,0.2,0.2,0.4,0,0.6
					c-0.2,0.2-0.4,0.2-0.6,0l-16.5-16.5C146.4,73.7,146.3,73.6,146.3,73.5z"/>
			</g>
			<g>
				<path class="st145" d="M142.8,77c0-0.1,0-0.2,0.1-0.3c0.2-0.2,0.4-0.2,0.6,0L160,93.2c0.2,0.2,0.2,0.4,0,0.6
					c-0.2,0.2-0.4,0.2-0.6,0l-16.5-16.5C142.8,77.3,142.8,77.1,142.8,77z"/>
			</g>
			<g>
				<path class="st145" d="M139.2,80.6c0-0.1,0-0.2,0.1-0.3c0.2-0.2,0.4-0.2,0.6,0l16.5,16.5c0.2,0.2,0.2,0.4,0,0.6s-0.4,0.2-0.6,0
					l-16.5-16.5C139.3,80.8,139.2,80.7,139.2,80.6z"/>
			</g>
			<g>
				<path class="st145" d="M135.7,84.1c0-0.1,0-0.2,0.1-0.3c0.2-0.2,0.4-0.2,0.6,0l16.5,16.5c0.2,0.2,0.2,0.4,0,0.6
					c-0.2,0.2-0.4,0.2-0.6,0l-16.5-16.5C135.7,84.3,135.7,84.2,135.7,84.1z"/>
			</g>
			<g>
				<path class="st145" d="M128.1,83.7c0-0.2,0.1-0.3,0.2-0.4c0.2-0.2,0.7-0.2,0.9,0l24.3,24.3c0.2,0.2,0.2,0.6,0,0.9
					c-0.2,0.2-0.7,0.2-0.9,0l-24.3-24.3C128.1,84.1,128.1,83.9,128.1,83.7z"/>
			</g>
			<g>
				<path class="st145" d="M124.5,87.3c0-0.2,0.1-0.3,0.2-0.4c0.2-0.2,0.7-0.2,0.9,0l24.3,24.3c0.2,0.2,0.2,0.6,0,0.9
					c-0.2,0.2-0.7,0.2-0.9,0l-24.3-24.3C124.6,87.6,124.5,87.4,124.5,87.3z"/>
			</g>
			<g>
				<path class="st145" d="M121,90.8c0-0.2,0.1-0.3,0.2-0.4c0.2-0.2,0.7-0.2,0.9,0l24.3,24.3c0.2,0.2,0.2,0.6,0,0.9
					c-0.2,0.2-0.7,0.2-0.9,0l-24.3-24.3C121.1,91.1,121,91,121,90.8z"/>
			</g>
			<g>
				<path class="st145" d="M117.3,94.2c0-0.2,0.1-0.3,0.2-0.5c0.3-0.3,0.7-0.3,0.9,0l24.6,24.6c0.2,0.3,0.2,0.7,0,0.9
					c-0.3,0.3-0.7,0.3-0.9,0l-24.6-24.6C117.4,94.5,117.3,94.4,117.3,94.2z"/>
			</g>
			<g>
				<path class="st145" d="M113.6,97.6c0-0.2,0.1-0.3,0.2-0.5c0.3-0.3,0.7-0.3,0.9,0l24.9,24.9c0.3,0.3,0.3,0.7,0,0.9
					c-0.3,0.3-0.7,0.3-0.9,0L113.8,98C113.7,97.9,113.6,97.8,113.6,97.6z"/>
			</g>
			<g>
				<path class="st145" d="M181.7,30.9c0-0.1,0-0.1,0.1-0.2c0.1-0.1,0.2-0.1,0.3,0l8.7,8.7c0.1,0.1,0.1,0.2,0,0.3
					c-0.1,0.1-0.2,0.1-0.3,0l-8.7-8.7C181.7,31,181.7,30.9,181.7,30.9z"/>
			</g>
			<g>
				<path class="st145" d="M178.1,34.4c0-0.1,0-0.1,0.1-0.2c0.1-0.1,0.2-0.1,0.3,0l8.7,8.7c0.1,0.1,0.1,0.2,0,0.3
					c-0.1,0.1-0.2,0.1-0.3,0l-8.7-8.7C178.1,34.5,178.1,34.5,178.1,34.4z"/>
			</g>
			<g>
				<path class="st145" d="M174.6,37.9c0-0.1,0-0.1,0.1-0.2c0.1-0.1,0.2-0.1,0.3,0l8.7,8.7c0.1,0.1,0.1,0.2,0,0.3
					c-0.1,0.1-0.2,0.1-0.3,0l-8.7-8.7C174.6,38,174.6,38,174.6,37.9z"/>
			</g>
			<g>
				<path class="st145" d="M171.1,41.5c0-0.1,0-0.1,0.1-0.2c0.1-0.1,0.2-0.1,0.3,0l8.7,8.7c0.1,0.1,0.1,0.2,0,0.3
					c-0.1,0.1-0.2,0.1-0.3,0l-8.7-8.7C171.1,41.6,171.1,41.5,171.1,41.5z"/>
			</g>
			<g>
				<path class="st145" d="M167.4,44.9c0-0.1,0-0.1,0.1-0.2c0.1-0.1,0.2-0.1,0.3,0l9,9c0.1,0.1,0.1,0.2,0,0.3
					c-0.1,0.1-0.2,0.1-0.3,0l-9-9C167.4,45,167.4,44.9,167.4,44.9z"/>
			</g>
			<g>
				<path class="st145" d="M163.8,48.4c0-0.1,0-0.1,0.1-0.2c0.1-0.1,0.2-0.1,0.3,0l9,9c0.1,0.1,0.1,0.2,0,0.3
					c-0.1,0.1-0.2,0.1-0.3,0l-9-9C163.8,48.5,163.8,48.4,163.8,48.4z"/>
			</g>
			<g>
				<path class="st145" d="M160.3,51.9c0-0.1,0-0.1,0.1-0.2c0.1-0.1,0.2-0.1,0.3,0l9,9c0.1,0.1,0.1,0.2,0,0.3
					c-0.1,0.1-0.2,0.1-0.3,0l-9-9C160.3,52,160.3,52,160.3,51.9z"/>
			</g>
			<g>
				<path class="st145" d="M156.8,55.5c0-0.1,0-0.1,0.1-0.2c0.1-0.1,0.2-0.1,0.3,0l9,9c0.1,0.1,0.1,0.2,0,0.3
					c-0.1,0.1-0.2,0.1-0.3,0l-9-9C156.8,55.6,156.8,55.5,156.8,55.5z"/>
			</g>
			<g>
				<path class="st145" d="M153.2,59c0-0.1,0-0.1,0.1-0.2c0.1-0.1,0.2-0.1,0.3,0l9,9c0.1,0.1,0.1,0.2,0,0.3c-0.1,0.1-0.2,0.1-0.3,0
					l-9-9C153.2,59.1,153.2,59.1,153.2,59z"/>
			</g>
			<g>
				<path class="st145" d="M149.7,62.5c0-0.1,0-0.1,0.1-0.2c0.1-0.1,0.2-0.1,0.3,0l9,9c0.1,0.1,0.1,0.2,0,0.3
					c-0.1,0.1-0.2,0.1-0.3,0l-9-9C149.7,62.7,149.7,62.6,149.7,62.5z"/>
			</g>
			<g>
				<path class="st145" d="M146.1,66.1c0-0.1,0-0.1,0.1-0.2c0.1-0.1,0.2-0.1,0.3,0l9,9c0.1,0.1,0.1,0.2,0,0.3
					c-0.1,0.1-0.2,0.1-0.3,0l-9-9C146.2,66.2,146.1,66.1,146.1,66.1z"/>
			</g>
			<g>
				<path class="st145" d="M142.6,69.6c0-0.1,0-0.1,0.1-0.2c0.1-0.1,0.2-0.1,0.3,0l9,9c0.1,0.1,0.1,0.2,0,0.3
					c-0.1,0.1-0.2,0.1-0.3,0l-9-9C142.6,69.7,142.6,69.7,142.6,69.6z"/>
			</g>
			<g>
				<path class="st145" d="M139.1,73.1c0-0.1,0-0.1,0.1-0.2c0.1-0.1,0.2-0.1,0.3,0l9,9c0.1,0.1,0.1,0.2,0,0.3
					c-0.1,0.1-0.2,0.1-0.3,0l-9-9C139.1,73.3,139.1,73.2,139.1,73.1z"/>
			</g>
			<g>
				<path class="st145" d="M135.4,76.5c0-0.1,0-0.1,0.1-0.2c0.1-0.1,0.2-0.1,0.3,0l9.3,9.3c0.1,0.1,0.1,0.2,0,0.3
					c-0.1,0.1-0.2,0.1-0.3,0l-9.3-9.3C135.4,76.6,135.4,76.6,135.4,76.5z"/>
			</g>
			<g>
				<path class="st145" d="M127.9,76.3c0-0.1,0-0.2,0.1-0.3c0.2-0.2,0.4-0.2,0.6,0l16.8,16.8c0.2,0.2,0.2,0.4,0,0.6
					c-0.2,0.2-0.4,0.2-0.6,0L128,76.6C127.9,76.5,127.9,76.4,127.9,76.3z"/>
			</g>
			<g>
				<path class="st145" d="M124.4,79.8c0-0.1,0-0.2,0.1-0.3c0.2-0.2,0.4-0.2,0.6,0l16.8,16.8c0.2,0.2,0.2,0.4,0,0.6
					c-0.2,0.2-0.4,0.2-0.6,0l-16.8-16.8C124.4,80.1,124.4,80,124.4,79.8z"/>
			</g>
			<g>
				<path class="st145" d="M116.9,79.6c0-0.2,0.1-0.3,0.2-0.4c0.2-0.2,0.7-0.2,0.9,0l24.3,24.3c0.2,0.2,0.2,0.6,0,0.9
					c-0.2,0.2-0.7,0.2-0.9,0l-24.3-24.3C117,80,116.9,79.8,116.9,79.6z"/>
			</g>
			<g>
				<path class="st145" d="M113,82.9c0-0.2,0.1-0.3,0.2-0.5c0.3-0.3,0.7-0.3,0.9,0l24.9,24.9c0.3,0.3,0.3,0.7,0,0.9
					c-0.3,0.3-0.7,0.3-0.9,0l-24.9-24.9C113.1,83.2,113,83,113,82.9z"/>
			</g>
			<g>
				<path class="st145" d="M109.5,86.4c0-0.2,0.1-0.3,0.2-0.5c0.3-0.3,0.7-0.3,0.9,0l24.9,24.9c0.3,0.3,0.3,0.7,0,0.9
					c-0.3,0.3-0.7,0.3-0.9,0l-24.9-24.9C109.6,86.7,109.5,86.6,109.5,86.4z"/>
			</g>
			<g>
				<path class="st145" d="M106,89.9c0-0.2,0.1-0.3,0.2-0.5c0.3-0.3,0.7-0.3,0.9,0l24.9,24.9c0.3,0.3,0.3,0.7,0,0.9
					c-0.3,0.3-0.7,0.3-0.9,0l-24.9-24.9C106,90.3,106,90.1,106,89.9z"/>
			</g>
			<g>
				<path class="st145" d="M102.1,93.2c0-0.2,0.1-0.3,0.2-0.5c0.3-0.3,0.7-0.3,0.9,0l25.5,25.5c0.3,0.3,0.3,0.7,0,0.9
					c-0.3,0.3-0.7,0.3-0.9,0l-25.5-25.5C102.2,93.5,102.1,93.4,102.1,93.2z"/>
			</g>
			<g>
				<path class="st145" d="M98.7,96.9c0-0.2,0.1-0.3,0.2-0.5c0.3-0.3,0.7-0.3,0.9,0l25.2,25.2c0.3,0.3,0.3,0.7,0,0.9
					c-0.3,0.3-0.7,0.3-0.9,0L98.9,97.3C98.8,97.2,98.7,97,98.7,96.9z"/>
			</g>
			<g>
				<path class="st145" d="M95.2,100.4c0-0.2,0.1-0.3,0.2-0.5c0.3-0.3,0.7-0.3,0.9,0l25.2,25.2c0.3,0.3,0.3,0.7,0,0.9
					c-0.3,0.3-0.7,0.3-0.9,0l-25.2-25.2C95.3,100.7,95.2,100.6,95.2,100.4z"/>
			</g>
			<g>
				<path class="st145" d="M170.5,26.8c0-0.1,0-0.1,0.1-0.2c0.1-0.1,0.2-0.1,0.3,0l8.7,8.7c0.1,0.1,0.1,0.2,0,0.3
					c-0.1,0.1-0.2,0.1-0.3,0l-8.7-8.7C170.5,26.9,170.5,26.8,170.5,26.8z"/>
			</g>
			<g>
				<path class="st145" d="M166.8,30.1c0-0.1,0-0.1,0.1-0.2c0.1-0.1,0.2-0.1,0.3,0l9,9c0.1,0.1,0.1,0.2,0,0.3
					c-0.1,0.1-0.2,0.1-0.3,0l-9-9C166.8,30.3,166.8,30.2,166.8,30.1z"/>
			</g>
			<g>
				<path class="st145" d="M163.3,33.7c0-0.1,0-0.1,0.1-0.2c0.1-0.1,0.2-0.1,0.3,0l9,9c0.1,0.1,0.1,0.2,0,0.3
					c-0.1,0.1-0.2,0.1-0.3,0l-9-9C163.3,33.8,163.3,33.7,163.3,33.7z"/>
			</g>
			<g>
				<path class="st145" d="M159.7,37.2c0-0.1,0-0.1,0.1-0.2c0.1-0.1,0.2-0.1,0.3,0l9,9c0.1,0.1,0.1,0.2,0,0.3
					c-0.1,0.1-0.2,0.1-0.3,0l-9-9C159.7,37.3,159.7,37.3,159.7,37.2z"/>
			</g>
			<g>
				<path class="st145" d="M156.2,40.7c0-0.1,0-0.1,0.1-0.2c0.1-0.1,0.2-0.1,0.3,0l9,9c0.1,0.1,0.1,0.2,0,0.3
					c-0.1,0.1-0.2,0.1-0.3,0l-9-9C156.2,40.9,156.2,40.8,156.2,40.7z"/>
			</g>
			<g>
				<path class="st145" d="M152.6,44.3c0-0.1,0-0.1,0.1-0.2c0.1-0.1,0.2-0.1,0.3,0l9,9c0.1,0.1,0.1,0.2,0,0.3
					c-0.1,0.1-0.2,0.1-0.3,0l-9-9C152.7,44.4,152.6,44.3,152.6,44.3z"/>
			</g>
			<g>
				<path class="st145" d="M149.1,47.8c0-0.1,0-0.1,0.1-0.2c0.1-0.1,0.2-0.1,0.3,0l9,9c0.1,0.1,0.1,0.2,0,0.3
					c-0.1,0.1-0.2,0.1-0.3,0l-9-9C149.1,47.9,149.1,47.9,149.1,47.8z"/>
			</g>
			<g>
				<path class="st145" d="M145.6,51.4c0-0.1,0-0.1,0.1-0.2c0.1-0.1,0.2-0.1,0.3,0l9,9c0.1,0.1,0.1,0.2,0,0.3
					c-0.1,0.1-0.2,0.1-0.3,0l-9-9C145.6,51.5,145.6,51.4,145.6,51.4z"/>
			</g>
			<g>
				<path class="st145" d="M142,54.9c0-0.1,0-0.1,0.1-0.2c0.1-0.1,0.2-0.1,0.3,0l9,9c0.1,0.1,0.1,0.2,0,0.3c-0.1,0.1-0.2,0.1-0.3,0
					l-9-9C142.1,55,142,54.9,142,54.9z"/>
			</g>
			<g>
				<path class="st145" d="M138.5,58.4c0-0.1,0-0.1,0.1-0.2c0.1-0.1,0.2-0.1,0.3,0l9,9c0.1,0.1,0.1,0.2,0,0.3
					c-0.1,0.1-0.2,0.1-0.3,0l-9-9C138.5,58.5,138.5,58.5,138.5,58.4z"/>
			</g>
			<g>
				<path class="st145" d="M134.8,61.8c0-0.1,0-0.1,0.1-0.2c0.1-0.1,0.2-0.1,0.3,0l9.3,9.3c0.1,0.1,0.1,0.2,0,0.3
					c-0.1,0.1-0.2,0.1-0.3,0l-9.3-9.3C134.8,61.9,134.8,61.9,134.8,61.8z"/>
			</g>
			<g>
				<path class="st145" d="M131.3,65.3c0-0.1,0-0.1,0.1-0.2c0.1-0.1,0.2-0.1,0.3,0l9.3,9.3c0.1,0.1,0.1,0.2,0,0.3
					c-0.1,0.1-0.2,0.1-0.3,0l-9.3-9.3C131.3,65.5,131.3,65.4,131.3,65.3z"/>
			</g>
			<g>
				<path class="st145" d="M127.7,68.9c0-0.1,0-0.1,0.1-0.2c0.1-0.1,0.2-0.1,0.3,0l9.3,9.3c0.1,0.1,0.1,0.2,0,0.3
					c-0.1,0.1-0.2,0.1-0.3,0l-9.3-9.3C127.8,69,127.7,68.9,127.7,68.9z"/>
			</g>
			<g>
				<path class="st145" d="M124.2,72.4c0-0.1,0-0.1,0.1-0.2c0.1-0.1,0.2-0.1,0.3,0l9.3,9.3c0.1,0.1,0.1,0.2,0,0.3
					c-0.1,0.1-0.2,0.1-0.3,0l-9.3-9.3C124.2,72.5,124.2,72.5,124.2,72.4z"/>
			</g>
			<g>
				<path class="st145" d="M120.5,75.8c0-0.1,0-0.1,0.1-0.2c0.1-0.1,0.3-0.1,0.4,0l9.6,9.6c0.1,0.1,0.1,0.3,0,0.4
					c-0.1,0.1-0.3,0.1-0.4,0l-9.6-9.6C120.5,75.9,120.5,75.9,120.5,75.8z"/>
			</g>
			<g>
				<path class="st145" d="M112.2,74.8c0-0.1,0-0.2,0.1-0.3c0.2-0.2,0.5-0.2,0.7,0l18.6,18.6c0.2,0.2,0.2,0.5,0,0.7
					c-0.2,0.2-0.5,0.2-0.7,0l-18.6-18.6C112.3,75.1,112.2,75,112.2,74.8z"/>
			</g>
			<g>
				<path class="st145" d="M108.7,78.4c0-0.1,0-0.2,0.1-0.3c0.2-0.2,0.5-0.2,0.7,0l18.6,18.6c0.2,0.2,0.2,0.5,0,0.7
					c-0.2,0.2-0.5,0.2-0.7,0l-18.6-18.6C108.8,78.6,108.7,78.5,108.7,78.4z"/>
			</g>
			<g>
				<path class="st145" d="M105,81.8c0-0.1,0-0.3,0.1-0.3c0.2-0.2,0.5-0.2,0.7,0l18.9,18.9c0.2,0.2,0.2,0.5,0,0.7
					c-0.2,0.2-0.5,0.2-0.7,0l-18.9-18.9C105.1,82,105,81.9,105,81.8z"/>
			</g>
			<g>
				<path class="st145" d="M101.5,85.3c0-0.1,0-0.3,0.1-0.3c0.2-0.2,0.5-0.2,0.7,0l18.9,18.9c0.2,0.2,0.2,0.5,0,0.7
					c-0.2,0.2-0.5,0.2-0.7,0l-18.9-18.9C101.5,85.6,101.5,85.4,101.5,85.3z"/>
			</g>
			<g>
				<path class="st145" d="M97.9,88.8c0-0.1,0-0.3,0.1-0.3c0.2-0.2,0.5-0.2,0.7,0l18.9,18.9c0.2,0.2,0.2,0.5,0,0.7
					c-0.2,0.2-0.5,0.2-0.7,0L98.1,89.2C98,89.1,97.9,89,97.9,88.8z"/>
			</g>
			<g>
				<path class="st145" d="M90.9,89.1c0-0.2,0.1-0.3,0.2-0.5c0.3-0.3,0.7-0.3,0.9,0l25.5,25.5c0.3,0.3,0.3,0.7,0,0.9
					c-0.3,0.3-0.7,0.3-0.9,0L91.1,89.5C91,89.4,90.9,89.2,90.9,89.1z"/>
			</g>
			<g>
				<path class="st145" d="M87.2,92.5c0-0.2,0.1-0.3,0.2-0.5c0.3-0.3,0.7-0.3,1,0l25.8,25.8c0.3,0.3,0.3,0.7,0,1
					c-0.3,0.3-0.7,0.3-1,0L87.4,92.9C87.3,92.8,87.2,92.6,87.2,92.5z"/>
			</g>
			<g>
				<path class="st145" d="M83.7,96c0-0.2,0.1-0.3,0.2-0.5c0.3-0.3,0.7-0.3,1,0l25.8,25.8c0.3,0.3,0.3,0.7,0,1c-0.3,0.3-0.7,0.3-1,0
					L83.9,96.5C83.8,96.3,83.7,96.2,83.7,96z"/>
			</g>
			<g>
				<path class="st145" d="M80.2,99.5c0-0.2,0.1-0.3,0.2-0.5c0.3-0.3,0.7-0.3,1,0l25.8,25.8c0.3,0.3,0.3,0.7,0,1
					c-0.3,0.3-0.7,0.3-1,0L80.4,100C80.2,99.9,80.2,99.7,80.2,99.5z"/>
			</g>
			<g>
				<path class="st145" d="M123.6,57.7c0-0.1,0-0.1,0.1-0.2c0.1-0.1,0.2-0.1,0.3,0l9.3,9.3c0.1,0.1,0.1,0.2,0,0.3
					c-0.1,0.1-0.2,0.1-0.3,0l-9.3-9.3C123.7,57.8,123.6,57.8,123.6,57.7z"/>
			</g>
			<g>
				<path class="st145" d="M119.9,61.1c0-0.1,0-0.1,0.1-0.2c0.1-0.1,0.3-0.1,0.4,0l9.6,9.6c0.1,0.1,0.1,0.3,0,0.4
					c-0.1,0.1-0.3,0.1-0.4,0l-9.6-9.6C120,61.2,119.9,61.2,119.9,61.1z"/>
			</g>
			<g>
				<path class="st145" d="M116.4,64.6c0-0.1,0-0.1,0.1-0.2c0.1-0.1,0.3-0.1,0.4,0l9.6,9.6c0.1,0.1,0.1,0.3,0,0.4
					c-0.1,0.1-0.3,0.1-0.4,0l-9.6-9.6C116.4,64.8,116.4,64.7,116.4,64.6z"/>
			</g>
			<g>
				<path class="st145" d="M112.9,68.2c0-0.1,0-0.1,0.1-0.2c0.1-0.1,0.3-0.1,0.4,0l9.6,9.6c0.1,0.1,0.1,0.3,0,0.4
					c-0.1,0.1-0.3,0.1-0.4,0l-9.6-9.6C112.9,68.3,112.9,68.2,112.9,68.2z"/>
			</g>
			<g>
				<path class="st145" d="M104.4,67.1c0-0.1,0-0.3,0.1-0.3c0.2-0.2,0.5-0.2,0.7,0l18.9,18.9c0.2,0.2,0.2,0.5,0,0.7
					c-0.2,0.2-0.5,0.2-0.7,0l-18.9-18.9C104.5,67.3,104.4,67.2,104.4,67.1z"/>
			</g>
			<g>
				<path class="st145" d="M100.9,70.6c0-0.1,0-0.3,0.1-0.3c0.2-0.2,0.5-0.2,0.7,0l18.9,18.9c0.2,0.2,0.2,0.5,0,0.7
					c-0.2,0.2-0.5,0.2-0.7,0l-18.9-18.9C101,70.8,100.9,70.7,100.9,70.6z"/>
			</g>
			<g>
				<path class="st145" d="M97.4,74.1c0-0.1,0-0.3,0.1-0.3c0.2-0.2,0.5-0.2,0.7,0l18.9,18.9c0.2,0.2,0.2,0.5,0,0.7
					c-0.2,0.2-0.5,0.2-0.7,0L97.5,74.5C97.4,74.4,97.4,74.3,97.4,74.1z"/>
			</g>
			<g>
				<path class="st145" d="M93.7,77.5c0-0.1,0-0.3,0.1-0.4c0.2-0.2,0.5-0.2,0.7,0l19.2,19.2c0.2,0.2,0.2,0.5,0,0.7
					c-0.2,0.2-0.5,0.2-0.7,0L93.8,77.9C93.7,77.8,93.7,77.6,93.7,77.5z"/>
			</g>
			<g>
				<path class="st145" d="M90,80.9c0-0.1,0-0.3,0.2-0.4c0.2-0.2,0.5-0.2,0.7,0l19.5,19.5c0.2,0.2,0.2,0.5,0,0.7
					c-0.2,0.2-0.5,0.2-0.7,0L90.1,81.3C90,81.2,90,81,90,80.9z"/>
			</g>
			<g>
				<path class="st145" d="M86.5,84.4c0-0.1,0.1-0.3,0.2-0.4c0.2-0.2,0.5-0.2,0.7,0l19.5,19.5c0.2,0.2,0.2,0.5,0,0.7
					c-0.2,0.2-0.5,0.2-0.7,0L86.6,84.8C86.5,84.7,86.5,84.6,86.5,84.4z"/>
			</g>
			<g>
				<path class="st145" d="M82.8,87.8c0-0.1,0.1-0.3,0.2-0.4c0.2-0.2,0.5-0.2,0.7,0l19.8,19.8c0.2,0.2,0.2,0.5,0,0.7
					c-0.2,0.2-0.5,0.2-0.7,0L82.9,88.2C82.8,88.1,82.8,88,82.8,87.8z"/>
			</g>
			<g>
				<path class="st145" d="M79.2,91.4c0-0.1,0.1-0.3,0.2-0.4c0.2-0.2,0.5-0.2,0.7,0l19.8,19.8c0.2,0.2,0.2,0.5,0,0.7
					c-0.2,0.2-0.5,0.2-0.7,0L79.4,91.7C79.3,91.6,79.2,91.5,79.2,91.4z"/>
			</g>
			<g>
				<path class="st145" d="M75.7,94.9c0-0.1,0.1-0.3,0.2-0.4c0.2-0.2,0.5-0.2,0.7,0l19.8,19.8c0.2,0.2,0.2,0.5,0,0.7
					c-0.2,0.2-0.5,0.2-0.7,0L75.8,95.3C75.7,95.2,75.7,95,75.7,94.9z"/>
			</g>
			<g>
				<path class="st145" d="M71.8,98.1c0-0.1,0.1-0.3,0.2-0.4c0.2-0.2,0.5-0.2,0.8,0l20.4,20.4c0.2,0.2,0.2,0.5,0,0.8
					c-0.2,0.2-0.5,0.2-0.8,0L72,98.5C71.9,98.4,71.8,98.3,71.8,98.1z"/>
			</g>
			<g>
				<path class="st145" d="M100.9,63.3c0-0.1,0-0.1,0.1-0.2c0.1-0.1,0.3-0.1,0.4,0l11.1,11.1c0.1,0.1,0.1,0.3,0,0.4
					c-0.1,0.1-0.3,0.1-0.4,0L101,63.5C100.9,63.5,100.9,63.4,100.9,63.3z"/>
			</g>
			<g>
				<path class="st145" d="M97.2,66.7c0-0.1,0-0.2,0.1-0.2c0.1-0.1,0.3-0.1,0.4,0l11.4,11.4c0.1,0.1,0.1,0.3,0,0.4
					c-0.1,0.1-0.3,0.1-0.4,0L97.3,66.9C97.2,66.8,97.2,66.8,97.2,66.7z"/>
			</g>
			<g>
				<path class="st145" d="M93.7,70.2c0-0.1,0-0.2,0.1-0.2c0.1-0.1,0.3-0.1,0.4,0l11.4,11.4c0.1,0.1,0.1,0.3,0,0.4
					c-0.1,0.1-0.3,0.1-0.4,0L93.8,70.4C93.7,70.4,93.7,70.3,93.7,70.2z"/>
			</g>
			<g>
				<path class="st145" d="M90.1,73.8c0-0.1,0-0.2,0.1-0.2c0.1-0.1,0.3-0.1,0.4,0L102,84.9c0.1,0.1,0.1,0.3,0,0.4
					c-0.1,0.1-0.3,0.1-0.4,0L90.2,74C90.2,73.9,90.1,73.8,90.1,73.8z"/>
			</g>
			<g>
				<path class="st145" d="M86.6,77.3c0-0.1,0-0.2,0.1-0.2c0.1-0.1,0.3-0.1,0.4,0l11.4,11.4c0.1,0.1,0.1,0.3,0,0.4
					c-0.1,0.1-0.3,0.1-0.4,0L86.7,77.5C86.6,77.5,86.6,77.4,86.6,77.3z"/>
			</g>
			<g>
				<path class="st145" d="M82.9,80.7c0-0.1,0-0.2,0.1-0.2c0.1-0.1,0.3-0.1,0.4,0l11.7,11.7c0.1,0.1,0.1,0.3,0,0.4
					c-0.1,0.1-0.3,0.1-0.4,0L83,80.9C82.9,80.8,82.9,80.8,82.9,80.7z"/>
			</g>
			<g>
				<path class="st145" d="M79.4,84.2c0-0.1,0-0.2,0.1-0.2c0.1-0.1,0.3-0.1,0.4,0l11.7,11.7c0.1,0.1,0.1,0.3,0,0.4
					c-0.1,0.1-0.3,0.1-0.4,0L79.5,84.4C79.4,84.4,79.4,84.3,79.4,84.2z"/>
			</g>
			<g>
				<path class="st145" d="M75.7,87.6c0-0.1,0-0.2,0.1-0.2c0.1-0.1,0.3-0.1,0.4,0l12,12c0.1,0.1,0.1,0.3,0,0.4
					c-0.1,0.1-0.3,0.1-0.4,0l-12-12C75.7,87.8,75.7,87.7,75.7,87.6z"/>
			</g>
			<g>
				<path class="st145" d="M72,91c0-0.1,0-0.2,0.1-0.2c0.1-0.1,0.3-0.1,0.5,0l12.3,12.3c0.1,0.1,0.1,0.3,0,0.5
					c-0.1,0.1-0.3,0.1-0.5,0L72.1,91.2C72,91.2,72,91.1,72,91z"/>
			</g>
			<g>
				<path class="st145" d="M64.2,90.5c0-0.1,0.1-0.3,0.2-0.4c0.2-0.2,0.5-0.2,0.8,0l20.4,20.4c0.2,0.2,0.2,0.5,0,0.8
					c-0.2,0.2-0.5,0.2-0.8,0L64.4,90.9C64.3,90.8,64.2,90.6,64.2,90.5z"/>
			</g>
			<g>
				<path class="st145" d="M60.7,94c0-0.1,0.1-0.3,0.2-0.4c0.2-0.2,0.5-0.2,0.8,0L82,114c0.2,0.2,0.2,0.5,0,0.8
					c-0.2,0.2-0.5,0.2-0.8,0L60.8,94.4C60.7,94.3,60.7,94.2,60.7,94z"/>
			</g>
			<g>
				<path class="st145" d="M57,97.4c0-0.1,0.1-0.3,0.2-0.4c0.2-0.2,0.6-0.2,0.8,0l20.7,20.7c0.2,0.2,0.2,0.6,0,0.8
					c-0.2,0.2-0.6,0.2-0.8,0L57.1,97.8C57,97.7,57,97.5,57,97.4z"/>
			</g>
			<g>
				<path class="st145" d="M93.1,55.5c0-0.1,0-0.2,0.1-0.2c0.1-0.1,0.3-0.1,0.4,0L105,66.7c0.1,0.1,0.1,0.3,0,0.4
					c-0.1,0.1-0.3,0.1-0.4,0L93.2,55.7C93.1,55.7,93.1,55.6,93.1,55.5z"/>
			</g>
			<g>
				<path class="st145" d="M89.6,59.1c0-0.1,0-0.2,0.1-0.2c0.1-0.1,0.3-0.1,0.4,0l11.4,11.4c0.1,0.1,0.1,0.3,0,0.4
					c-0.1,0.1-0.3,0.1-0.4,0L89.7,59.3C89.6,59.2,89.6,59.1,89.6,59.1z"/>
			</g>
			<g>
				<path class="st145" d="M86,62.6c0-0.1,0-0.2,0.1-0.2c0.1-0.1,0.3-0.1,0.4,0l11.4,11.4c0.1,0.1,0.1,0.3,0,0.4
					c-0.1,0.1-0.3,0.1-0.4,0L86.1,62.8C86.1,62.7,86,62.7,86,62.6z"/>
			</g>
			<g>
				<path class="st145" d="M82.3,66c0-0.1,0-0.2,0.1-0.2c0.1-0.1,0.3-0.1,0.4,0l11.7,11.7c0.1,0.1,0.1,0.3,0,0.4s-0.3,0.1-0.4,0
					L82.4,66.2C82.4,66.1,82.3,66.1,82.3,66z"/>
			</g>
			<g>
				<path class="st145" d="M78.8,69.5c0-0.1,0-0.2,0.1-0.2c0.1-0.1,0.3-0.1,0.4,0L91,81c0.1,0.1,0.1,0.3,0,0.4s-0.3,0.1-0.4,0
					L78.9,69.7C78.8,69.7,78.8,69.6,78.8,69.5z"/>
			</g>
			<g>
				<path class="st145" d="M75.1,72.9c0-0.1,0-0.2,0.1-0.2c0.1-0.1,0.3-0.1,0.4,0l12,12c0.1,0.1,0.1,0.3,0,0.4
					c-0.1,0.1-0.3,0.1-0.4,0l-12-12C75.1,73.1,75.1,73,75.1,72.9z"/>
			</g>
			<g>
				<path class="st145" d="M71.4,76.3c0-0.1,0-0.2,0.1-0.2c0.1-0.1,0.3-0.1,0.5,0l12.3,12.3c0.1,0.1,0.1,0.3,0,0.5
					c-0.1,0.1-0.3,0.1-0.5,0L71.5,76.5C71.5,76.4,71.4,76.4,71.4,76.3z"/>
			</g>
			<g>
				<path class="st145" d="M67.9,79.8c0-0.1,0-0.2,0.1-0.2c0.1-0.1,0.3-0.1,0.5,0l12.3,12.3c0.1,0.1,0.1,0.3,0,0.5
					c-0.1,0.1-0.3,0.1-0.5,0L68,80C67.9,80,67.9,79.9,67.9,79.8z"/>
			</g>
			<g>
				<path class="st145" d="M64.4,83.4c0-0.1,0-0.2,0.1-0.2c0.1-0.1,0.3-0.1,0.5,0l12.3,12.3c0.1,0.1,0.1,0.3,0,0.5
					c-0.1,0.1-0.3,0.1-0.5,0L64.4,83.6C64.4,83.5,64.4,83.4,64.4,83.4z"/>
			</g>
			<g>
				<path class="st145" d="M60.7,86.7c0-0.1,0-0.2,0.1-0.2c0.1-0.1,0.3-0.1,0.5,0l12.6,12.6c0.1,0.1,0.1,0.3,0,0.5
					c-0.1,0.1-0.3,0.1-0.5,0L60.8,87C60.7,86.9,60.7,86.8,60.7,86.7z"/>
			</g>
			<g>
				<path class="st145" d="M57.1,90.3c0-0.1,0-0.2,0.1-0.2c0.1-0.1,0.3-0.1,0.5,0l12.6,12.6c0.1,0.1,0.1,0.3,0,0.5
					c-0.1,0.1-0.3,0.1-0.5,0L57.2,90.5C57.2,90.4,57.1,90.4,57.1,90.3z"/>
			</g>
			<g>
				<path class="st145" d="M53.4,93.7c0-0.1,0-0.2,0.1-0.2c0.1-0.1,0.3-0.1,0.5,0l12.9,12.9c0.1,0.1,0.1,0.3,0,0.5s-0.3,0.1-0.5,0
					L53.5,93.9C53.5,93.8,53.4,93.7,53.4,93.7z"/>
			</g>
			<g>
				<path class="st145" d="M49.9,97.2c0-0.1,0-0.2,0.1-0.2c0.1-0.1,0.3-0.1,0.5,0l12.9,12.9c0.1,0.1,0.1,0.3,0,0.5
					c-0.1,0.1-0.3,0.1-0.5,0L50,97.4C49.9,97.4,49.9,97.3,49.9,97.2z"/>
			</g>
			<g>
				<path class="st145" d="M41.9,96.5c0-0.1,0.1-0.3,0.2-0.4c0.2-0.2,0.6-0.2,0.8,0l21.3,21.3c0.2,0.2,0.2,0.6,0,0.8
					c-0.2,0.2-0.6,0.2-0.8,0L42.1,96.9C42,96.8,41.9,96.7,41.9,96.5z"/>
			</g>
			<g>
				<path class="st145" d="M38.3,99.9c0-0.1,0.1-0.3,0.2-0.4c0.2-0.2,0.6-0.2,0.8,0l21.6,21.6c0.2,0.2,0.2,0.6,0,0.8
					c-0.2,0.2-0.6,0.2-0.8,0l-21.6-21.6C38.3,100.2,38.3,100.1,38.3,99.9z"/>
			</g>
			<g>
				<path class="st145" d="M85.5,47.9c0-0.1,0-0.2,0.1-0.2c0.1-0.1,0.3-0.1,0.4,0l11.4,11.4c0.1,0.1,0.1,0.3,0,0.4
					c-0.1,0.1-0.3,0.1-0.4,0L85.6,48.1C85.5,48,85.5,48,85.5,47.9z"/>
			</g>
			<g>
				<path class="st145" d="M81.9,51.4c0-0.1,0-0.2,0.1-0.2c0.1-0.1,0.3-0.1,0.4,0l11.4,11.4c0.1,0.1,0.1,0.3,0,0.4
					c-0.1,0.1-0.3,0.1-0.4,0L82,51.6C82,51.6,81.9,51.5,81.9,51.4z"/>
			</g>
			<g>
				<path class="st145" d="M78.2,54.8c0-0.1,0-0.2,0.1-0.2c0.1-0.1,0.3-0.1,0.4,0l11.7,11.7c0.1,0.1,0.1,0.3,0,0.4
					c-0.1,0.1-0.3,0.1-0.4,0L78.3,55C78.3,55,78.2,54.9,78.2,54.8z"/>
			</g>
			<g>
				<path class="st145" d="M74.7,58.3c0-0.1,0-0.2,0.1-0.2c0.1-0.1,0.3-0.1,0.4,0l11.7,11.7c0.1,0.1,0.1,0.3,0,0.4s-0.3,0.1-0.4,0
					L74.8,58.6C74.7,58.5,74.7,58.4,74.7,58.3z"/>
			</g>
			<g>
				<path class="st145" d="M71,61.7c0-0.1,0-0.2,0.1-0.2c0.1-0.1,0.3-0.1,0.4,0l12,12c0.1,0.1,0.1,0.3,0,0.4c-0.1,0.1-0.3,0.1-0.4,0
					l-12-12C71,61.9,71,61.8,71,61.7z"/>
			</g>
			<g>
				<path class="st145" d="M67.3,65.1c0-0.1,0-0.2,0.1-0.2c0.1-0.1,0.3-0.1,0.5,0l12.3,12.3c0.1,0.1,0.1,0.3,0,0.5
					c-0.1,0.1-0.3,0.1-0.5,0L67.4,65.3C67.3,65.3,67.3,65.2,67.3,65.1z"/>
			</g>
			<g>
				<path class="st145" d="M63.8,68.6c0-0.1,0-0.2,0.1-0.2c0.1-0.1,0.3-0.1,0.5,0l12.3,12.3c0.1,0.1,0.1,0.3,0,0.5
					c-0.1,0.1-0.3,0.1-0.5,0L63.9,68.9C63.8,68.8,63.8,68.7,63.8,68.6z"/>
			</g>
			<g>
				<path class="st145" d="M60.2,72.2c0-0.1,0-0.2,0.1-0.2c0.1-0.1,0.3-0.1,0.5,0l12.3,12.3c0.1,0.1,0.1,0.3,0,0.5
					c-0.1,0.1-0.3,0.1-0.5,0L60.3,72.4C60.3,72.3,60.2,72.3,60.2,72.2z"/>
			</g>
			<g>
				<path class="st145" d="M56.6,75.6c0-0.1,0-0.2,0.1-0.2c0.1-0.1,0.3-0.1,0.5,0l12.6,12.6c0.1,0.1,0.1,0.3,0,0.5
					c-0.1,0.1-0.3,0.1-0.5,0L56.6,75.8C56.6,75.7,56.6,75.6,56.6,75.6z"/>
			</g>
			<g>
				<path class="st145" d="M53,79.1c0-0.1,0-0.2,0.1-0.2c0.1-0.1,0.3-0.1,0.5,0l12.6,12.6c0.1,0.1,0.1,0.3,0,0.5
					c-0.1,0.1-0.3,0.1-0.5,0L53.1,79.3C53,79.3,53,79.2,53,79.1z"/>
			</g>
			<g>
				<path class="st145" d="M49.3,82.5c0-0.1,0-0.2,0.1-0.2c0.1-0.1,0.3-0.1,0.5,0l12.9,12.9c0.1,0.1,0.1,0.3,0,0.5
					c-0.1,0.1-0.3,0.1-0.5,0L49.4,82.7C49.4,82.7,49.3,82.6,49.3,82.5z"/>
			</g>
			<g>
				<path class="st145" d="M45.6,85.9c0-0.1,0-0.2,0.1-0.2c0.1-0.1,0.4-0.1,0.5,0l13.2,13.2c0.1,0.1,0.1,0.4,0,0.5
					c-0.1,0.1-0.4,0.1-0.5,0L45.7,86.1C45.7,86,45.6,86,45.6,85.9z"/>
			</g>
			<g>
				<path class="st145" d="M42.1,89.4c0-0.1,0-0.2,0.1-0.2c0.1-0.1,0.4-0.1,0.5,0l13.2,13.2c0.1,0.1,0.1,0.4,0,0.5
					c-0.1,0.1-0.4,0.1-0.5,0L42.2,89.7C42.1,89.6,42.1,89.5,42.1,89.4z"/>
			</g>
			<g>
				<path class="st145" d="M34,88.6c0-0.1,0.1-0.3,0.2-0.4c0.2-0.2,0.6-0.2,0.8,0l21.9,21.9c0.2,0.2,0.2,0.6,0,0.8
					c-0.2,0.2-0.6,0.2-0.8,0L34.2,89C34,88.9,34,88.7,34,88.6z"/>
			</g>
			<g>
				<path class="st145" d="M30.5,92.1c0-0.1,0.1-0.3,0.2-0.4c0.2-0.2,0.6-0.2,0.8,0l21.9,21.9c0.2,0.2,0.2,0.6,0,0.8
					c-0.2,0.2-0.6,0.2-0.8,0L30.6,92.5C30.5,92.4,30.5,92.3,30.5,92.1z"/>
			</g>
			<g>
				<path class="st145" d="M26.8,95.5c0-0.1,0.1-0.3,0.2-0.4c0.2-0.2,0.6-0.2,0.8,0l22.2,22.2c0.2,0.2,0.2,0.6,0,0.8
					c-0.2,0.2-0.6,0.2-0.8,0L26.9,95.9C26.8,95.8,26.8,95.7,26.8,95.5z"/>
			</g>
			<g>
				<path class="st145" d="M23.2,99.1c0-0.1,0.1-0.3,0.2-0.4c0.2-0.2,0.6-0.2,0.8,0l22.2,22.2c0.2,0.2,0.2,0.6,0,0.8
					c-0.2,0.2-0.6,0.2-0.8,0L23.4,99.5C23.3,99.3,23.2,99.2,23.2,99.1z"/>
			</g>
			<g>
				<path class="st145" d="M77.7,40.1c0-0.1,0-0.2,0.1-0.2c0.1-0.1,0.3-0.1,0.4,0l11.7,11.7c0.1,0.1,0.1,0.3,0,0.4s-0.3,0.1-0.4,0
					L77.8,40.3C77.7,40.2,77.7,40.2,77.7,40.1z"/>
			</g>
			<g>
				<path class="st145" d="M74.1,43.6c0-0.1,0-0.2,0.1-0.2c0.1-0.1,0.3-0.1,0.4,0l11.7,11.7c0.1,0.1,0.1,0.3,0,0.4s-0.3,0.1-0.4,0
					L74.2,43.8C74.2,43.8,74.1,43.7,74.1,43.6z"/>
			</g>
			<g>
				<path class="st145" d="M70.4,47c0-0.1,0-0.2,0.1-0.2c0.1-0.1,0.3-0.1,0.4,0l12,12c0.1,0.1,0.1,0.3,0,0.4c-0.1,0.1-0.3,0.1-0.4,0
					l-12-12C70.5,47.2,70.4,47.1,70.4,47z"/>
			</g>
			<g>
				<path class="st145" d="M66.7,50.4c0-0.1,0-0.2,0.1-0.2c0.1-0.1,0.3-0.1,0.5,0l12.3,12.3c0.1,0.1,0.1,0.3,0,0.5
					c-0.1,0.1-0.3,0.1-0.5,0L66.8,50.6C66.8,50.6,66.7,50.5,66.7,50.4z"/>
			</g>
			<g>
				<path class="st145" d="M63.2,53.9c0-0.1,0-0.2,0.1-0.2c0.1-0.1,0.3-0.1,0.5,0L76,66c0.1,0.1,0.1,0.3,0,0.5
					c-0.1,0.1-0.3,0.1-0.5,0L63.3,54.2C63.2,54.1,63.2,54,63.2,53.9z"/>
			</g>
			<g>
				<path class="st145" d="M59.7,57.5c0-0.1,0-0.2,0.1-0.2c0.1-0.1,0.3-0.1,0.5,0l12.3,12.3c0.1,0.1,0.1,0.3,0,0.5
					c-0.1,0.1-0.3,0.1-0.5,0L59.8,57.7C59.7,57.6,59.7,57.5,59.7,57.5z"/>
			</g>
			<g>
				<path class="st145" d="M56,60.8c0-0.1,0-0.2,0.1-0.2c0.1-0.1,0.3-0.1,0.5,0l12.6,12.6c0.1,0.1,0.1,0.3,0,0.5
					c-0.1,0.1-0.3,0.1-0.5,0L56.1,61.1C56,61,56,60.9,56,60.8z"/>
			</g>
			<g>
				<path class="st145" d="M52.4,64.4c0-0.1,0-0.2,0.1-0.2c0.1-0.1,0.3-0.1,0.5,0l12.6,12.6c0.1,0.1,0.1,0.3,0,0.5
					c-0.1,0.1-0.3,0.1-0.5,0L52.5,64.6C52.5,64.6,52.4,64.5,52.4,64.4z"/>
			</g>
			<g>
				<path class="st145" d="M48.8,67.8c0-0.1,0-0.2,0.1-0.2c0.1-0.1,0.3-0.1,0.5,0l12.9,12.9c0.1,0.1,0.1,0.3,0,0.5
					c-0.1,0.1-0.3,0.1-0.5,0L48.9,68C48.8,67.9,48.8,67.9,48.8,67.8z"/>
			</g>
			<g>
				<path class="st145" d="M45.2,71.3c0-0.1,0-0.2,0.1-0.2c0.1-0.1,0.3-0.1,0.5,0L58.7,84c0.1,0.1,0.1,0.3,0,0.5
					c-0.1,0.1-0.3,0.1-0.5,0L45.3,71.5C45.3,71.5,45.2,71.4,45.2,71.3z"/>
			</g>
			<g>
				<path class="st145" d="M41.5,74.7c0-0.1,0-0.2,0.1-0.2c0.1-0.1,0.4-0.1,0.5,0l13.2,13.2c0.1,0.1,0.1,0.4,0,0.5
					c-0.1,0.1-0.4,0.1-0.5,0L41.6,74.9C41.6,74.9,41.5,74.8,41.5,74.7z"/>
			</g>
			<g>
				<path class="st145" d="M38,78.2c0-0.1,0-0.2,0.1-0.2c0.1-0.1,0.4-0.1,0.5,0l13.2,13.2c0.1,0.1,0.1,0.4,0,0.5
					c-0.1,0.1-0.4,0.1-0.5,0L38.1,78.5C38,78.4,38,78.3,38,78.2z"/>
			</g>
			<g>
				<path class="st145" d="M34.3,81.6c0-0.1,0-0.2,0.1-0.2c0.1-0.1,0.4-0.1,0.5,0l13.5,13.5c0.1,0.1,0.1,0.4,0,0.5
					c-0.1,0.1-0.4,0.1-0.5,0L34.4,81.9C34.3,81.8,34.3,81.7,34.3,81.6z"/>
			</g>
			<g>
				<path class="st145" d="M26.3,81c0-0.1,0.1-0.3,0.2-0.4c0.2-0.2,0.6-0.2,0.8,0l21.9,21.9c0.2,0.2,0.2,0.6,0,0.8
					c-0.2,0.2-0.6,0.2-0.8,0L26.5,81.4C26.4,81.2,26.3,81.1,26.3,81z"/>
			</g>
			<g>
				<path class="st145" d="M22.7,84.3c0-0.1,0.1-0.3,0.2-0.4c0.2-0.2,0.6-0.2,0.8,0l22.2,22.2c0.2,0.2,0.2,0.6,0,0.8
					c-0.2,0.2-0.6,0.2-0.8,0L22.8,84.8C22.7,84.6,22.7,84.5,22.7,84.3z"/>
			</g>
			<g>
				<path class="st145" d="M19,87.7c0-0.1,0.1-0.3,0.2-0.4c0.2-0.2,0.6-0.2,0.8,0l22.5,22.5c0.2,0.2,0.2,0.6,0,0.8
					c-0.2,0.2-0.6,0.2-0.8,0L19.1,88.1C19,88,19,87.9,19,87.7z"/>
			</g>
			<g>
				<path class="st145" d="M15.3,91.1c0-0.2,0.1-0.3,0.2-0.4c0.2-0.2,0.6-0.2,0.8,0l22.8,22.8c0.2,0.2,0.2,0.6,0,0.8
					c-0.2,0.2-0.6,0.2-0.8,0L15.4,91.5C15.3,91.4,15.3,91.3,15.3,91.1z"/>
			</g>
			<g>
				<path class="st145" d="M11.6,94.5c0-0.2,0.1-0.3,0.2-0.4c0.2-0.2,0.6-0.2,0.9,0l23.1,23.1c0.2,0.2,0.2,0.6,0,0.9
					c-0.2,0.2-0.6,0.2-0.9,0L11.8,94.9C11.6,94.8,11.6,94.7,11.6,94.5z"/>
			</g>
			<g>
				<path class="st145" d="M8,98c0-0.2,0.1-0.3,0.2-0.4c0.2-0.2,0.6-0.2,0.9,0l23.1,23.1c0.2,0.2,0.2,0.6,0,0.9
					c-0.2,0.2-0.6,0.2-0.9,0L8.2,98.5C8.1,98.3,8,98.2,8,98z"/>
			</g>
			<g>
				<path class="st145" d="M70,32.4c0-0.1,0-0.2,0.1-0.2c0.1-0.1,0.3-0.1,0.4,0l11.7,11.7c0.1,0.1,0.1,0.3,0,0.4s-0.3,0.1-0.4,0
					L70.1,32.7C70.1,32.6,70,32.5,70,32.4z"/>
			</g>
			<g>
				<path class="st145" d="M66.3,35.8c0-0.1,0-0.2,0.1-0.2c0.1-0.1,0.3-0.1,0.4,0l12,12c0.1,0.1,0.1,0.3,0,0.4
					c-0.1,0.1-0.3,0.1-0.4,0l-12-12C66.4,36,66.3,35.9,66.3,35.8z"/>
			</g>
			<g>
				<path class="st145" d="M62.6,39.2c0-0.1,0-0.2,0.1-0.2c0.1-0.1,0.3-0.1,0.5,0l12.3,12.3c0.1,0.1,0.1,0.3,0,0.5
					c-0.1,0.1-0.3,0.1-0.5,0L62.7,39.4C62.7,39.4,62.6,39.3,62.6,39.2z"/>
			</g>
			<g>
				<path class="st145" d="M59.1,42.8c0-0.1,0-0.2,0.1-0.2c0.1-0.1,0.3-0.1,0.5,0l12.3,12.3c0.1,0.1,0.1,0.3,0,0.5
					c-0.1,0.1-0.3,0.1-0.5,0L59.2,43C59.1,42.9,59.1,42.8,59.1,42.8z"/>
			</g>
			<g>
				<path class="st145" d="M55.6,46.3c0-0.1,0-0.2,0.1-0.2c0.1-0.1,0.3-0.1,0.5,0l12.3,12.3c0.1,0.1,0.1,0.3,0,0.5
					c-0.1,0.1-0.3,0.1-0.5,0L55.7,46.5C55.6,46.5,55.6,46.4,55.6,46.3z"/>
			</g>
			<g>
				<path class="st145" d="M51.9,49.7c0-0.1,0-0.2,0.1-0.2c0.1-0.1,0.3-0.1,0.5,0L65,62c0.1,0.1,0.1,0.3,0,0.5
					c-0.1,0.1-0.3,0.1-0.5,0L52,49.9C51.9,49.8,51.9,49.8,51.9,49.7z"/>
			</g>
			<g>
				<path class="st145" d="M48.3,53.2c0-0.1,0-0.2,0.1-0.2c0.1-0.1,0.3-0.1,0.5,0l12.6,12.6c0.1,0.1,0.1,0.3,0,0.5
					c-0.1,0.1-0.3,0.1-0.5,0L48.4,53.4C48.4,53.4,48.3,53.3,48.3,53.2z"/>
			</g>
			<g>
				<path class="st145" d="M44.7,56.6c0-0.1,0-0.2,0.1-0.2c0.1-0.1,0.3-0.1,0.5,0l12.9,12.9c0.1,0.1,0.1,0.3,0,0.5
					c-0.1,0.1-0.3,0.1-0.5,0L44.7,56.8C44.7,56.8,44.7,56.7,44.7,56.6z"/>
			</g>
			<g>
				<path class="st145" d="M41,60c0-0.1,0-0.2,0.1-0.2c0.1-0.1,0.4-0.1,0.5,0l13.2,13.2c0.1,0.1,0.1,0.4,0,0.5
					c-0.1,0.1-0.4,0.1-0.5,0L41.1,60.2C41,60.2,41,60.1,41,60z"/>
			</g>
			<g>
				<path class="st145" d="M37.4,63.5c0-0.1,0-0.2,0.1-0.2c0.1-0.1,0.4-0.1,0.5,0l13.2,13.2c0.1,0.1,0.1,0.4,0,0.5
					c-0.1,0.1-0.4,0.1-0.5,0L37.5,63.8C37.5,63.7,37.4,63.6,37.4,63.5z"/>
			</g>
			<g>
				<path class="st145" d="M33.7,66.9c0-0.1,0-0.2,0.1-0.2c0.1-0.1,0.4-0.1,0.5,0l13.5,13.5c0.1,0.1,0.1,0.4,0,0.5
					c-0.1,0.1-0.4,0.1-0.5,0L33.8,67.1C33.8,67.1,33.7,67,33.7,66.9z"/>
			</g>
			<g>
				<path class="st145" d="M30,70.3c0-0.1,0-0.2,0.1-0.3c0.1-0.1,0.4-0.1,0.5,0l13.8,13.8c0.1,0.1,0.1,0.4,0,0.5
					c-0.1,0.1-0.4,0.1-0.5,0L30.1,70.5C30.1,70.5,30,70.4,30,70.3z"/>
			</g>
			<g>
				<path class="st145" d="M26.5,73.8c0-0.1,0-0.2,0.1-0.3c0.1-0.1,0.4-0.1,0.5,0l13.8,13.8c0.1,0.1,0.1,0.4,0,0.5
					c-0.1,0.1-0.4,0.1-0.5,0L26.6,74.1C26.5,74,26.5,73.9,26.5,73.8z"/>
			</g>
			<g>
				<path class="st145" d="M23,77.4c0-0.1,0-0.2,0.1-0.3c0.1-0.1,0.4-0.1,0.5,0l13.8,13.8c0.1,0.1,0.1,0.4,0,0.5
					c-0.1,0.1-0.4,0.1-0.5,0L23.1,77.6C23,77.5,23,77.5,23,77.4z"/>
			</g>
			<g>
				<path class="st145" d="M14.7,76.4c0-0.2,0.1-0.3,0.2-0.4c0.2-0.2,0.6-0.2,0.8,0l22.8,22.8c0.2,0.2,0.2,0.6,0,0.8
					c-0.2,0.2-0.6,0.2-0.8,0L14.9,76.8C14.8,76.7,14.7,76.6,14.7,76.4z"/>
			</g>
			<g>
				<path class="st145" d="M11.2,79.9c0-0.2,0.1-0.3,0.2-0.4c0.2-0.2,0.6-0.2,0.8,0L35,102.3c0.2,0.2,0.2,0.6,0,0.8
					c-0.2,0.2-0.6,0.2-0.8,0L11.3,80.4C11.2,80.2,11.2,80.1,11.2,79.9z"/>
			</g>
			<g>
				<path class="st145" d="M7.5,83.3c0-0.2,0.1-0.3,0.2-0.4c0.2-0.2,0.6-0.2,0.9,0L31.6,106c0.2,0.2,0.2,0.6,0,0.9
					c-0.2,0.2-0.6,0.2-0.9,0L7.6,83.7C7.5,83.6,7.5,83.5,7.5,83.3z"/>
			</g>
			<g>
				<path class="st145" d="M3.9,86.9c0-0.2,0.1-0.3,0.2-0.4c0.2-0.2,0.6-0.2,0.9,0L28,109.5c0.2,0.2,0.2,0.6,0,0.9
					c-0.2,0.2-0.6,0.2-0.9,0L4.1,87.3C4,87.2,3.9,87,3.9,86.9z"/>
			</g>
			<g>
				<path class="st145" d="M0.1,90.1c0-0.2,0.1-0.3,0.2-0.4c0.2-0.2,0.6-0.2,0.9,0l23.7,23.7c0.2,0.2,0.2,0.6,0,0.9
					c-0.2,0.2-0.6,0.2-0.9,0L0.3,90.5C0.1,90.4,0.1,90.3,0.1,90.1z"/>
			</g>
			<g>
				<path class="st145" d="M0,97.3l20.5,20.5c0.2,0.2,0.6,0.2,0.9,0c0.2-0.2,0.2-0.6,0-0.9L0,95.6V97.3z"/>
			</g>
			<g>
				<path class="st145" d="M62.1,24.5c0-0.1,0-0.2,0.1-0.2c0.1-0.1,0.3-0.1,0.5,0l12.3,12.3c0.1,0.1,0.1,0.3,0,0.5
					c-0.1,0.1-0.3,0.1-0.5,0L62.2,24.7C62.1,24.7,62.1,24.6,62.1,24.5z"/>
			</g>
			<g>
				<path class="st145" d="M58.5,28c0-0.1,0-0.2,0.1-0.2c0.1-0.1,0.3-0.1,0.5,0l12.3,12.3c0.1,0.1,0.1,0.3,0,0.5
					c-0.1,0.1-0.3,0.1-0.5,0L58.6,28.3C58.6,28.2,58.5,28.1,58.5,28z"/>
			</g>
			<g>
				<path class="st145" d="M55,31.6c0-0.1,0-0.2,0.1-0.2c0.1-0.1,0.3-0.1,0.5,0l12.3,12.3c0.1,0.1,0.1,0.3,0,0.5
					c-0.1,0.1-0.3,0.1-0.5,0L55.1,31.8C55,31.7,55,31.7,55,31.6z"/>
			</g>
			<g>
				<path class="st145" d="M51.3,35c0-0.1,0-0.2,0.1-0.2c0.1-0.1,0.3-0.1,0.5,0l12.6,12.6c0.1,0.1,0.1,0.3,0,0.5
					c-0.1,0.1-0.3,0.1-0.5,0L51.4,35.2C51.3,35.1,51.3,35,51.3,35z"/>
			</g>
			<g>
				<path class="st145" d="M47.8,38.5c0-0.1,0-0.2,0.1-0.2c0.1-0.1,0.3-0.1,0.5,0l12.6,12.6c0.1,0.1,0.1,0.3,0,0.5
					c-0.1,0.1-0.3,0.1-0.5,0L47.9,38.7C47.8,38.7,47.8,38.6,47.8,38.5z"/>
			</g>
			<g>
				<path class="st145" d="M44.1,41.9c0-0.1,0-0.2,0.1-0.2c0.1-0.1,0.3-0.1,0.5,0l12.9,12.9c0.1,0.1,0.1,0.3,0,0.5
					c-0.1,0.1-0.3,0.1-0.5,0L44.2,42.1C44.1,42.1,44.1,42,44.1,41.9z"/>
			</g>
			<g>
				<path class="st145" d="M40.5,45.4c0-0.1,0-0.2,0.1-0.2c0.1-0.1,0.3-0.1,0.5,0L54,58.1c0.1,0.1,0.1,0.3,0,0.5
					c-0.1,0.1-0.3,0.1-0.5,0L40.6,45.7C40.6,45.6,40.5,45.5,40.5,45.4z"/>
			</g>
			<g>
				<path class="st145" d="M36.9,48.8c0-0.1,0-0.2,0.1-0.2c0.1-0.1,0.4-0.1,0.5,0l13.2,13.2c0.1,0.1,0.1,0.4,0,0.5
					c-0.1,0.1-0.4,0.1-0.5,0L37,49C36.9,49,36.9,48.9,36.9,48.8z"/>
			</g>
			<g>
				<path class="st145" d="M33.3,52.3c0-0.1,0-0.2,0.1-0.2c0.1-0.1,0.4-0.1,0.5,0l13.2,13.2c0.1,0.1,0.1,0.4,0,0.5
					c-0.1,0.1-0.4,0.1-0.5,0L33.4,52.6C33.3,52.5,33.3,52.4,33.3,52.3z"/>
			</g>
			<g>
				<path class="st145" d="M29.6,55.7c0-0.1,0-0.2,0.1-0.2c0.1-0.1,0.4-0.1,0.5,0L43.7,69c0.1,0.1,0.1,0.4,0,0.5
					c-0.1,0.1-0.4,0.1-0.5,0L29.7,56C29.7,55.9,29.6,55.8,29.6,55.7z"/>
			</g>
			<g>
				<path class="st145" d="M25.9,59.1c0-0.1,0-0.2,0.1-0.3c0.1-0.1,0.4-0.1,0.5,0l13.8,13.8c0.1,0.1,0.1,0.4,0,0.5
					c-0.1,0.1-0.4,0.1-0.5,0L26,59.4C26,59.3,25.9,59.2,25.9,59.1z"/>
			</g>
			<g>
				<path class="st145" d="M22.4,62.6c0-0.1,0-0.2,0.1-0.3c0.1-0.1,0.4-0.1,0.5,0l13.8,13.8c0.1,0.1,0.1,0.4,0,0.5
					c-0.1,0.1-0.4,0.1-0.5,0L22.5,62.9C22.4,62.8,22.4,62.7,22.4,62.6z"/>
			</g>
			<g>
				<path class="st145" d="M18.7,66c0-0.1,0-0.2,0.1-0.3c0.1-0.1,0.4-0.1,0.5,0l14.1,14.1c0.1,0.1,0.1,0.4,0,0.5
					c-0.1,0.1-0.4,0.1-0.5,0L18.8,66.3C18.7,66.2,18.7,66.1,18.7,66z"/>
			</g>
			<g>
				<path class="st145" d="M15.2,69.6c0-0.1,0-0.2,0.1-0.3c0.1-0.1,0.4-0.1,0.5,0l14.1,14.1c0.1,0.1,0.1,0.4,0,0.5
					c-0.1,0.1-0.4,0.1-0.5,0L15.3,69.8C15.2,69.8,15.2,69.7,15.2,69.6z"/>
			</g>
			<g>
				<path class="st145" d="M11.5,73c0-0.1,0-0.2,0.1-0.3c0.1-0.1,0.4-0.1,0.5,0l14.4,14.4c0.1,0.1,0.1,0.4,0,0.5
					c-0.1,0.1-0.4,0.1-0.5,0L11.6,73.2C11.5,73.1,11.5,73,11.5,73z"/>
			</g>
			<g>
				<path class="st145" d="M3.4,72.1c0-0.2,0.1-0.3,0.2-0.4c0.2-0.2,0.6-0.2,0.9,0l23.1,23.1c0.2,0.2,0.2,0.6,0,0.9
					c-0.2,0.2-0.6,0.2-0.9,0L3.5,72.6C3.4,72.5,3.4,72.3,3.4,72.1z"/>
			</g>
			<g>
				<path class="st145" d="M0,76.1l23.2,23.2c0.2,0.2,0.6,0.2,0.9,0c0.2-0.2,0.2-0.6,0-0.9L0.7,75.1C0.5,74.9,0.2,74.9,0,75V76.1z"
					/>
			</g>
			<g>
				<path class="st145" d="M0,83.2l20,20c0.2,0.2,0.6,0.2,0.9,0c0.2-0.2,0.2-0.6,0-0.9L0,81.4V83.2z"/>
			</g>
			<g>
				<path class="st145" d="M0,90.3l16.4,16.4c0.2,0.2,0.6,0.2,0.9,0c0.2-0.2,0.2-0.6,0-0.9L0,88.5V90.3z"/>
			</g>
			<g>
				<path class="st145" d="M0,97.3l12.9,12.9c0.2,0.2,0.6,0.2,0.9,0c0.2-0.2,0.2-0.6,0-0.9L0,95.6V97.3z"/>
			</g>
			<g>
				<path class="st145" d="M50.9,20.4c0-0.1,0-0.2,0.1-0.2c0.1-0.1,0.3-0.1,0.5,0l12.3,12.3c0.1,0.1,0.1,0.3,0,0.5
					c-0.1,0.1-0.3,0.1-0.5,0L51,20.6C50.9,20.6,50.9,20.5,50.9,20.4z"/>
			</g>
			<g>
				<path class="st145" d="M47.2,23.8c0-0.1,0-0.2,0.1-0.2c0.1-0.1,0.3-0.1,0.5,0l12.6,12.6c0.1,0.1,0.1,0.3,0,0.5
					c-0.1,0.1-0.3,0.1-0.5,0L47.3,24C47.2,24,47.2,23.9,47.2,23.8z"/>
			</g>
			<g>
				<path class="st145" d="M43.7,27.3c0-0.1,0-0.2,0.1-0.2c0.1-0.1,0.3-0.1,0.5,0l12.6,12.6c0.1,0.1,0.1,0.3,0,0.5
					c-0.1,0.1-0.3,0.1-0.5,0L43.8,27.6C43.7,27.5,43.7,27.4,43.7,27.3z"/>
			</g>
			<g>
				<path class="st145" d="M40,30.7c0-0.1,0-0.2,0.1-0.2c0.1-0.1,0.3-0.1,0.5,0l12.9,12.9c0.1,0.1,0.1,0.3,0,0.5
					c-0.1,0.1-0.3,0.1-0.5,0L40.1,30.9C40,30.9,40,30.8,40,30.7z"/>
			</g>
			<g>
				<path class="st145" d="M36.3,34.1c0-0.1,0-0.2,0.1-0.2c0.1-0.1,0.4-0.1,0.5,0L50.1,47c0.1,0.1,0.1,0.4,0,0.5
					c-0.1,0.1-0.4,0.1-0.5,0L36.4,34.3C36.3,34.3,36.3,34.2,36.3,34.1z"/>
			</g>
			<g>
				<path class="st145" d="M32.7,37.6c0-0.1,0-0.2,0.1-0.2c0.1-0.1,0.4-0.1,0.5,0l13.2,13.2c0.1,0.1,0.1,0.4,0,0.5
					c-0.1,0.1-0.4,0.1-0.5,0L32.8,37.9C32.8,37.8,32.7,37.7,32.7,37.6z"/>
			</g>
			<g>
				<path class="st145" d="M29.1,41c0-0.1,0-0.2,0.1-0.2c0.1-0.1,0.4-0.1,0.5,0l13.5,13.5c0.1,0.1,0.1,0.4,0,0.5
					c-0.1,0.1-0.4,0.1-0.5,0L29.2,41.3C29.1,41.2,29.1,41.1,29.1,41z"/>
			</g>
			<g>
				<path class="st145" d="M25.4,44.4c0-0.1,0-0.2,0.1-0.3c0.1-0.1,0.4-0.1,0.5,0l13.8,13.8c0.1,0.1,0.1,0.4,0,0.5
					c-0.1,0.1-0.4,0.1-0.5,0L25.5,44.7C25.4,44.6,25.4,44.5,25.4,44.4z"/>
			</g>
			<g>
				<path class="st145" d="M21.8,47.9c0-0.1,0-0.2,0.1-0.3c0.1-0.1,0.4-0.1,0.5,0l13.8,13.8c0.1,0.1,0.1,0.4,0,0.5
					c-0.1,0.1-0.4,0.1-0.5,0L21.9,48.2C21.9,48.1,21.8,48,21.8,47.9z"/>
			</g>
			<g>
				<path class="st145" d="M18.3,51.5c0-0.1,0-0.2,0.1-0.3c0.1-0.1,0.4-0.1,0.5,0L32.7,65c0.1,0.1,0.1,0.4,0,0.5
					c-0.1,0.1-0.4,0.1-0.5,0L18.4,51.7C18.3,51.7,18.3,51.6,18.3,51.5z"/>
			</g>
			<g>
				<path class="st145" d="M14.6,54.9c0-0.1,0-0.2,0.1-0.3c0.1-0.1,0.4-0.1,0.5,0l14.1,14.1c0.1,0.1,0.1,0.4,0,0.5
					c-0.1,0.1-0.4,0.1-0.5,0L14.7,55.1C14.6,55,14.6,54.9,14.6,54.9z"/>
			</g>
			<g>
				<path class="st145" d="M11.1,58.4c0-0.1,0-0.2,0.1-0.3c0.1-0.1,0.4-0.1,0.5,0l14.1,14.1c0.1,0.1,0.1,0.4,0,0.5
					c-0.1,0.1-0.4,0.1-0.5,0L11.2,58.7C11.1,58.6,11.1,58.5,11.1,58.4z"/>
			</g>
			<g>
				<path class="st145" d="M7.2,61.6c0-0.1,0-0.2,0.1-0.3c0.2-0.2,0.4-0.2,0.5,0L22.5,76c0.1,0.2,0.1,0.4,0,0.5
					c-0.2,0.2-0.4,0.2-0.5,0L7.3,61.9C7.2,61.8,7.2,61.7,7.2,61.6z"/>
			</g>
			<g>
				<path class="st145" d="M3.7,65.2c0-0.1,0-0.2,0.1-0.3c0.2-0.2,0.4-0.2,0.5,0L19,79.6c0.1,0.2,0.1,0.4,0,0.5
					c-0.2,0.2-0.4,0.2-0.5,0L3.8,65.4C3.7,65.4,3.7,65.3,3.7,65.2z"/>
			</g>
			<g>
				<path class="st145" d="M0,68.5L0,68.5c0,0.2,0,0.3,0.1,0.3l15,15c0.2,0.2,0.4,0.2,0.6,0c0.2-0.2,0.2-0.4,0-0.6l-15-15
					c-0.2-0.2-0.4-0.2-0.6,0C0,68.3,0,68.4,0,68.5z"/>
			</g>
			<g>
				<path class="st145" d="M0,75.8l11.7,11.7c0.2,0.2,0.4,0.2,0.6,0c0.2-0.2,0.2-0.4,0-0.6L0,74.7V75.8z"/>
			</g>
			<g>
				<path class="st145" d="M0,82.9L8.1,91c0.2,0.2,0.4,0.2,0.6,0c0.2-0.2,0.2-0.4,0-0.6L0,81.8V82.9z"/>
			</g>
			<g>
				<path class="st145" d="M0,90l4.8,4.8c0.2,0.2,0.4,0.2,0.6,0c0.2-0.2,0.2-0.4,0-0.6L0,88.8V90z"/>
			</g>
			<g>
				<path class="st145" d="M0,97.4l5.6,5.6c0.3,0.3,0.7,0.3,0.9,0c0.2-0.3,0.2-0.7,0-0.9L0,95.6V97.4z"/>
			</g>
			<g>
				<path class="st145" d="M43.1,12.6c0-0.1,0-0.2,0.1-0.2c0.1-0.1,0.3-0.1,0.5,0L56.2,25c0.1,0.1,0.1,0.3,0,0.5
					c-0.1,0.1-0.3,0.1-0.5,0L43.2,12.8C43.1,12.8,43.1,12.7,43.1,12.6z"/>
			</g>
			<g>
				<path class="st145" d="M39.4,16c0-0.1,0-0.2,0.1-0.2c0.1-0.1,0.3-0.1,0.5,0l12.9,12.9c0.1,0.1,0.1,0.3,0,0.5
					c-0.1,0.1-0.3,0.1-0.5,0L39.5,16.2C39.4,16.2,39.4,16.1,39.4,16z"/>
			</g>
			<g>
				<path class="st145" d="M35.9,19.5c0-0.1,0-0.2,0.1-0.2c0.1-0.1,0.3-0.1,0.5,0l12.9,12.9c0.1,0.1,0.1,0.3,0,0.5
					c-0.1,0.1-0.3,0.1-0.5,0L36,19.8C35.9,19.7,35.9,19.6,35.9,19.5z"/>
			</g>
			<g>
				<path class="st145" d="M32.2,22.9c0-0.1,0-0.2,0.1-0.2c0.1-0.1,0.4-0.1,0.5,0l13.2,13.2c0.1,0.1,0.1,0.4,0,0.5
					c-0.1,0.1-0.4,0.1-0.5,0L32.3,23.2C32.2,23.1,32.2,23,32.2,22.9z"/>
			</g>
			<g>
				<path class="st145" d="M28.6,26.5c0-0.1,0-0.2,0.1-0.2c0.1-0.1,0.4-0.1,0.5,0l13.2,13.2c0.1,0.1,0.1,0.4,0,0.5
					c-0.1,0.1-0.4,0.1-0.5,0L28.7,26.7C28.7,26.6,28.6,26.5,28.6,26.5z"/>
			</g>
			<g>
				<path class="st145" d="M24.9,29.8c0-0.1,0-0.2,0.1-0.2c0.1-0.1,0.4-0.1,0.5,0L39,43.1c0.1,0.1,0.1,0.4,0,0.5
					c-0.1,0.1-0.4,0.1-0.5,0L25.1,30.1C25,30,24.9,29.9,24.9,29.8z"/>
			</g>
			<g>
				<path class="st145" d="M21.3,33.2c0-0.1,0-0.2,0.1-0.3c0.1-0.1,0.4-0.1,0.5,0l13.8,13.8c0.1,0.1,0.1,0.4,0,0.5
					c-0.1,0.1-0.4,0.1-0.5,0L21.4,33.5C21.3,33.4,21.3,33.3,21.3,33.2z"/>
			</g>
			<g>
				<path class="st145" d="M17.7,36.8c0-0.1,0-0.2,0.1-0.3c0.1-0.1,0.4-0.1,0.5,0l13.8,13.8c0.1,0.1,0.1,0.4,0,0.5
					c-0.1,0.1-0.4,0.1-0.5,0L17.8,37C17.8,36.9,17.7,36.9,17.7,36.8z"/>
			</g>
			<g>
				<path class="st145" d="M14,40.1c0-0.1,0-0.2,0.1-0.3c0.1-0.1,0.4-0.1,0.5,0L28.7,54c0.1,0.1,0.1,0.4,0,0.5
					c-0.1,0.1-0.4,0.1-0.5,0L14.1,40.4C14.1,40.3,14,40.2,14,40.1z"/>
			</g>
			<g>
				<path class="st145" d="M10.5,43.7c0-0.1,0-0.2,0.1-0.3c0.1-0.1,0.4-0.1,0.5,0l14.1,14.1c0.1,0.1,0.1,0.4,0,0.5
					c-0.1,0.1-0.4,0.1-0.5,0L10.6,43.9C10.5,43.9,10.5,43.8,10.5,43.7z"/>
			</g>
			<g>
				<path class="st145" d="M6.8,47.1c0-0.1,0-0.2,0.1-0.3c0.1-0.1,0.4-0.1,0.5,0l14.4,14.4c0.1,0.1,0.1,0.4,0,0.5
					c-0.1,0.1-0.4,0.1-0.5,0L6.9,47.3C6.8,47.3,6.8,47.2,6.8,47.1z"/>
			</g>
			<g>
				<path class="st145" d="M3.1,50.5c0-0.1,0-0.2,0.1-0.3c0.2-0.1,0.4-0.1,0.5,0l14.7,14.7c0.1,0.2,0.1,0.4,0,0.5
					c-0.2,0.2-0.4,0.2-0.5,0L3.2,50.7C3.1,50.6,3.1,50.5,3.1,50.5z"/>
			</g>
			<g>
				<path class="st145" d="M0,54.6l14.4,14.4c0.2,0.2,0.4,0.2,0.5,0c0.1-0.2,0.1-0.4,0-0.5L0.2,53.7c-0.1-0.1-0.1-0.1-0.2-0.1V54.6z
					"/>
			</g>
			<g>
				<path class="st145" d="M0,61.7l11.1,11.1c0.2,0.2,0.4,0.2,0.6,0c0.2-0.2,0.2-0.4,0-0.6L0,60.5V61.7z"/>
			</g>
			<g>
				<path class="st145" d="M0,68.7l7.6,7.6c0.2,0.2,0.4,0.2,0.6,0c0.2-0.2,0.2-0.4,0-0.6L0,67.6V68.7z"/>
			</g>
			<g>
				<path class="st145" d="M0,75.8l4,4c0.2,0.2,0.4,0.2,0.6,0c0.2-0.2,0.2-0.4,0-0.6L0,74.7V75.8z"/>
			</g>
			<g>
				<path class="st145" d="M28.1,11.7c0-0.1,0-0.2,0.1-0.2c0.1-0.1,0.4-0.1,0.5,0l13.2,13.2c0.1,0.1,0.1,0.4,0,0.5
					c-0.1,0.1-0.4,0.1-0.5,0L28.2,12C28.1,11.9,28.1,11.8,28.1,11.7z"/>
			</g>
			<g>
				<path class="st145" d="M24.4,15.1c0-0.1,0-0.2,0.1-0.2c0.1-0.1,0.4-0.1,0.5,0l13.5,13.5c0.1,0.1,0.1,0.4,0,0.5
					c-0.1,0.1-0.4,0.1-0.5,0L24.5,15.4C24.4,15.3,24.4,15.2,24.4,15.1z"/>
			</g>
			<g>
				<path class="st145" d="M20.7,18.5c0-0.1,0-0.2,0.1-0.3c0.1-0.1,0.4-0.1,0.5,0L35.1,32c0.1,0.1,0.1,0.4,0,0.5
					c-0.1,0.1-0.4,0.1-0.5,0L20.8,18.8C20.7,18.7,20.7,18.6,20.7,18.5z"/>
			</g>
			<g>
				<path class="st145" d="M17.1,22c0-0.1,0-0.2,0.1-0.3c0.1-0.1,0.4-0.1,0.5,0l13.8,13.8c0.1,0.1,0.1,0.4,0,0.5
					c-0.1,0.1-0.4,0.1-0.5,0L17.3,22.3C17.2,22.2,17.1,22.1,17.1,22z"/>
			</g>
			<g>
				<path class="st145" d="M13.5,25.4c0-0.1,0-0.2,0.1-0.3c0.1-0.1,0.4-0.1,0.5,0l14.1,14.1c0.1,0.1,0.1,0.4,0,0.5
					c-0.1,0.1-0.4,0.1-0.5,0L13.6,25.7C13.5,25.6,13.5,25.5,13.5,25.4z"/>
			</g>
			<g>
				<path class="st145" d="M9.9,29c0-0.1,0-0.2,0.1-0.3c0.1-0.1,0.4-0.1,0.5,0l14.1,14.1c0.1,0.1,0.1,0.4,0,0.5
					c-0.1,0.1-0.4,0.1-0.5,0L10,29.2C10,29.2,9.9,29.1,9.9,29z"/>
			</g>
			<g>
				<path class="st145" d="M6.4,32.5c0-0.1,0-0.2,0.1-0.3c0.1-0.1,0.4-0.1,0.5,0l14.1,14.1c0.1,0.1,0.1,0.4,0,0.5
					c-0.1,0.1-0.4,0.1-0.5,0L6.5,32.8C6.4,32.7,6.4,32.6,6.4,32.5z"/>
			</g>
			<g>
				<path class="st145" d="M2.5,35.7c0-0.1,0-0.2,0.1-0.3c0.2-0.2,0.4-0.2,0.5,0l14.7,14.7c0.1,0.2,0.1,0.4,0,0.5
					c-0.2,0.2-0.4,0.2-0.5,0L2.6,36C2.6,35.9,2.5,35.8,2.5,35.7z"/>
			</g>
			<g>
				<path class="st145" d="M0,40.4l13.8,13.8c0.2,0.2,0.4,0.2,0.5,0c0.1-0.2,0.1-0.4,0-0.5L0,39.3V40.4z"/>
			</g>
			<g>
				<path class="st145" d="M0,47.5l10.4,10.4c0.2,0.2,0.4,0.2,0.6,0c0.2-0.2,0.2-0.4,0-0.6l-11-11V47.5z"/>
			</g>
			<g>
				<path class="st145" d="M0,54.6l7,7c0.2,0.2,0.4,0.2,0.6,0c0.2-0.2,0.2-0.4,0-0.6L0,53.5V54.6z"/>
			</g>
			<g>
				<path class="st145" d="M0,61.7l3.5,3.5c0.2,0.2,0.4,0.2,0.6,0c0.2-0.2,0.2-0.4,0-0.6l-4-4V61.7z"/>
			</g>
			<g>
				<path class="st145" d="M9.4,14.3c0-0.1,0-0.2,0.1-0.3c0.1-0.1,0.4-0.1,0.5,0l14.1,14.1c0.1,0.1,0.1,0.4,0,0.5
					c-0.1,0.1-0.4,0.1-0.5,0L9.5,14.5C9.4,14.4,9.4,14.3,9.4,14.3z"/>
			</g>
			<g>
				<path class="st145" d="M5.8,17.8c0-0.1,0-0.2,0.1-0.3c0.1-0.1,0.4-0.1,0.5,0l14.1,14.1c0.1,0.1,0.1,0.4,0,0.5
					c-0.1,0.1-0.4,0.1-0.5,0L5.9,18.1C5.9,18,5.8,17.9,5.8,17.8z"/>
			</g>
			<g>
				<path class="st145" d="M2.1,21.2c0-0.1,0-0.2,0.1-0.3c0.1-0.1,0.4-0.1,0.5,0l14.4,14.4c0.1,0.1,0.1,0.4,0,0.5
					c-0.1,0.1-0.4,0.1-0.5,0L2.2,21.4C2.2,21.4,2.1,21.3,2.1,21.2z"/>
			</g>
			<g>
				<path class="st145" d="M0,26.3l13.2,13.2c0.2,0.2,0.4,0.2,0.5,0c0.1-0.2,0.1-0.4,0-0.5L0,25.2V26.3z"/>
			</g>
			<g>
				<path class="st145" d="M0,33.4l9.7,9.7c0.2,0.2,0.4,0.2,0.5,0c0.1-0.2,0.1-0.4,0-0.5L0,32.3V33.4z"/>
			</g>
			<g>
				<path class="st145" d="M0,40.5l6.4,6.4c0.2,0.2,0.4,0.2,0.6,0c0.2-0.2,0.2-0.4,0-0.6l-7-7V40.5z"/>
			</g>
			<g>
				<path class="st145" d="M0,47.5l2.9,2.9c0.2,0.2,0.4,0.2,0.6,0c0.2-0.2,0.2-0.4,0-0.6L0,46.4V47.5z"/>
			</g>
		</g>
		<g>
			<g>
				<path class="st145" d="M37.4,122.3c0-0.1,0.1-0.3,0.2-0.4L59.4,100c0.2-0.2,0.6-0.2,0.8,0c0.2,0.2,0.2,0.6,0,0.8l-21.9,21.9
					c-0.2,0.2-0.6,0.2-0.8,0C37.4,122.6,37.4,122.4,37.4,122.3z"/>
			</g>
			<g>
				<path class="st145" d="M45,114.6c0-0.1,0.1-0.3,0.2-0.4L67,92.4c0.2-0.2,0.6-0.2,0.8,0c0.2,0.2,0.2,0.6,0,0.8L46,115.1
					c-0.2,0.2-0.6,0.2-0.8,0C45.1,114.9,45,114.8,45,114.6z"/>
			</g>
			<g>
				<path class="st145" d="M48.5,118.2c0-0.1,0.1-0.3,0.2-0.4l21.9-21.9c0.2-0.2,0.6-0.2,0.8,0c0.2,0.2,0.2,0.6,0,0.8l-21.9,21.9
					c-0.2,0.2-0.6,0.2-0.8,0C48.6,118.5,48.5,118.3,48.5,118.2z"/>
			</g>
			<g>
				<path class="st145" d="M52.1,121.7c0-0.1,0.1-0.3,0.2-0.4l21.9-21.9c0.2-0.2,0.6-0.2,0.8,0c0.2,0.2,0.2,0.6,0,0.8L53,122.1
					c-0.2,0.2-0.6,0.2-0.8,0C52.1,122,52.1,121.9,52.1,121.7z"/>
			</g>
			<g>
				<path class="st145" d="M55.9,103.9c0-0.1,0-0.2,0.1-0.3L71.7,88c0.2-0.2,0.4-0.2,0.6,0c0.2,0.2,0.2,0.4,0,0.6l-15.6,15.6
					c-0.2,0.2-0.4,0.2-0.6,0C56,104.1,55.9,104,55.9,103.9z"/>
			</g>
			<g>
				<path class="st145" d="M59.5,107.4c0-0.1,0-0.2,0.1-0.3l15.6-15.6c0.2-0.2,0.4-0.2,0.6,0c0.2,0.2,0.2,0.4,0,0.6l-15.6,15.6
					c-0.2,0.2-0.4,0.2-0.6,0C59.5,107.6,59.5,107.5,59.5,107.4z"/>
			</g>
			<g>
				<path class="st145" d="M63,110.9c0-0.1,0-0.2,0.1-0.3l15.6-15.6c0.2-0.2,0.4-0.2,0.6,0c0.2,0.2,0.2,0.4,0,0.6l-15.6,15.6
					c-0.2,0.2-0.4,0.2-0.6,0C63.1,111.1,63,111,63,110.9z"/>
			</g>
			<g>
				<path class="st145" d="M66.6,114.5c0-0.1,0-0.2,0.1-0.3l15.6-15.6c0.2-0.2,0.4-0.2,0.6,0c0.2,0.2,0.2,0.4,0,0.6l-15.6,15.6
					c-0.2,0.2-0.4,0.2-0.6,0C66.6,114.7,66.6,114.6,66.6,114.5z"/>
			</g>
			<g>
				<path class="st145" d="M63.6,96.2c0-0.1,0-0.2,0.1-0.3l15.6-15.6c0.2-0.2,0.4-0.2,0.6,0c0.2,0.2,0.2,0.4,0,0.6L64.3,96.5
					c-0.2,0.2-0.4,0.2-0.6,0C63.6,96.4,63.6,96.3,63.6,96.2z"/>
			</g>
			<g>
				<path class="st145" d="M67.1,99.8c0-0.1,0-0.2,0.1-0.3l15.6-15.6c0.2-0.2,0.4-0.2,0.6,0c0.2,0.2,0.2,0.4,0,0.6L67.8,100
					c-0.2,0.2-0.4,0.2-0.6,0C67.2,100,67.1,99.9,67.1,99.8z"/>
			</g>
			<g>
				<path class="st145" d="M70.7,103.3c0-0.1,0-0.2,0.1-0.3l15.6-15.6c0.2-0.2,0.4-0.2,0.6,0c0.2,0.2,0.2,0.4,0,0.6l-15.6,15.6
					c-0.2,0.2-0.4,0.2-0.6,0C70.7,103.5,70.7,103.4,70.7,103.3z"/>
			</g>
			<g>
				<path class="st145" d="M74,107c0-0.1,0-0.2,0.1-0.3L90,90.8c0.2-0.2,0.4-0.2,0.6,0c0.2,0.2,0.2,0.4,0,0.6l-15.9,15.9
					c-0.2,0.2-0.4,0.2-0.6,0C74.1,107.2,74,107.1,74,107z"/>
			</g>
			<g>
				<path class="st145" d="M77.6,110.5c0-0.1,0-0.2,0.1-0.3l15.9-15.9c0.2-0.2,0.4-0.2,0.6,0c0.2,0.2,0.2,0.4,0,0.6l-15.9,15.9
					c-0.2,0.2-0.4,0.2-0.6,0C77.6,110.7,77.6,110.6,77.6,110.5z"/>
			</g>
			<g>
				<path class="st145" d="M81.1,114c0-0.1,0-0.2,0.1-0.3l15.9-15.9c0.2-0.2,0.4-0.2,0.6,0c0.2,0.2,0.2,0.4,0,0.6l-15.9,15.9
					c-0.2,0.2-0.4,0.2-0.6,0C81.2,114.3,81.1,114.2,81.1,114z"/>
			</g>
			<g>
				<path class="st145" d="M71.2,88.6c0-0.1,0-0.2,0.1-0.3l15.6-15.6c0.2-0.2,0.4-0.2,0.6,0c0.2,0.2,0.2,0.4,0,0.6L71.9,88.9
					c-0.2,0.2-0.4,0.2-0.6,0C71.3,88.8,71.2,88.7,71.2,88.6z"/>
			</g>
			<g>
				<path class="st145" d="M74.6,92.3c0-0.1,0-0.2,0.1-0.3l15.9-15.9c0.2-0.2,0.4-0.2,0.6,0c0.2,0.2,0.2,0.4,0,0.6L75.3,92.6
					c-0.2,0.2-0.4,0.2-0.6,0C74.7,92.5,74.6,92.4,74.6,92.3z"/>
			</g>
			<g>
				<path class="st145" d="M78.1,95.8c0-0.1,0-0.2,0.1-0.3l15.9-15.9c0.2-0.2,0.4-0.2,0.6,0c0.2,0.2,0.2,0.4,0,0.6L78.9,96.1
					c-0.2,0.2-0.4,0.2-0.6,0C78.2,96,78.1,95.9,78.1,95.8z"/>
			</g>
			<g>
				<path class="st145" d="M81.7,99.3c0-0.1,0-0.2,0.1-0.3l15.9-15.9c0.2-0.2,0.4-0.2,0.6,0c0.2,0.2,0.2,0.4,0,0.6L82.4,99.6
					c-0.2,0.2-0.4,0.2-0.6,0C81.7,99.5,81.7,99.4,81.7,99.3z"/>
			</g>
			<g>
				<path class="st145" d="M85.2,102.9c0-0.1,0-0.2,0.1-0.3l15.9-15.9c0.2-0.2,0.4-0.2,0.6,0c0.2,0.2,0.2,0.4,0,0.6l-15.9,15.9
					c-0.2,0.2-0.4,0.2-0.6,0C85.3,103.1,85.2,103,85.2,102.9z"/>
			</g>
			<g>
				<path class="st145" d="M88.8,106.4c0-0.1,0-0.2,0.1-0.3l15.9-15.9c0.2-0.2,0.4-0.2,0.6,0c0.2,0.2,0.2,0.4,0,0.6l-15.9,15.9
					c-0.2,0.2-0.4,0.2-0.6,0C88.8,106.6,88.8,106.5,88.8,106.4z"/>
			</g>
			<g>
				<path class="st145" d="M92.3,109.9c0-0.1,0-0.2,0.1-0.3l15.9-15.9c0.2-0.2,0.4-0.2,0.6,0c0.2,0.2,0.2,0.4,0,0.6L93,110.2
					c-0.2,0.2-0.4,0.2-0.6,0C92.3,110.2,92.3,110,92.3,109.9z"/>
			</g>
			<g>
				<path class="st145" d="M95.7,113.6c0-0.1,0-0.2,0.1-0.3L112,97.1c0.2-0.2,0.4-0.2,0.6,0c0.2,0.2,0.2,0.4,0,0.6l-16.2,16.2
					c-0.2,0.2-0.4,0.2-0.6,0C95.7,113.8,95.7,113.7,95.7,113.6z"/>
			</g>
			<g>
				<path class="st145" d="M82.5,77.5c0-0.1,0-0.1,0.1-0.2l8.7-8.7c0.1-0.1,0.2-0.1,0.3,0c0.1,0.1,0.1,0.2,0,0.3l-8.7,8.7
					c-0.1,0.1-0.2,0.1-0.3,0C82.5,77.6,82.5,77.6,82.5,77.5z"/>
			</g>
			<g>
				<path class="st145" d="M86,81c0-0.1,0-0.1,0.1-0.2l8.7-8.7c0.1-0.1,0.2-0.1,0.3,0c0.1,0.1,0.1,0.2,0,0.3l-8.7,8.7
					c-0.1,0.1-0.2,0.1-0.3,0C86.1,81.1,86,81.1,86,81z"/>
			</g>
			<g>
				<path class="st145" d="M89.6,84.6c0-0.1,0-0.1,0.1-0.2l8.7-8.7c0.1-0.1,0.2-0.1,0.3,0c0.1,0.1,0.1,0.2,0,0.3L90,84.7
					c-0.1,0.1-0.2,0.1-0.3,0C89.6,84.7,89.6,84.6,89.6,84.6z"/>
			</g>
			<g>
				<path class="st145" d="M93.1,88.1c0-0.1,0-0.1,0.1-0.2l8.7-8.7c0.1-0.1,0.2-0.1,0.3,0c0.1,0.1,0.1,0.2,0,0.3l-8.7,8.7
					c-0.1,0.1-0.2,0.1-0.3,0C93.1,88.2,93.1,88.2,93.1,88.1z"/>
			</g>
			<g>
				<path class="st145" d="M96.6,91.6c0-0.1,0-0.1,0.1-0.2l8.7-8.7c0.1-0.1,0.2-0.1,0.3,0c0.1,0.1,0.1,0.2,0,0.3L97,91.8
					c-0.1,0.1-0.2,0.1-0.3,0C96.7,91.8,96.6,91.7,96.6,91.6z"/>
			</g>
			<g>
				<path class="st145" d="M100.2,95.2c0-0.1,0-0.1,0.1-0.2l8.7-8.7c0.1-0.1,0.2-0.1,0.3,0c0.1,0.1,0.1,0.2,0,0.3l-8.7,8.7
					c-0.1,0.1-0.2,0.1-0.3,0C100.2,95.3,100.2,95.2,100.2,95.2z"/>
			</g>
			<g>
				<path class="st145" d="M99.8,102.5c0-0.1,0-0.2,0.1-0.3L116.1,86c0.2-0.2,0.4-0.2,0.6,0c0.2,0.2,0.2,0.4,0,0.6l-16.2,16.2
					c-0.2,0.2-0.4,0.2-0.6,0C99.8,102.7,99.8,102.6,99.8,102.5z"/>
			</g>
			<g>
				<path class="st145" d="M103.3,106c0-0.1,0-0.2,0.1-0.3l16.2-16.2c0.2-0.2,0.4-0.2,0.6,0c0.2,0.2,0.2,0.4,0,0.6L104,106.3
					c-0.2,0.2-0.4,0.2-0.6,0C103.3,106.2,103.3,106.1,103.3,106z"/>
			</g>
			<g>
				<path class="st145" d="M106.8,109.5c0-0.1,0-0.2,0.1-0.3L123.1,93c0.2-0.2,0.4-0.2,0.6,0c0.2,0.2,0.2,0.4,0,0.6l-16.2,16.2
					c-0.2,0.2-0.4,0.2-0.6,0C106.9,109.7,106.8,109.6,106.8,109.5z"/>
			</g>
			<g>
				<path class="st145" d="M110.4,113.1c0-0.1,0-0.2,0.1-0.3l16.2-16.2c0.2-0.2,0.4-0.2,0.6,0c0.2,0.2,0.2,0.4,0,0.6l-16.2,16.2
					c-0.2,0.2-0.4,0.2-0.6,0C110.4,113.3,110.4,113.2,110.4,113.1z"/>
			</g>
			<g>
				<path class="st145" d="M113.8,116.7c0-0.1,0-0.2,0.1-0.3l16.5-16.5c0.2-0.2,0.4-0.2,0.6,0c0.2,0.2,0.2,0.4,0,0.6l-16.5,16.5
					c-0.2,0.2-0.4,0.2-0.6,0C113.8,117,113.8,116.9,113.8,116.7z"/>
			</g>
			<g>
				<path class="st145" d="M90.1,69.9c0-0.1,0-0.1,0.1-0.2l8.7-8.7c0.1-0.1,0.2-0.1,0.3,0c0.1,0.1,0.1,0.2,0,0.3L90.5,70
					c-0.1,0.1-0.2,0.1-0.3,0C90.2,70,90.1,69.9,90.1,69.9z"/>
			</g>
			<g>
				<path class="st145" d="M93.7,73.4c0-0.1,0-0.1,0.1-0.2l8.7-8.7c0.1-0.1,0.2-0.1,0.3,0c0.1,0.1,0.1,0.2,0,0.3l-8.7,8.7
					c-0.1,0.1-0.2,0.1-0.3,0C93.7,73.5,93.7,73.4,93.7,73.4z"/>
			</g>
			<g>
				<path class="st145" d="M97.2,76.9c0-0.1,0-0.1,0.1-0.2l8.7-8.7c0.1-0.1,0.2-0.1,0.3,0c0.1,0.1,0.1,0.2,0,0.3l-8.7,8.7
					c-0.1,0.1-0.2,0.1-0.3,0C97.2,77,97.2,77,97.2,76.9z"/>
			</g>
			<g>
				<path class="st145" d="M100.7,80.5c0-0.1,0-0.1,0.1-0.2l8.7-8.7c0.1-0.1,0.2-0.1,0.3,0c0.1,0.1,0.1,0.2,0,0.3l-8.7,8.7
					c-0.1,0.1-0.2,0.1-0.3,0C100.8,80.6,100.7,80.5,100.7,80.5z"/>
			</g>
			<g>
				<path class="st145" d="M104.1,84.1c0-0.1,0-0.1,0.1-0.2l9-9c0.1-0.1,0.2-0.1,0.3,0c0.1,0.1,0.1,0.2,0,0.3l-9,9
					c-0.1,0.1-0.2,0.1-0.3,0C104.1,84.3,104.1,84.2,104.1,84.1z"/>
			</g>
			<g>
				<path class="st145" d="M107.7,87.7c0-0.1,0-0.1,0.1-0.2l9-9c0.1-0.1,0.2-0.1,0.3,0c0.1,0.1,0.1,0.2,0,0.3l-9,9
					c-0.1,0.1-0.2,0.1-0.3,0C107.7,87.8,107.7,87.7,107.7,87.7z"/>
			</g>
			<g>
				<path class="st145" d="M111.2,91.2c0-0.1,0-0.1,0.1-0.2l9-9c0.1-0.1,0.2-0.1,0.3,0c0.1,0.1,0.1,0.2,0,0.3l-9,9
					c-0.1,0.1-0.2,0.1-0.3,0C111.2,91.3,111.2,91.3,111.2,91.2z"/>
			</g>
			<g>
				<path class="st145" d="M114.7,94.8c0-0.1,0-0.1,0.1-0.2l9-9c0.1-0.1,0.2-0.1,0.3,0c0.1,0.1,0.1,0.2,0,0.3l-9,9
					c-0.1,0.1-0.2,0.1-0.3,0C114.8,94.9,114.7,94.8,114.7,94.8z"/>
			</g>
			<g>
				<path class="st145" d="M118.3,98.3c0-0.1,0-0.1,0.1-0.2l9-9c0.1-0.1,0.2-0.1,0.3,0c0.1,0.1,0.1,0.2,0,0.3l-9,9
					c-0.1,0.1-0.2,0.1-0.3,0C118.3,98.4,118.3,98.3,118.3,98.3z"/>
			</g>
			<g>
				<path class="st145" d="M121.8,101.8c0-0.1,0-0.1,0.1-0.2l9-9c0.1-0.1,0.2-0.1,0.3,0c0.1,0.1,0.1,0.2,0,0.3l-9,9
					c-0.1,0.1-0.2,0.1-0.3,0C121.8,101.9,121.8,101.9,121.8,101.8z"/>
			</g>
			<g>
				<path class="st145" d="M125.3,105.4c0-0.1,0-0.1,0.1-0.2l9-9c0.1-0.1,0.2-0.1,0.3,0c0.1,0.1,0.1,0.2,0,0.3l-9,9
					c-0.1,0.1-0.2,0.1-0.3,0C125.4,105.5,125.3,105.4,125.3,105.4z"/>
			</g>
			<g>
				<path class="st145" d="M128.9,108.9c0-0.1,0-0.1,0.1-0.2l9-9c0.1-0.1,0.2-0.1,0.3,0c0.1,0.1,0.1,0.2,0,0.3l-9,9
					c-0.1,0.1-0.2,0.1-0.3,0C128.9,109,128.9,109,128.9,108.9z"/>
			</g>
			<g>
				<path class="st145" d="M101.3,65.7c0-0.1,0-0.1,0.1-0.2l8.7-8.7c0.1-0.1,0.2-0.1,0.3,0c0.1,0.1,0.1,0.2,0,0.3l-8.7,8.7
					c-0.1,0.1-0.2,0.1-0.3,0C101.3,65.9,101.3,65.8,101.3,65.7z"/>
			</g>
			<g>
				<path class="st145" d="M104.7,69.4c0-0.1,0-0.1,0.1-0.2l9-9c0.1-0.1,0.2-0.1,0.3,0c0.1,0.1,0.1,0.2,0,0.3l-9,9
					c-0.1,0.1-0.2,0.1-0.3,0C104.7,69.6,104.7,69.5,104.7,69.4z"/>
			</g>
			<g>
				<path class="st145" d="M108.2,73c0-0.1,0-0.1,0.1-0.2l9-9c0.1-0.1,0.2-0.1,0.3,0c0.1,0.1,0.1,0.2,0,0.3l-9,9
					c-0.1,0.1-0.2,0.1-0.3,0C108.3,73.1,108.2,73,108.2,73z"/>
			</g>
			<g>
				<path class="st145" d="M111.8,76.5c0-0.1,0-0.1,0.1-0.2l9-9c0.1-0.1,0.2-0.1,0.3,0c0.1,0.1,0.1,0.2,0,0.3l-9,9
					c-0.1,0.1-0.2,0.1-0.3,0C111.8,76.6,111.8,76.6,111.8,76.5z"/>
			</g>
			<g>
				<path class="st145" d="M115.3,80c0-0.1,0-0.1,0.1-0.2l9-9c0.1-0.1,0.2-0.1,0.3,0c0.1,0.1,0.1,0.2,0,0.3l-9,9
					c-0.1,0.1-0.2,0.1-0.3,0C115.3,80.2,115.3,80.1,115.3,80z"/>
			</g>
			<g>
				<path class="st145" d="M118.8,83.6c0-0.1,0-0.1,0.1-0.2l9-9c0.1-0.1,0.2-0.1,0.3,0c0.1,0.1,0.1,0.2,0,0.3l-9,9
					c-0.1,0.1-0.2,0.1-0.3,0C118.9,83.7,118.8,83.6,118.8,83.6z"/>
			</g>
			<g>
				<path class="st145" d="M122.4,87.1c0-0.1,0-0.1,0.1-0.2l9-9c0.1-0.1,0.2-0.1,0.3,0c0.1,0.1,0.1,0.2,0,0.3l-9,9
					c-0.1,0.1-0.2,0.1-0.3,0C122.4,87.2,122.4,87.2,122.4,87.1z"/>
			</g>
			<g>
				<path class="st145" d="M125.9,90.6c0-0.1,0-0.1,0.1-0.2l9-9c0.1-0.1,0.2-0.1,0.3,0c0.1,0.1,0.1,0.2,0,0.3l-9,9
					c-0.1,0.1-0.2,0.1-0.3,0C125.9,90.8,125.9,90.7,125.9,90.6z"/>
			</g>
			<g>
				<path class="st145" d="M129.4,94.2c0-0.1,0-0.1,0.1-0.2l9-9c0.1-0.1,0.2-0.1,0.3,0c0.1,0.1,0.1,0.2,0,0.3l-9,9
					c-0.1,0.1-0.2,0.1-0.3,0C129.5,94.3,129.4,94.2,129.4,94.2z"/>
			</g>
			<g>
				<path class="st145" d="M133,97.7c0-0.1,0-0.1,0.1-0.2l9-9c0.1-0.1,0.2-0.1,0.3,0c0.1,0.1,0.1,0.2,0,0.3l-9,9
					c-0.1,0.1-0.2,0.1-0.3,0C133,97.8,133,97.8,133,97.7z"/>
			</g>
			<g>
				<path class="st145" d="M136.4,101.4c0-0.1,0-0.1,0.1-0.2l9.3-9.3c0.1-0.1,0.2-0.1,0.3,0c0.1,0.1,0.1,0.2,0,0.3l-9.3,9.3
					c-0.1,0.1-0.2,0.1-0.3,0C136.4,101.5,136.4,101.5,136.4,101.4z"/>
			</g>
			<g>
				<path class="st145" d="M139.9,104.9c0-0.1,0-0.1,0.1-0.2l9.3-9.3c0.1-0.1,0.2-0.1,0.3,0c0.1,0.1,0.1,0.2,0,0.3l-9.3,9.3
					c-0.1,0.1-0.2,0.1-0.3,0C139.9,105.1,139.9,105,139.9,104.9z"/>
			</g>
			<g>
				<path class="st145" d="M143.4,108.5c0-0.1,0-0.1,0.1-0.2l9.3-9.3c0.1-0.1,0.2-0.1,0.3,0c0.1,0.1,0.1,0.2,0,0.3l-9.3,9.3
					c-0.1,0.1-0.2,0.1-0.3,0C143.5,108.6,143.4,108.5,143.4,108.5z"/>
			</g>
			<g>
				<path class="st145" d="M147.5,97.3c0-0.1,0-0.1,0.1-0.2l9.3-9.3c0.1-0.1,0.2-0.1,0.3,0c0.1,0.1,0.1,0.2,0,0.3l-9.3,9.3
					c-0.1,0.1-0.2,0.1-0.3,0C147.6,97.4,147.5,97.4,147.5,97.3z"/>
			</g>
			<g>
				<path class="st145" d="M150.9,101c0-0.1,0-0.1,0.1-0.2l9.6-9.6c0.1-0.1,0.3-0.1,0.4,0c0.1,0.1,0.1,0.3,0,0.4l-9.6,9.6
					c-0.1,0.1-0.3,0.1-0.4,0C150.9,101.1,150.9,101,150.9,101z"/>
			</g>
			<g>
				<path class="st145" d="M154.4,104.5c0-0.1,0-0.1,0.1-0.2l9.6-9.6c0.1-0.1,0.3-0.1,0.4,0c0.1,0.1,0.1,0.3,0,0.4l-9.6,9.6
					c-0.1,0.1-0.3,0.1-0.4,0C154.5,104.6,154.4,104.6,154.4,104.5z"/>
			</g>
			<g>
				<path class="st145" d="M158,108.1c0-0.1,0-0.1,0.1-0.2l9.6-9.6c0.1-0.1,0.3-0.1,0.4,0c0.1,0.1,0.1,0.3,0,0.4l-9.6,9.6
					c-0.1,0.1-0.3,0.1-0.4,0C158,108.2,158,108.1,158,108.1z"/>
			</g>
			<g>
				<path class="st145" d="M156.6,116.2c0-0.1,0-0.3,0.1-0.3L175.7,97c0.2-0.2,0.5-0.2,0.7,0c0.2,0.2,0.2,0.5,0,0.7l-18.9,18.9
					c-0.2,0.2-0.5,0.2-0.7,0C156.7,116.5,156.6,116.4,156.6,116.2z"/>
			</g>
			<g>
				<path class="st145" d="M168.4,104.7c0-0.1,0-0.1,0.1-0.2l11.1-11.1c0.1-0.1,0.3-0.1,0.4,0c0.1,0.1,0.1,0.3,0,0.4l-11.1,11.1
					c-0.1,0.1-0.3,0.1-0.4,0C168.4,104.8,168.4,104.8,168.4,104.7z"/>
			</g>
			<g>
				<path class="st145" d="M171.7,108.4c0-0.1,0-0.2,0.1-0.2l11.4-11.4c0.1-0.1,0.3-0.1,0.4,0c0.1,0.1,0.1,0.3,0,0.4l-11.4,11.4
					c-0.1,0.1-0.3,0.1-0.4,0C171.8,108.5,171.7,108.5,171.7,108.4z"/>
			</g>
			<g>
				<path class="st145" d="M175.9,97.2c0-0.1,0-0.2,0.1-0.2l11.4-11.4c0.1-0.1,0.3-0.1,0.4,0c0.1,0.1,0.1,0.3,0,0.4l-11.4,11.4
					c-0.1,0.1-0.3,0.1-0.4,0C175.9,97.4,175.9,97.3,175.9,97.2z"/>
			</g>
			<g>
				<path class="st145" d="M179.4,100.7c0-0.1,0-0.2,0.1-0.2l11.4-11.4c0.1-0.1,0.3-0.1,0.4,0c0.1,0.1,0.1,0.3,0,0.4L179.9,101
					c-0.1,0.1-0.3,0.1-0.4,0C179.4,100.9,179.4,100.8,179.4,100.7z"/>
			</g>
			<g>
				<path class="st145" d="M182.9,104.3c0-0.1,0-0.2,0.1-0.2l11.4-11.4c0.1-0.1,0.3-0.1,0.4,0c0.1,0.1,0.1,0.3,0,0.4l-11.4,11.4
					c-0.1,0.1-0.3,0.1-0.4,0C183,104.4,182.9,104.4,182.9,104.3z"/>
			</g>
			<g>
				<path class="st145" d="M186.3,108c0-0.1,0-0.2,0.1-0.2l11.7-11.7c0.1-0.1,0.3-0.1,0.4,0c0.1,0.1,0.1,0.3,0,0.4l-11.7,11.7
					c-0.1,0.1-0.3,0.1-0.4,0C186.3,108.1,186.3,108,186.3,108z"/>
			</g>
			<g>
				<path class="st145" d="M189.8,111.5c0-0.1,0-0.2,0.1-0.2l11.7-11.7c0.1-0.1,0.3-0.1,0.4,0s0.1,0.3,0,0.4l-11.7,11.7
					c-0.1,0.1-0.3,0.1-0.4,0C189.9,111.7,189.8,111.6,189.8,111.5z"/>
			</g>
			<g>
				<path class="st145" d="M183.5,89.6c0-0.1,0-0.2,0.1-0.2L195,78c0.1-0.1,0.3-0.1,0.4,0c0.1,0.1,0.1,0.3,0,0.4L184,89.8
					c-0.1,0.1-0.3,0.1-0.4,0C183.5,89.7,183.5,89.6,183.5,89.6z"/>
			</g>
			<g>
				<path class="st145" d="M187,93.1c0-0.1,0-0.2,0.1-0.2l11.4-11.4c0.1-0.1,0.3-0.1,0.4,0c0.1,0.1,0.1,0.3,0,0.4l-11.4,11.4
					c-0.1,0.1-0.3,0.1-0.4,0C187.1,93.3,187,93.2,187,93.1z"/>
			</g>
			<g>
				<path class="st145" d="M190.4,96.8c0-0.1,0-0.2,0.1-0.2l11.7-11.7c0.1-0.1,0.3-0.1,0.4,0c0.1,0.1,0.1,0.3,0,0.4L190.9,97
					c-0.1,0.1-0.3,0.1-0.4,0C190.4,96.9,190.4,96.9,190.4,96.8z"/>
			</g>
			<g>
				<path class="st145" d="M193.9,100.3c0-0.1,0-0.2,0.1-0.2l11.7-11.7c0.1-0.1,0.3-0.1,0.4,0s0.1,0.3,0,0.4l-11.7,11.7
					c-0.1,0.1-0.3,0.1-0.4,0C194,100.5,193.9,100.4,193.9,100.3z"/>
			</g>
			<g>
				<path class="st145" d="M197.3,104c0-0.1,0-0.2,0.1-0.2l12-12c0.1-0.1,0.3-0.1,0.4,0c0.1,0.1,0.1,0.3,0,0.4l-12,12
					c-0.1,0.1-0.3,0.1-0.4,0C197.3,104.2,197.3,104.1,197.3,104z"/>
			</g>
			<g>
				<path class="st145" d="M200.7,107.7c0-0.1,0-0.2,0.1-0.2l12.3-12.3c0.1-0.1,0.3-0.1,0.5,0c0.1,0.1,0.1,0.3,0,0.5l-12.3,12.3
					c-0.1,0.1-0.3,0.1-0.5,0C200.7,107.9,200.7,107.8,200.7,107.7z"/>
			</g>
			<g>
				<path class="st145" d="M204.2,111.2c0-0.1,0-0.2,0.1-0.2l12.3-12.3c0.1-0.1,0.3-0.1,0.5,0c0.1,0.1,0.1,0.3,0,0.5l-12.3,12.3
					c-0.1,0.1-0.3,0.1-0.5,0C204.3,111.4,204.2,111.3,204.2,111.2z"/>
			</g>
			<g>
				<path class="st145" d="M191,82.1c0-0.1,0-0.2,0.1-0.2l11.7-11.7c0.1-0.1,0.3-0.1,0.4,0s0.1,0.3,0,0.4l-11.7,11.7
					c-0.1,0.1-0.3,0.1-0.4,0C191,82.2,191,82.2,191,82.1z"/>
			</g>
			<g>
				<path class="st145" d="M194.5,85.6c0-0.1,0-0.2,0.1-0.2l11.7-11.7c0.1-0.1,0.3-0.1,0.4,0c0.1,0.1,0.1,0.3,0,0.4L195,85.8
					c-0.1,0.1-0.3,0.1-0.4,0C194.5,85.8,194.5,85.7,194.5,85.6z"/>
			</g>
			<g>
				<path class="st145" d="M197.9,89.3c0-0.1,0-0.2,0.1-0.2l12-12c0.1-0.1,0.3-0.1,0.4,0c0.1,0.1,0.1,0.3,0,0.4l-12,12
					c-0.1,0.1-0.3,0.1-0.4,0C197.9,89.5,197.9,89.4,197.9,89.3z"/>
			</g>
			<g>
				<path class="st145" d="M201.3,93c0-0.1,0-0.2,0.1-0.2l12.3-12.3c0.1-0.1,0.3-0.1,0.5,0c0.1,0.1,0.1,0.3,0,0.5l-12.3,12.3
					c-0.1,0.1-0.3,0.1-0.5,0C201.3,93.1,201.3,93.1,201.3,93z"/>
			</g>
			<g>
				<path class="st145" d="M204.8,96.5c0-0.1,0-0.2,0.1-0.2L217.2,84c0.1-0.1,0.3-0.1,0.5,0c0.1,0.1,0.1,0.3,0,0.5l-12.3,12.3
					c-0.1,0.1-0.3,0.1-0.5,0C204.8,96.7,204.8,96.6,204.8,96.5z"/>
			</g>
			<g>
				<path class="st145" d="M208.3,100.1c0-0.1,0-0.2,0.1-0.2l12.3-12.3c0.1-0.1,0.3-0.1,0.5,0c0.1,0.1,0.1,0.3,0,0.5l-12.3,12.3
					c-0.1,0.1-0.3,0.1-0.5,0C208.4,100.2,208.3,100.1,208.3,100.1z"/>
			</g>
			<g>
				<path class="st145" d="M211.7,103.7c0-0.1,0-0.2,0.1-0.2l12.6-12.6c0.1-0.1,0.3-0.1,0.5,0c0.1,0.1,0.1,0.3,0,0.5L212.3,104
					c-0.1,0.1-0.3,0.1-0.5,0C211.7,103.9,211.7,103.8,211.7,103.7z"/>
			</g>
			<g>
				<path class="st145" d="M215.3,107.3c0-0.1,0-0.2,0.1-0.2l12.6-12.6c0.1-0.1,0.3-0.1,0.5,0c0.1,0.1,0.1,0.3,0,0.5l-12.6,12.6
					c-0.1,0.1-0.3,0.1-0.5,0C215.3,107.4,215.3,107.4,215.3,107.3z"/>
			</g>
			<g>
				<path class="st145" d="M218.6,111c0-0.1,0-0.2,0.1-0.2l12.9-12.9c0.1-0.1,0.3-0.1,0.5,0c0.1,0.1,0.1,0.3,0,0.5l-12.9,12.9
					c-0.1,0.1-0.3,0.1-0.5,0C218.7,111.1,218.6,111,218.6,111z"/>
			</g>
			<g>
				<path class="st145" d="M198.6,74.4c0-0.1,0-0.2,0.1-0.2l11.7-11.7c0.1-0.1,0.3-0.1,0.4,0c0.1,0.1,0.1,0.3,0,0.4l-11.7,11.7
					c-0.1,0.1-0.3,0.1-0.4,0C198.6,74.6,198.6,74.5,198.6,74.4z"/>
			</g>
			<g>
				<path class="st145" d="M202,78.1c0-0.1,0-0.2,0.1-0.2l12-12c0.1-0.1,0.3-0.1,0.4,0c0.1,0.1,0.1,0.3,0,0.4l-12,12
					c-0.1,0.1-0.3,0.1-0.4,0C202,78.3,202,78.2,202,78.1z"/>
			</g>
			<g>
				<path class="st145" d="M205.4,81.8c0-0.1,0-0.2,0.1-0.2l12.3-12.3c0.1-0.1,0.3-0.1,0.5,0c0.1,0.1,0.1,0.3,0,0.5L205.9,82
					c-0.1,0.1-0.3,0.1-0.5,0C205.4,82,205.4,81.9,205.4,81.8z"/>
			</g>
			<g>
				<path class="st145" d="M208.9,85.3c0-0.1,0-0.2,0.1-0.2l12.3-12.3c0.1-0.1,0.3-0.1,0.5,0c0.1,0.1,0.1,0.3,0,0.5l-12.3,12.3
					c-0.1,0.1-0.3,0.1-0.5,0C208.9,85.5,208.9,85.4,208.9,85.3z"/>
			</g>
			<g>
				<path class="st145" d="M212.4,88.9c0-0.1,0-0.2,0.1-0.2l12.3-12.3c0.1-0.1,0.3-0.1,0.5,0c0.1,0.1,0.1,0.3,0,0.5L213,89.1
					c-0.1,0.1-0.3,0.1-0.5,0C212.5,89,212.4,89,212.4,88.9z"/>
			</g>
			<g>
				<path class="st145" d="M215.8,92.6c0-0.1,0-0.2,0.1-0.2l12.6-12.6c0.1-0.1,0.3-0.1,0.5,0c0.1,0.1,0.1,0.3,0,0.5l-12.6,12.6
					c-0.1,0.1-0.3,0.1-0.5,0C215.9,92.7,215.8,92.6,215.8,92.6z"/>
			</g>
			<g>
				<path class="st145" d="M219.4,96.1c0-0.1,0-0.2,0.1-0.2L232,83.3c0.1-0.1,0.3-0.1,0.5,0c0.1,0.1,0.1,0.3,0,0.5l-12.6,12.6
					c-0.1,0.1-0.3,0.1-0.5,0C219.4,96.3,219.4,96.2,219.4,96.1z"/>
			</g>
			<g>
				<path class="st145" d="M222.7,99.8c0-0.1,0-0.2,0.1-0.2l12.9-12.9c0.1-0.1,0.3-0.1,0.5,0s0.1,0.3,0,0.5L223.3,100
					c-0.1,0.1-0.3,0.1-0.5,0C222.8,100,222.7,99.9,222.7,99.8z"/>
			</g>
			<g>
				<path class="st145" d="M226.1,103.5c0-0.1,0-0.2,0.1-0.2L239.4,90c0.1-0.1,0.4-0.1,0.5,0c0.1,0.1,0.1,0.4,0,0.5l-13.2,13.2
					c-0.1,0.1-0.4,0.1-0.5,0C226.1,103.6,226.1,103.6,226.1,103.5z"/>
			</g>
			<g>
				<path class="st145" d="M229.6,107c0-0.1,0-0.2,0.1-0.2l13.2-13.2c0.1-0.1,0.4-0.1,0.5,0c0.1,0.1,0.1,0.4,0,0.5l-13.2,13.2
					c-0.1,0.1-0.4,0.1-0.5,0C229.7,107.2,229.6,107.1,229.6,107z"/>
			</g>
			<g>
				<path class="st145" d="M233,110.7c0-0.1,0-0.2,0.1-0.2L246.6,97c0.1-0.1,0.4-0.1,0.5,0c0.1,0.1,0.1,0.4,0,0.5l-13.5,13.5
					c-0.1,0.1-0.4,0.1-0.5,0C233.1,110.9,233,110.8,233,110.7z"/>
			</g>
			<g>
				<path class="st145" d="M205.9,67.1c0-0.1,0-0.2,0.1-0.2l12.3-12.3c0.1-0.1,0.3-0.1,0.5,0c0.1,0.1,0.1,0.3,0,0.5l-12.3,12.3
					c-0.1,0.1-0.3,0.1-0.5,0C206,67.3,205.9,67.2,205.9,67.1z"/>
			</g>
			<g>
				<path class="st145" d="M209.5,70.6c0-0.1,0-0.2,0.1-0.2l12.3-12.3c0.1-0.1,0.3-0.1,0.5,0c0.1,0.1,0.1,0.3,0,0.5L210,70.9
					c-0.1,0.1-0.3,0.1-0.5,0C209.5,70.8,209.5,70.7,209.5,70.6z"/>
			</g>
			<g>
				<path class="st145" d="M213,74.2c0-0.1,0-0.2,0.1-0.2l12.3-12.3c0.1-0.1,0.3-0.1,0.5,0c0.1,0.1,0.1,0.3,0,0.5l-12.3,12.3
					c-0.1,0.1-0.3,0.1-0.5,0C213,74.3,213,74.2,213,74.2z"/>
			</g>
			<g>
				<path class="st145" d="M216.4,77.8c0-0.1,0-0.2,0.1-0.2L229.1,65c0.1-0.1,0.3-0.1,0.5,0c0.1,0.1,0.1,0.3,0,0.5L217,78.1
					c-0.1,0.1-0.3,0.1-0.5,0C216.4,78,216.4,77.9,216.4,77.8z"/>
			</g>
			<g>
				<path class="st145" d="M219.9,81.4c0-0.1,0-0.2,0.1-0.2l12.6-12.6c0.1-0.1,0.3-0.1,0.5,0c0.1,0.1,0.1,0.3,0,0.5l-12.6,12.6
					c-0.1,0.1-0.3,0.1-0.5,0C220,81.6,219.9,81.5,219.9,81.4z"/>
			</g>
			<g>
				<path class="st145" d="M223.3,85.1c0-0.1,0-0.2,0.1-0.2l12.9-12.9c0.1-0.1,0.3-0.1,0.5,0c0.1,0.1,0.1,0.3,0,0.5l-12.9,12.9
					c-0.1,0.1-0.3,0.1-0.5,0C223.3,85.2,223.3,85.2,223.3,85.1z"/>
			</g>
			<g>
				<path class="st145" d="M226.8,88.6c0-0.1,0-0.2,0.1-0.2l12.9-12.9c0.1-0.1,0.3-0.1,0.5,0c0.1,0.1,0.1,0.3,0,0.5l-12.9,12.9
					c-0.1,0.1-0.3,0.1-0.5,0C226.9,88.8,226.8,88.7,226.8,88.6z"/>
			</g>
			<g>
				<path class="st145" d="M230.2,92.3c0-0.1,0-0.2,0.1-0.2l13.2-13.2c0.1-0.1,0.4-0.1,0.5,0c0.1,0.1,0.1,0.4,0,0.5l-13.2,13.2
					c-0.1,0.1-0.4,0.1-0.5,0C230.3,92.5,230.2,92.4,230.2,92.3z"/>
			</g>
			<g>
				<path class="st145" d="M233.8,95.8c0-0.1,0-0.2,0.1-0.2L247,82.4c0.1-0.1,0.4-0.1,0.5,0c0.1,0.1,0.1,0.4,0,0.5l-13.2,13.2
					c-0.1,0.1-0.4,0.1-0.5,0C233.8,96,233.8,95.9,233.8,95.8z"/>
			</g>
			<g>
				<path class="st145" d="M237.1,99.5c0-0.1,0-0.2,0.1-0.2l13.5-13.5c0.1-0.1,0.4-0.1,0.5,0c0.1,0.1,0.1,0.4,0,0.5l-13.5,13.5
					c-0.1,0.1-0.4,0.1-0.5,0C237.2,99.7,237.1,99.6,237.1,99.5z"/>
			</g>
			<g>
				<path class="st145" d="M240.5,103.2c0-0.1,0-0.2,0.1-0.3l13.8-13.8c0.1-0.1,0.4-0.1,0.5,0c0.1,0.1,0.1,0.4,0,0.5l-13.8,13.8
					c-0.1,0.1-0.4,0.1-0.5,0C240.5,103.4,240.5,103.3,240.5,103.2z"/>
			</g>
			<g>
				<path class="st145" d="M244,106.7c0-0.1,0-0.2,0.1-0.3l13.8-13.8c0.1-0.1,0.4-0.1,0.5,0c0.1,0.1,0.1,0.4,0,0.5L244.7,107
					c-0.1,0.1-0.4,0.1-0.5,0C244.1,106.9,244,106.8,244,106.7z"/>
			</g>
			<g>
				<path class="st145" d="M247.4,110.4c0-0.1,0-0.2,0.1-0.3l14.1-14.1c0.1-0.1,0.4-0.1,0.5,0c0.1,0.1,0.1,0.4,0,0.5l-14.1,14.1
					c-0.1,0.1-0.4,0.1-0.5,0C247.5,110.6,247.4,110.5,247.4,110.4z"/>
			</g>
			<g>
				<path class="st145" d="M251,114c0-0.1,0-0.2,0.1-0.3l14.1-14.1c0.1-0.1,0.4-0.1,0.5,0c0.1,0.1,0.1,0.4,0,0.5l-14.1,14.1
					c-0.1,0.1-0.4,0.1-0.5,0C251,114.1,251,114,251,114z"/>
			</g>
			<g>
				<path class="st145" d="M217.1,63c0-0.1,0-0.2,0.1-0.2l12.3-12.3c0.1-0.1,0.3-0.1,0.5,0c0.1,0.1,0.1,0.3,0,0.5l-12.3,12.3
					c-0.1,0.1-0.3,0.1-0.5,0C217.1,63.2,217.1,63.1,217.1,63z"/>
			</g>
			<g>
				<path class="st145" d="M220.5,66.7c0-0.1,0-0.2,0.1-0.2l12.6-12.6c0.1-0.1,0.3-0.1,0.5,0c0.1,0.1,0.1,0.3,0,0.5l-12.6,12.6
					c-0.1,0.1-0.3,0.1-0.5,0C220.5,66.8,220.5,66.8,220.5,66.7z"/>
			</g>
			<g>
				<path class="st145" d="M224,70.2c0-0.1,0-0.2,0.1-0.2l12.6-12.6c0.1-0.1,0.3-0.1,0.5,0c0.1,0.1,0.1,0.3,0,0.5l-12.6,12.6
					c-0.1,0.1-0.3,0.1-0.5,0C224.1,70.4,224,70.3,224,70.2z"/>
			</g>
			<g>
				<path class="st145" d="M227.4,73.9c0-0.1,0-0.2,0.1-0.2l12.9-12.9c0.1-0.1,0.3-0.1,0.5,0c0.1,0.1,0.1,0.3,0,0.5L228,74.1
					c-0.1,0.1-0.3,0.1-0.5,0C227.4,74.1,227.4,74,227.4,73.9z"/>
			</g>
			<g>
				<path class="st145" d="M230.8,77.6c0-0.1,0-0.2,0.1-0.2l13.2-13.2c0.1-0.1,0.4-0.1,0.5,0c0.1,0.1,0.1,0.4,0,0.5l-13.2,13.2
					c-0.1,0.1-0.4,0.1-0.5,0C230.8,77.8,230.8,77.7,230.8,77.6z"/>
			</g>
			<g>
				<path class="st145" d="M234.3,81.1c0-0.1,0-0.2,0.1-0.2l13.2-13.2c0.1-0.1,0.4-0.1,0.5,0c0.1,0.1,0.1,0.4,0,0.5l-13.2,13.2
					c-0.1,0.1-0.4,0.1-0.5,0C234.4,81.3,234.3,81.2,234.3,81.1z"/>
			</g>
			<g>
				<path class="st145" d="M237.7,84.8c0-0.1,0-0.2,0.1-0.2l13.5-13.5c0.1-0.1,0.4-0.1,0.5,0c0.1,0.1,0.1,0.4,0,0.5L238.3,85
					c-0.1,0.1-0.4,0.1-0.5,0C237.7,85,237.7,84.9,237.7,84.8z"/>
			</g>
			<g>
				<path class="st145" d="M241.1,88.5c0-0.1,0-0.2,0.1-0.3L255,74.4c0.1-0.1,0.4-0.1,0.5,0c0.1,0.1,0.1,0.4,0,0.5l-13.8,13.8
					c-0.1,0.1-0.4,0.1-0.5,0C241.1,88.7,241.1,88.6,241.1,88.5z"/>
			</g>
			<g>
				<path class="st145" d="M244.6,92c0-0.1,0-0.2,0.1-0.3L258.5,78c0.1-0.1,0.4-0.1,0.5,0c0.1,0.1,0.1,0.4,0,0.5l-13.8,13.8
					c-0.1,0.1-0.4,0.1-0.5,0C244.6,92.2,244.6,92.1,244.6,92z"/>
			</g>
			<g>
				<path class="st145" d="M248.2,95.6c0-0.1,0-0.2,0.1-0.3L262,81.5c0.1-0.1,0.4-0.1,0.5,0c0.1,0.1,0.1,0.4,0,0.5l-13.8,13.8
					c-0.1,0.1-0.4,0.1-0.5,0C248.2,95.7,248.2,95.6,248.2,95.6z"/>
			</g>
			<g>
				<path class="st145" d="M251.5,99.2c0-0.1,0-0.2,0.1-0.3l14.1-14.1c0.1-0.1,0.4-0.1,0.5,0c0.1,0.1,0.1,0.4,0,0.5l-14.1,14.1
					c-0.1,0.1-0.4,0.1-0.5,0C251.6,99.4,251.5,99.3,251.5,99.2z"/>
			</g>
			<g>
				<path class="st145" d="M255.1,102.8c0-0.1,0-0.2,0.1-0.3l14.1-14.1c0.1-0.1,0.4-0.1,0.5,0c0.1,0.1,0.1,0.4,0,0.5L255.7,103
					c-0.1,0.1-0.4,0.1-0.5,0C255.1,103,255.1,102.9,255.1,102.8z"/>
			</g>
			<g>
				<path class="st145" d="M270,95.8v-1.1l-11.6,11.6c-0.1,0.1-0.1,0.2-0.1,0.3c0,0.1,0,0.2,0.1,0.3c0.1,0.2,0.4,0.2,0.5,0L270,95.8
					z"/>
			</g>
			<g>
				<path class="st145" d="M224.6,55.5c0-0.1,0-0.2,0.1-0.2l12.6-12.6c0.1-0.1,0.3-0.1,0.5,0c0.1,0.1,0.1,0.3,0,0.5l-12.6,12.6
					c-0.1,0.1-0.3,0.1-0.5,0C224.6,55.7,224.6,55.6,224.6,55.5z"/>
			</g>
			<g>
				<path class="st145" d="M228,59.2c0-0.1,0-0.2,0.1-0.2L241,46.1c0.1-0.1,0.3-0.1,0.5,0c0.1,0.1,0.1,0.3,0,0.5l-12.9,12.9
					c-0.1,0.1-0.3,0.1-0.5,0C228,59.4,228,59.3,228,59.2z"/>
			</g>
			<g>
				<path class="st145" d="M231.5,62.7c0-0.1,0-0.2,0.1-0.2l12.9-12.9c0.1-0.1,0.3-0.1,0.5,0c0.1,0.1,0.1,0.3,0,0.5L232.1,63
					c-0.1,0.1-0.3,0.1-0.5,0C231.5,62.9,231.5,62.8,231.5,62.7z"/>
			</g>
			<g>
				<path class="st145" d="M234.9,66.4c0-0.1,0-0.2,0.1-0.2L248.2,53c0.1-0.1,0.4-0.1,0.5,0c0.1,0.1,0.1,0.4,0,0.5l-13.2,13.2
					c-0.1,0.1-0.4,0.1-0.5,0C234.9,66.6,234.9,66.5,234.9,66.4z"/>
			</g>
			<g>
				<path class="st145" d="M238.4,69.9c0-0.1,0-0.2,0.1-0.2l13.2-13.2c0.1-0.1,0.4-0.1,0.5,0c0.1,0.1,0.1,0.4,0,0.5L239,70.2
					c-0.1,0.1-0.4,0.1-0.5,0C238.5,70.1,238.4,70,238.4,69.9z"/>
			</g>
			<g>
				<path class="st145" d="M241.8,73.6c0-0.1,0-0.2,0.1-0.2l13.5-13.5c0.1-0.1,0.4-0.1,0.5,0c0.1,0.1,0.1,0.4,0,0.5l-13.5,13.5
					c-0.1,0.1-0.4,0.1-0.5,0C241.8,73.8,241.8,73.7,241.8,73.6z"/>
			</g>
			<g>
				<path class="st145" d="M245.2,77.3c0-0.1,0-0.2,0.1-0.3l13.8-13.8c0.1-0.1,0.4-0.1,0.5,0c0.1,0.1,0.1,0.4,0,0.5l-13.8,13.8
					c-0.1,0.1-0.4,0.1-0.5,0C245.2,77.5,245.2,77.4,245.2,77.3z"/>
			</g>
			<g>
				<path class="st145" d="M248.7,80.8c0-0.1,0-0.2,0.1-0.3l13.8-13.8c0.1-0.1,0.4-0.1,0.5,0c0.1,0.1,0.1,0.4,0,0.5l-13.8,13.8
					c-0.1,0.1-0.4,0.1-0.5,0C248.8,81,248.7,80.9,248.7,80.8z"/>
			</g>
			<g>
				<path class="st145" d="M252.1,84.5c0-0.1,0-0.2,0.1-0.3l14.1-14.1c0.1-0.1,0.4-0.1,0.5,0c0.1,0.1,0.1,0.4,0,0.5l-14.1,14.1
					c-0.1,0.1-0.4,0.1-0.5,0C252.1,84.7,252.1,84.6,252.1,84.5z"/>
			</g>
			<g>
				<path class="st145" d="M270,74.6v-0.9c-0.1,0-0.1,0-0.2,0.1l-14.1,14.1c-0.1,0.1-0.1,0.2-0.1,0.3c0,0.1,0,0.2,0.1,0.3
					c0.1,0.1,0.4,0.1,0.5,0L270,74.6z"/>
			</g>
			<g>
				<path class="st145" d="M270,81.7v-1.1l-10.9,10.9c-0.1,0.1-0.1,0.2-0.1,0.3c0,0.1,0,0.2,0.1,0.3c0.1,0.1,0.4,0.1,0.5,0L270,81.7
					z"/>
			</g>
			<g>
				<path class="st145" d="M270,88.8v-1.1l-7.5,7.5c-0.1,0.1-0.1,0.2-0.1,0.3c0,0.1,0,0.2,0.1,0.3c0.1,0.2,0.4,0.2,0.5,0L270,88.8z"
					/>
			</g>
			<g>
				<path class="st145" d="M270,95.8v-1.1l-4,4c-0.1,0.1-0.1,0.2-0.1,0.3c0,0.1,0,0.2,0.1,0.3c0.2,0.2,0.4,0.2,0.5,0L270,95.8z"/>
			</g>
			<g>
				<path class="st145" d="M239,55.2c0-0.1,0-0.2,0.1-0.2l13.2-13.2c0.1-0.1,0.4-0.1,0.5,0c0.1,0.1,0.1,0.4,0,0.5l-13.2,13.2
					c-0.1,0.1-0.4,0.1-0.5,0C239,55.4,239,55.3,239,55.2z"/>
			</g>
			<g>
				<path class="st145" d="M242.4,58.9c0-0.1,0-0.2,0.1-0.2L256,45.2c0.1-0.1,0.4-0.1,0.5,0c0.1,0.1,0.1,0.4,0,0.5L243,59.2
					c-0.1,0.1-0.4,0.1-0.5,0C242.4,59.1,242.4,59,242.4,58.9z"/>
			</g>
			<g>
				<path class="st145" d="M245.8,62.6c0-0.1,0-0.2,0.1-0.3l13.8-13.8c0.1-0.1,0.4-0.1,0.5,0c0.1,0.1,0.1,0.4,0,0.5l-13.8,13.8
					c-0.1,0.1-0.4,0.1-0.5,0C245.8,62.8,245.8,62.7,245.8,62.6z"/>
			</g>
			<g>
				<path class="st145" d="M249.3,66.1c0-0.1,0-0.2,0.1-0.3l13.8-13.8c0.1-0.1,0.4-0.1,0.5,0c0.1,0.1,0.1,0.4,0,0.5l-13.8,13.8
					c-0.1,0.1-0.4,0.1-0.5,0C249.3,66.3,249.3,66.2,249.3,66.1z"/>
			</g>
			<g>
				<path class="st145" d="M252.7,69.8c0-0.1,0-0.2,0.1-0.3l14.1-14.1c0.1-0.1,0.4-0.1,0.5,0c0.1,0.1,0.1,0.4,0,0.5l-14.1,14.1
					c-0.1,0.1-0.4,0.1-0.5,0C252.7,70,252.7,69.9,252.7,69.8z"/>
			</g>
			<g>
				<path class="st145" d="M270,60.4v-1l-13.7,13.7c-0.1,0.1-0.1,0.2-0.1,0.3c0,0.1,0,0.2,0.1,0.3c0.1,0.1,0.4,0.1,0.5,0L270,60.4z"
					/>
			</g>
			<g>
				<path class="st145" d="M270,67.5v-1l-10.2,10.2c-0.1,0.1-0.1,0.2-0.1,0.3c0,0.1,0,0.2,0.1,0.3c0.1,0.1,0.4,0.1,0.5,0L270,67.5z"
					/>
			</g>
			<g>
				<path class="st145" d="M270,74.6v-1.1l-6.9,6.9c-0.1,0.1-0.1,0.2-0.1,0.3c0,0.1,0,0.2,0.1,0.3c0.1,0.1,0.4,0.1,0.5,0L270,74.6z"
					/>
			</g>
			<g>
				<path class="st145" d="M270,81.7v-1.1l-3.4,3.4c-0.1,0.1-0.1,0.2-0.1,0.3c0,0.1,0,0.2,0.1,0.3c0.1,0.1,0.4,0.1,0.5,0L270,81.7z"
					/>
			</g>
			<g>
				<path class="st145" d="M270,46.3v-1l-13.1,13.1c-0.1,0.1-0.1,0.2-0.1,0.3c0,0.1,0,0.2,0.1,0.3c0.1,0.1,0.4,0.1,0.5,0L270,46.3z"
					/>
			</g>
			<g>
				<path class="st145" d="M270,53.4v-1l-9.6,9.6c-0.1,0.1-0.1,0.2-0.1,0.3c0,0.1,0,0.2,0.1,0.3c0.1,0.1,0.4,0.1,0.5,0L270,53.4z"/>
			</g>
			<g>
				<path class="st145" d="M270,60.5v-1.1l-6.2,6.2c-0.1,0.1-0.1,0.2-0.1,0.3c0,0.1,0,0.2,0.1,0.3c0.1,0.1,0.4,0.1,0.5,0L270,60.5z"
					/>
			</g>
		</g>
	</g>
	<linearGradient id="SVGID_4_" gradientUnits="userSpaceOnUse" x1="135" y1="100" x2="135" y2="12.0001">
		<stop  offset="0" style="stop-color:#C8E5C9;stop-opacity:0.5"/>
		<stop  offset="1" style="stop-color:#C8E5C9"/>
	</linearGradient>
	<rect y="12" style="clip-path:url(#SVGID_2_);fill:url(#SVGID_4_);" width="270" height="88"/>
</g>
</svg>
