<svg id="_05-User_Profile" data-name="05-User_Profile" xmlns="http://www.w3.org/2000/svg" viewBox="0 0 62.73 48"><defs><style>.cls-1,.cls-2,.cls-4{fill:none;stroke:#082581;stroke-width:2px;}.cls-1,.cls-2{stroke-linecap:round;}.cls-1{stroke-linejoin:round;}.cls-2,.cls-4{stroke-miterlimit:10;}.cls-3{fill:#082581;}</style></defs><title>Match Quiz_v18_EvertonBranded_RAS2</title><path class="cls-1" d="M1152.94,9811.59a8.44,8.44,0,0,1-2.61-1.39,13.15,13.15,0,0,1-4.75-10.11c0-5.89,4.24-11.87,9.48-11.87a7.07,7.07,0,0,1,2.36.41,8.59,8.59,0,0,1,2.49,1.4" transform="translate(-1135.52 -9787.22)"/><path class="cls-2" d="M1149.94,9816.07a8.82,8.82,0,0,1-2.63-2,10.17,10.17,0,0,1-1.41-2s-9.39.66-9.39,11.26c0,4.54,2.73,5.28,7,5.39l0.61,0" transform="translate(-1135.52 -9787.22)"/><path class="cls-1" d="M1180.82,9811.59a8.44,8.44,0,0,0,2.61-1.39,13.15,13.15,0,0,0,4.75-10.11c0-5.89-4.24-11.87-9.48-11.87a7.07,7.07,0,0,0-2.36.41,8.59,8.59,0,0,0-2.49,1.4" transform="translate(-1135.52 -9787.22)"/><path class="cls-2" d="M1183.83,9816.07a8.82,8.82,0,0,0,2.63-2,10.17,10.17,0,0,0,1.41-2s9.39,0.66,9.39,11.26c0,4.54-2.73,5.28-7,5.39l-0.61,0" transform="translate(-1135.52 -9787.22)"/><path class="cls-3" d="M1166.84,9794.29c4.42,0,8.6,5.47,8.6,11.25s-4.18,11.25-8.6,11.25-8.6-5.45-8.6-11.22,4.18-11.28,8.6-11.28m0-2c-5.85,0-10.6,6.69-10.6,13.28s4.75,13.22,10.6,13.22,10.6-6.66,10.6-13.25-4.75-13.25-10.6-13.25h0Z" transform="translate(-1135.52 -9787.22)"/><path class="cls-4" d="M1177.1,9817.46c-2.21,4.09-6.35,5.3-10.27,5.3h0c-3.69-.22-7.08-1.37-9.16-5.22,0,0-9.39.66-9.39,11.26,0,5.29,3.7,5.42,9.27,5.41h18.55c6.18,0,10.38.14,10.38-5.49C1186.49,9818.13,1177.1,9817.46,1177.1,9817.46Z" transform="translate(-1135.52 -9787.22)"/></svg>