<?xml version="1.0" encoding="utf-8"?>
<!-- Generator: Adobe Illustrator 21.0.2, SVG Export Plug-In . SVG Version: 6.00 Build 0)  -->
<svg version="1.1" id="Layer_1" xmlns="http://www.w3.org/2000/svg" xmlns:xlink="http://www.w3.org/1999/xlink" x="0px" y="0px"
	 viewBox="0 0 250 250" style="enable-background:new 0 0 250 250;" xml:space="preserve">
<style type="text/css">
	.st0{opacity:0.15;fill:#FFFFFF;enable-background:new    ;}
	.st1{opacity:0.5;}
	.st2{opacity:0.5;fill:#231F20;enable-background:new    ;}
	.st3{opacity:0.49;fill:#231F20;enable-background:new    ;}
	.st4{opacity:0.48;fill:#231F20;enable-background:new    ;}
	.st5{opacity:0.47;fill:#231F20;enable-background:new    ;}
	.st6{opacity:0.46;fill:#231F20;enable-background:new    ;}
	.st7{opacity:0.45;fill:#231F20;enable-background:new    ;}
	.st8{opacity:0.44;fill:#231F20;enable-background:new    ;}
	.st9{opacity:0.43;fill:#231F20;enable-background:new    ;}
	.st10{opacity:0.42;fill:#231F20;enable-background:new    ;}
	.st11{opacity:0.41;fill:#231F20;enable-background:new    ;}
	.st12{opacity:0.4;fill:#231F20;enable-background:new    ;}
	.st13{opacity:0.39;fill:#231F20;enable-background:new    ;}
	.st14{opacity:0.38;fill:#231F20;enable-background:new    ;}
	.st15{opacity:0.37;fill:#231F20;enable-background:new    ;}
	.st16{opacity:0.36;fill:#231F20;enable-background:new    ;}
	.st17{opacity:0.35;fill:#231F20;enable-background:new    ;}
	.st18{opacity:0.34;fill:#231F20;enable-background:new    ;}
	.st19{opacity:0.33;fill:#231F20;enable-background:new    ;}
	.st20{opacity:0.32;fill:#231F20;enable-background:new    ;}
	.st21{opacity:0.31;fill:#231F20;enable-background:new    ;}
	.st22{opacity:0.3;fill:#231F20;enable-background:new    ;}
	.st23{opacity:0.29;fill:#231F20;enable-background:new    ;}
	.st24{opacity:0.28;fill:#231F20;enable-background:new    ;}
	.st25{opacity:0.27;fill:#231F20;enable-background:new    ;}
	.st26{opacity:0.26;fill:#231F20;enable-background:new    ;}
	.st27{opacity:0.25;fill:#231F20;enable-background:new    ;}
	.st28{opacity:0.24;fill:#231F20;enable-background:new    ;}
	.st29{opacity:0.23;fill:#231F20;enable-background:new    ;}
	.st30{opacity:0.22;fill:#231F20;enable-background:new    ;}
	.st31{opacity:0.21;fill:#231F20;enable-background:new    ;}
	.st32{opacity:0.2;fill:#231F20;enable-background:new    ;}
	.st33{opacity:0.19;fill:#231F20;enable-background:new    ;}
	.st34{opacity:0.18;fill:#231F20;enable-background:new    ;}
	.st35{opacity:0.17;fill:#231F20;enable-background:new    ;}
	.st36{opacity:0.16;fill:#231F20;enable-background:new    ;}
	.st37{opacity:0.15;fill:#231F20;enable-background:new    ;}
	.st38{opacity:0.14;fill:#231F20;enable-background:new    ;}
	.st39{opacity:0.13;fill:#231F20;enable-background:new    ;}
	.st40{opacity:0.12;fill:#231F20;enable-background:new    ;}
	.st41{opacity:0.11;fill:#231F20;enable-background:new    ;}
	.st42{opacity:0.1;fill:#231F20;enable-background:new    ;}
	.st43{opacity:9.000000e-02;fill:#231F20;enable-background:new    ;}
	.st44{opacity:8.000000e-02;fill:#231F20;enable-background:new    ;}
	.st45{opacity:7.000000e-02;fill:#231F20;enable-background:new    ;}
	.st46{opacity:6.000000e-02;fill:#231F20;enable-background:new    ;}
	.st47{opacity:5.000000e-02;fill:#231F20;enable-background:new    ;}
	.st48{opacity:4.000000e-02;fill:#231F20;enable-background:new    ;}
	.st49{opacity:3.000000e-02;fill:#231F20;enable-background:new    ;}
	.st50{opacity:2.000000e-02;fill:#231F20;enable-background:new    ;}
	.st51{opacity:1.000000e-02;fill:#231F20;enable-background:new    ;}
	.st52{fill:#231F20;fill-opacity:0;}
	.st53{fill:#FFFFFF;}
	.st54{fill:#CC2C34;}
	.st55{fill:#841520;}
	.st56{fill:#A43E23;}
	.st57{fill:#D8D856;}
	.st58{fill:#E3E4E5;}
	.st59{fill:#F7F9F9;}
	.st60{fill:#EFEFEF;}
	.st61{fill:#223228;}
	.st62{fill:#4D535B;}
</style>
<title>welcome-fig-win</title>
<rect class="st0" width="250" height="250"/>
<g class="st1">
	<polygon class="st2" points="56.2,191.2 92.4,148 60.8,98.9 76.9,55.2 152,55.2 209.9,68.7 151.7,87.7 106.6,144 61.5,200.3 	"/>
	<polygon class="st2" points="210.1,69.3 186.4,77.1 152,88.3 118.2,130.5 106.9,144.5 61.8,200.7 56.5,191.7 75.8,168.6 
		92.6,148.5 61.2,99.5 77.3,56 152.3,55.9 	"/>
	<polygon class="st2" points="210.3,69.8 186.8,77.6 152.4,88.9 118.5,130.9 107.2,145 62.1,201.1 56.8,192.1 75.9,169.1 92.7,149 
		61.5,100.1 77.8,56.6 152.6,56.5 	"/>
	<polygon class="st2" points="210.6,70.3 187.1,78.2 152.7,89.4 118.8,131.5 107.5,145.5 62.3,201.6 57.1,192.6 76.1,169.5 
		92.9,149.5 61.9,100.7 78.2,57.3 152.9,57.1 	"/>
	<polygon class="st3" points="210.8,70.8 187.4,78.7 153.1,90 119.2,132 107.8,146 62.6,202 57.3,193 76.3,170 93.1,150 62.3,101.3 
		78.6,58 153.2,57.7 	"/>
	<polygon class="st3" points="211,71.3 187.7,79.3 153.4,90.6 119.5,132.5 108.2,146.5 62.9,202.4 57.6,193.5 76.5,170.5 
		93.3,150.5 62.7,101.9 79,58.8 153.6,58.3 	"/>
	<polygon class="st3" points="211.2,71.8 188.1,79.8 153.8,91.2 119.8,133 108.5,147 63.2,202.8 57.9,193.9 76.6,170.9 93.4,151.1 
		63.1,102.5 79.4,59.5 153.9,59 	"/>
	<polygon class="st3" points="211.4,72.3 188.4,80.4 154.1,91.7 120.1,133.6 108.8,147.5 63.5,203.3 58.2,194.3 76.8,171.4 
		93.6,151.6 63.5,103.2 79.9,60.2 154.2,59.6 	"/>
	<polygon class="st3" points="211.6,72.8 188.7,80.9 154.5,92.3 120.4,134.1 109.1,148 63.8,203.7 58.5,194.8 77,171.9 93.8,152.1 
		63.8,103.8 80.3,60.8 154.5,60.2 	"/>
	<polygon class="st3" points="211.9,73.3 189,81.5 154.8,92.9 120.8,134.6 109.4,148.5 64,204.1 58.8,195.2 77.2,172.3 93.9,152.6 
		64.2,104.4 80.7,61.6 154.8,60.8 	"/>
	<polygon class="st4" points="212.1,73.9 189.4,82.1 155.2,93.5 121.1,135.1 109.7,149 64.3,204.6 59,195.7 77.4,172.8 94.1,153.1 
		64.6,105 81.1,62.3 155.1,61.5 	"/>
	<polygon class="st4" points="212.3,74.4 189.7,82.6 155.5,94.1 121.4,135.6 110.1,149.5 64.6,205 59.3,196.1 77.5,173.3 
		94.3,153.6 65,105.6 81.5,63 155.4,62.1 	"/>
	<polygon class="st4" points="212.5,74.9 190,83.2 155.9,94.6 121.8,136.2 110.4,150 64.9,205.4 59.6,196.6 77.7,173.8 94.5,154.1 
		65.4,106.2 81.9,63.7 155.7,62.7 	"/>
	<polygon class="st4" points="212.7,75.4 190.4,83.7 156.2,95.2 122.1,136.7 110.7,150.5 65.2,205.9 59.9,197 77.9,174.2 
		94.6,154.6 65.8,106.8 82.4,64.4 156,63.3 	"/>
	<polygon class="st4" points="213,75.9 190.7,84.3 156.6,95.8 122.4,137.2 111,151 65.4,206.3 60.2,197.4 78.1,174.7 94.8,155.1 
		66.1,107.4 82.8,65.1 156.3,63.9 	"/>
	<polygon class="st4" points="213.2,76.4 191,84.8 156.9,96.3 122.7,137.7 111.3,151.5 65.7,206.7 60.5,197.9 78.3,175.2 95,155.6 
		66.5,108 83.2,65.8 156.6,64.6 	"/>
	<polygon class="st5" points="213.4,76.9 191.3,85.4 157.2,96.9 123.1,138.2 111.6,152 66,207.1 60.8,198.3 78.4,175.6 95.2,156.1 
		66.9,108.6 83.6,66.5 156.9,65.2 	"/>
	<polygon class="st5" points="213.6,77.5 191.7,85.9 157.6,97.5 123.4,138.8 111.9,152.5 66.3,207.6 61,198.8 78.6,176.1 
		95.3,156.7 67.3,109.2 84,67.2 157.2,65.8 	"/>
	<polygon class="st5" points="213.8,78 192,86.5 157.9,98.1 123.7,139.3 112.3,153 66.6,208 61.3,199.2 78.8,176.6 95.5,157.2 
		67.7,109.8 84.4,67.9 157.5,66.4 	"/>
	<polygon class="st5" points="214.1,78.5 192.3,87.1 158.3,98.7 124,139.8 112.6,153.5 66.8,208.4 61.6,199.7 79,177.1 95.7,157.7 
		68.1,110.5 84.9,68.6 157.8,67.1 	"/>
	<polygon class="st5" points="214.3,79 192.6,87.6 158.6,99.2 124.3,140.3 112.9,154.1 67.1,208.9 61.9,200.1 79.2,177.5 
		95.8,158.2 68.4,111.1 85.3,69.3 158.1,67.7 	"/>
	<polygon class="st5" points="214.5,79.5 193,88.2 159,99.8 124.7,140.9 113.2,154.6 67.4,209.3 62.2,200.6 79.3,178 96,158.7 
		68.8,111.7 85.7,70 158.4,68.3 	"/>
	<polygon class="st6" points="214.7,80 193.3,88.7 159.4,100.4 125,141.4 113.5,155.1 67.7,209.7 62.5,201 79.5,178.5 96.2,159.2 
		69.2,112.3 86.1,70.7 158.7,68.9 	"/>
	<polygon class="st6" points="214.9,80.5 193.6,89.3 159.7,101 125.3,141.9 113.8,155.6 68,210.1 62.8,201.4 79.7,178.9 96.3,159.7 
		69.6,112.9 86.6,71.4 159,69.5 	"/>
	<polygon class="st6" points="215.1,81.1 193.9,89.8 160.1,101.5 125.6,142.4 114.2,156.1 68.3,210.6 63,201.9 79.9,179.4 
		96.5,160.2 70,113.5 87,72.1 159.3,70.2 	"/>
	<polygon class="st6" points="215.4,81.6 194.3,90.4 160.4,102.1 126,142.9 114.5,156.6 68.5,211 63.3,202.3 80.1,179.9 96.7,160.7 
		70.4,114.1 87.4,72.8 159.6,70.8 	"/>
	<polygon class="st6" points="215.6,82.1 194.6,90.9 160.8,102.7 126.3,143.5 114.8,157.1 68.8,211.4 63.6,202.8 80.2,180.4 
		96.9,161.2 70.8,114.7 87.8,73.5 159.9,71.4 	"/>
	<polygon class="st6" points="215.8,82.6 194.9,91.5 161.1,103.3 126.6,144 115.1,157.6 69.1,211.9 63.9,203.2 80.4,180.8 97,161.8 
		71.1,115.3 88.2,74.2 160.2,72 	"/>
	<polygon class="st7" points="216,83.1 195.3,92.1 161.4,103.8 126.9,144.5 115.4,158.1 69.4,212.3 64.2,203.6 80.6,181.3 
		97.2,162.3 71.5,115.9 88.6,74.9 160.5,72.7 	"/>
	<polygon class="st7" points="216.2,83.6 195.6,92.6 161.8,104.4 127.3,145 115.7,158.6 69.7,212.7 64.5,204.1 80.8,181.8 
		97.4,162.8 71.9,116.6 89.1,75.6 160.9,73.3 	"/>
	<polygon class="st7" points="216.5,84.1 195.9,93.2 162.1,105 127.6,145.6 116.1,159.1 69.9,213.2 64.8,204.5 81,182.2 97.6,163.3 
		72.3,117.2 89.5,76.3 161.1,73.9 	"/>
	<polygon class="st7" points="216.7,84.6 196.2,93.7 162.5,105.6 127.9,146.1 116.4,159.6 70.2,213.6 65.1,205 81.1,182.7 
		97.7,163.8 72.7,117.8 89.9,77 161.4,74.5 	"/>
	<polygon class="st7" points="216.9,85.2 196.6,94.3 162.9,106.2 128.2,146.6 116.7,160.1 70.5,214 65.3,205.4 81.3,183.2 
		97.9,164.3 73.1,118.4 90.3,77.7 161.8,75.1 	"/>
	<polygon class="st7" points="217.1,85.7 196.9,94.8 163.2,106.7 128.6,147.1 117,160.6 70.8,214.5 65.6,205.9 81.5,183.6 
		98.1,164.8 73.4,119 90.7,78.4 162.1,75.8 	"/>
	<polygon class="st8" points="217.4,86.2 197.2,95.4 163.6,107.3 128.9,147.6 117.3,161.1 71.1,214.9 65.9,206.3 81.7,184.1 
		98.2,165.3 73.8,119.6 91.1,79.1 162.4,76.4 	"/>
	<polygon class="st8" points="217.6,86.7 197.6,96 163.9,107.9 129.2,148.2 117.6,161.6 71.4,215.3 66.2,206.8 81.9,184.6 
		98.4,165.8 74.2,120.2 91.6,79.8 162.7,77 	"/>
	<polygon class="st8" points="217.8,87.2 197.9,96.5 164.2,108.5 129.5,148.7 117.9,162.1 71.7,215.8 66.5,207.2 82,185.1 
		98.6,166.3 74.6,120.8 92,80.5 163,77.6 	"/>
	<polygon class="st8" points="218,87.7 198.2,97.1 164.6,109 129.9,149.2 118.3,162.6 71.9,216.2 66.8,207.6 82.2,185.5 98.8,166.9 
		75,121.4 92.4,81.2 163.3,78.2 	"/>
	<polygon class="st8" points="218.2,88.2 198.5,97.6 164.9,109.6 130.2,149.7 118.6,163.1 72.2,216.6 67,208.1 82.4,186 98.9,167.4 
		75.3,122 92.8,81.9 163.6,78.9 	"/>
	<polygon class="st8" points="218.4,88.8 198.9,98.2 165.3,110.2 130.5,150.2 118.9,163.6 72.5,217 67.3,208.5 82.6,186.5 
		99.1,167.9 75.7,122.6 93.2,82.6 163.9,79.5 	"/>
	<polygon class="st9" points="218.7,89.3 199.2,98.8 165.6,110.8 130.8,150.8 119.2,164.1 72.8,217.5 67.6,209 82.8,186.9 
		99.3,168.4 76.1,123.2 93.7,83.3 164.2,80.1 	"/>
	<polygon class="st9" points="218.9,89.8 199.5,99.3 166,111.3 131.2,151.3 119.5,164.6 73.1,217.9 67.9,209.4 82.9,187.4 
		99.4,168.9 76.5,123.9 94.1,84 164.5,80.7 	"/>
	<polygon class="st9" points="219.1,90.3 199.9,99.9 166.4,111.9 131.5,151.8 119.8,165.1 73.3,218.3 68.2,209.9 83.1,187.9 
		99.6,169.4 76.9,124.5 94.5,84.7 164.8,81.3 	"/>
	<polygon class="st9" points="219.3,90.8 200.2,100.4 166.7,112.5 131.8,152.3 120.2,165.6 73.6,218.8 68.5,210.3 83.3,188.4 
		99.8,169.9 77.3,125.1 94.9,85.4 165.1,82 	"/>
	<polygon class="st9" points="219.5,91.3 200.5,101 167.1,113.1 132.1,152.9 120.5,166.1 73.9,219.2 68.8,210.7 83.5,188.8 
		100,170.4 77.7,125.7 95.3,86.1 165.4,82.6 	"/>
	<polygon class="st9" points="219.8,91.8 200.8,101.5 167.4,113.6 132.5,153.4 120.8,166.6 74.2,219.6 69,211.2 83.7,189.3 
		100.1,170.9 78,126.3 95.7,86.8 165.7,83.2 	"/>
	<polygon class="st10" points="220,92.3 201.2,102.1 167.8,114.2 132.8,153.9 121.1,167.1 74.5,220.1 69.3,211.6 83.8,189.8 
		100.3,171.4 78.4,126.9 96.2,87.5 166,83.8 	"/>
	<polygon class="st10" points="220.2,92.8 201.5,102.6 168.1,114.8 133.1,154.4 121.4,167.6 74.8,220.5 69.6,212.1 84,190.2 
		100.5,171.9 78.8,127.5 96.6,88.2 166.3,84.5 	"/>
	<polygon class="st10" points="220.4,93.4 201.8,103.2 168.4,115.4 133.4,154.9 121.7,168.1 75,220.9 69.9,212.5 84.2,190.7 
		100.6,172.4 79.2,128.1 97,88.9 166.6,85.1 	"/>
	<polygon class="st10" points="220.6,93.9 202.1,103.8 168.8,115.9 133.8,155.5 122.1,168.6 75.3,221.3 70.2,213 84.4,191.2 
		100.8,173 79.6,128.7 97.4,89.6 166.9,85.7 	"/>
	<polygon class="st10" points="220.9,94.4 202.5,104.3 169.1,116.5 134.1,156 122.4,169.1 75.6,221.8 70.5,213.4 84.6,191.7 
		101,173.5 80,129.3 97.8,90.3 167.2,86.3 	"/>
	<polygon class="st10" points="221.1,94.9 202.8,104.9 169.5,117.1 134.4,156.5 122.7,169.6 75.9,222.2 70.8,213.9 84.7,192.1 
		101.2,174 80.3,130 98.2,91 167.5,86.9 	"/>
	<polygon class="st11" points="221.3,95.4 203.1,105.4 169.8,117.7 134.7,157 123,170.1 76.2,222.6 71,214.3 84.9,192.6 
		101.3,174.5 80.7,130.6 98.7,91.8 167.8,87.6 	"/>
	<polygon class="st11" points="221.5,95.9 203.4,106 170.2,118.3 135.1,157.5 123.3,170.7 76.4,223.1 71.3,214.7 85.1,193.1 
		101.5,175 81.1,131.2 99.1,92.4 168.1,88.2 	"/>
	<polygon class="st11" points="221.7,96.4 203.8,106.5 170.5,118.8 135.4,158.1 123.6,171.2 76.7,223.5 71.6,215.2 85.3,193.6 
		101.7,175.5 81.5,131.8 99.5,93.2 168.4,88.8 	"/>
	<polygon class="st11" points="221.9,97 204.1,107.1 170.9,119.4 135.7,158.6 123.9,171.7 77,223.9 71.9,215.6 85.4,194 101.8,176 
		81.9,132.4 99.9,93.8 168.8,89.4 	"/>
	<polygon class="st11" points="222.2,97.5 204.4,107.7 171.2,120 136,159.1 124.3,172.2 77.3,224.4 72.2,216.1 85.6,194.5 
		102,176.5 82.3,133 100.3,94.6 169.1,90.1 	"/>
	<polygon class="st11" points="222.4,98 204.8,108.2 171.6,120.6 136.4,159.6 124.6,172.7 77.6,224.8 72.5,216.5 85.8,195 
		102.2,177 82.6,133.6 100.8,95.2 169.4,90.7 	"/>
	<polygon class="st12" points="222.6,98.5 205.1,108.8 171.9,121.1 136.7,160.1 124.9,173.2 77.8,225.2 72.8,216.9 86,195.4 
		102.4,177.5 83,134.2 101.2,96 169.7,91.3 	"/>
	<polygon class="st12" points="222.8,99 205.4,109.3 172.3,121.7 137,160.7 125.2,173.7 78.1,225.6 73,217.4 86.2,195.9 
		102.5,178.1 83.4,134.8 101.6,96.7 170,91.9 	"/>
	<polygon class="st12" points="223.1,99.5 205.7,109.9 172.6,122.3 137.3,161.2 125.5,174.2 78.4,226.1 73.3,217.8 86.3,196.4 
		102.7,178.6 83.8,135.4 102,97.4 170.3,92.5 	"/>
	<polygon class="st12" points="223.3,100 206.1,110.4 173,122.9 137.6,161.7 125.8,174.7 78.7,226.5 73.6,218.3 86.5,196.8 
		102.9,179.1 84.2,136.1 102.4,98.1 170.6,93.2 	"/>
	<polygon class="st12" points="223.5,100.6 206.4,111 173.3,123.4 138,162.2 126.2,175.2 79,226.9 73.9,218.7 86.7,197.3 
		103.1,179.6 84.6,136.7 102.8,98.8 170.9,93.8 	"/>
	<polygon class="st12" points="223.7,101.1 206.7,111.6 173.7,124 138.3,162.8 126.5,175.7 79.3,227.4 74.2,219.2 86.9,197.8 
		103.2,180.1 84.9,137.3 103.3,99.5 171.2,94.4 	"/>
	<polygon class="st13" points="223.9,101.6 207.1,112.1 174,124.6 138.6,163.3 126.8,176.2 79.6,227.8 74.5,219.6 87.1,198.3 
		103.4,180.6 85.3,137.9 103.7,100.2 171.5,95 	"/>
	<polygon class="st13" points="224.1,102.1 207.4,112.7 174.4,125.2 138.9,163.8 127.1,176.7 79.8,228.2 74.8,220.1 87.2,198.7 
		103.6,181.1 85.7,138.5 104.1,100.9 171.8,95.7 	"/>
	<polygon class="st13" points="224.4,102.6 207.7,113.2 174.7,125.8 139.3,164.3 127.4,177.2 80.1,228.7 75,220.5 87.4,199.2 
		103.7,181.6 86.1,139.1 104.5,101.6 172.1,96.3 	"/>
	<polygon class="st13" points="224.6,103.1 208,113.8 175.1,126.3 139.6,164.8 127.8,177.7 80.4,229.1 75.3,220.9 87.6,199.7 
		103.9,182.1 86.5,139.7 104.9,102.3 172.4,96.9 	"/>
	<polygon class="st13" points="224.8,103.6 208.4,114.3 175.4,126.9 139.9,165.4 128.1,178.2 80.7,229.5 75.6,221.4 87.8,200.1 
		104.1,182.6 86.9,140.3 105.4,103 172.7,97.5 	"/>
	<polygon class="st13" points="225,104.1 208.7,114.9 175.8,127.5 140.2,165.9 128.4,178.7 81,229.9 75.9,221.8 88,200.6 
		104.2,183.1 87.2,140.9 105.8,103.7 173,98.1 	"/>
	<polygon class="st14" points="225.2,104.7 209,115.4 176.1,128.1 140.6,166.4 128.7,179.2 81.2,230.4 76.2,222.3 88.1,201.1 
		104.4,183.7 87.6,141.5 106.2,104.4 173.3,98.8 	"/>
	<polygon class="st14" points="225.5,105.2 209.3,116 176.5,128.6 140.9,166.9 129,179.7 81.5,230.8 76.5,222.7 88.3,201.6 
		104.6,184.2 88,142.1 106.6,105.1 173.6,99.4 	"/>
	<polygon class="st14" points="225.7,105.7 209.7,116.6 176.8,129.2 141.2,167.4 129.3,180.2 81.8,231.2 76.8,223.2 88.5,202 
		104.8,184.7 88.4,142.8 107,105.8 173.9,100 	"/>
	<polygon class="st14" points="225.9,106.2 210,117.1 177.2,129.8 141.5,168 129.6,180.7 82.1,231.7 77,223.6 88.7,202.5 
		104.9,185.2 88.8,143.4 107.4,106.5 174.2,100.6 	"/>
	<polygon class="st14" points="226.1,106.7 210.3,117.7 177.5,130.4 141.9,168.5 130,181.2 82.4,232.1 77.3,224 88.9,203 
		105.1,185.7 89.2,144 107.9,107.2 174.5,101.2 	"/>
	<polygon class="st14" points="226.3,107.2 210.6,118.2 177.9,130.9 142.2,169 130.3,181.7 82.7,232.5 77.6,224.5 89,203.4 
		105.3,186.2 89.6,144.6 108.3,107.9 174.8,101.9 	"/>
	<polygon class="st15" points="226.6,107.7 211,118.8 178.2,131.5 142.5,169.5 130.6,182.2 82.9,233 77.9,224.9 89.2,203.9 
		105.4,186.7 89.9,145.2 108.7,108.6 175.1,102.5 	"/>
	<polygon class="st15" points="226.8,108.2 211.3,119.3 178.6,132.1 142.8,170.1 130.9,182.7 83.2,233.4 78.2,225.4 89.4,204.4 
		105.6,187.2 90.3,145.8 109.1,109.3 175.4,103.1 	"/>
	<polygon class="st15" points="227,108.8 211.6,119.9 178.9,132.7 143.2,170.6 131.2,183.2 83.5,233.8 78.5,225.8 89.6,204.9 
		105.8,187.7 90.7,146.4 109.5,110 175.8,103.7 	"/>
	<polygon class="st15" points="227.2,109.3 212,120.4 179.3,133.2 143.5,171.1 131.5,183.7 83.8,234.2 78.8,226.3 89.8,205.3 
		106,188.2 91.1,147 110,110.7 176.1,104.3 	"/>
	<polygon class="st15" points="227.4,109.8 212.3,121 179.6,133.8 143.8,171.6 131.9,184.2 84.1,234.7 79,226.7 89.9,205.8 
		106.1,188.8 91.5,147.6 110.4,111.4 176.4,105 	"/>
	<polygon class="st15" points="227.6,110.3 212.6,121.6 180,134.4 144.1,172.1 132.2,184.8 84.3,235.1 79.3,227.1 90.1,206.3 
		106.3,189.3 91.8,148.2 110.8,112.1 176.7,105.6 	"/>
	<polygon class="st16" points="227.9,110.8 212.9,122.1 180.3,135 144.5,172.7 132.5,185.2 84.6,235.5 79.6,227.6 90.3,206.7 
		106.5,189.8 92.2,148.8 111.2,112.8 177,106.2 	"/>
	<polygon class="st16" points="228.1,111.3 213.3,122.7 180.7,135.6 144.8,173.2 132.8,185.8 84.9,236 79.9,228 90.5,207.2 
		106.7,190.3 92.6,149.4 111.6,113.5 177.3,106.8 	"/>
	<polygon class="st16" points="228.3,111.8 213.6,123.2 181,136.1 145.1,173.7 133.1,186.3 85.2,236.4 80.2,228.5 90.7,207.7 
		106.8,190.8 93,150.1 112.1,114.2 177.6,107.5 	"/>
	<polygon class="st16" points="228.5,112.3 213.9,123.8 181.4,136.7 145.4,174.2 133.4,186.8 85.5,236.8 80.5,228.9 90.8,208.1 
		107,191.3 93.4,150.7 112.5,114.9 177.9,108.1 	"/>
	<polygon class="st16" points="228.8,112.9 214.2,124.3 181.7,137.3 145.8,174.8 133.8,187.3 85.8,237.3 80.7,229.4 91,208.6 
		107.2,191.8 93.8,151.3 112.9,115.6 178.2,108.7 	"/>
	<polygon class="st16" points="229,113.4 214.6,124.9 182.1,137.9 146.1,175.3 134.1,187.8 86,237.7 81,229.8 91.2,209.1 
		107.3,192.3 94.2,151.9 113.3,116.3 178.5,109.3 	"/>
	<polygon class="st17" points="229.2,113.9 214.9,125.5 182.4,138.4 146.4,175.8 134.4,188.3 86.3,238.1 81.3,230.2 91.4,209.6 
		107.5,192.8 94.5,152.5 113.7,117 178.8,109.9 	"/>
	<polygon class="st17" points="229.4,114.4 215.2,126 182.8,139 146.7,176.3 134.7,188.8 86.6,238.6 81.6,230.7 91.6,210 
		107.7,193.3 94.9,153.1 114.1,117.7 179.1,110.6 	"/>
	<polygon class="st17" points="229.6,114.9 215.6,126.6 183.1,139.6 147.1,176.8 135,189.3 86.9,239 81.9,231.1 91.7,210.5 
		107.9,193.9 95.3,153.7 114.6,118.4 179.4,111.2 	"/>
	<polygon class="st17" points="229.9,115.4 215.9,127.1 183.5,140.2 147.4,177.4 135.3,189.8 87.2,239.4 82.2,231.6 91.9,211 
		108,194.4 95.7,154.3 115,119.1 179.7,111.8 	"/>
	<polygon class="st17" points="230.1,115.9 216.2,127.7 183.8,140.7 147.7,177.9 135.6,190.3 87.4,239.8 82.4,232 92.1,211.4 
		108.2,194.9 96.1,154.9 115.4,119.8 180,112.4 	"/>
	<polygon class="st17" points="230.3,116.5 216.6,128.2 184.2,141.3 148,178.4 136,190.8 87.7,240.3 82.7,232.5 92.3,211.9 
		108.4,195.4 96.5,155.5 115.8,120.5 180.3,113.1 	"/>
	<polygon class="st18" points="230.5,117 216.9,128.8 184.5,141.9 148.4,178.9 136.3,191.3 88,240.7 83,232.9 92.5,212.4 
		108.6,195.9 96.8,156.1 116.2,121.2 180.6,113.7 	"/>
	<polygon class="st18" points="230.7,117.5 217.2,129.4 184.9,142.5 148.7,179.4 136.6,191.8 88.3,241.1 83.3,233.4 92.6,212.9 
		108.7,196.4 97.2,156.8 116.7,121.9 180.9,114.3 	"/>
	<polygon class="st18" points="230.9,118 217.5,129.9 185.2,143 149,180 136.9,192.3 88.6,241.6 83.6,233.8 92.8,213.3 108.9,196.9 
		97.6,157.4 117.1,122.6 181.2,114.9 	"/>
	<polygon class="st18" points="231.2,118.5 217.9,130.5 185.6,143.6 149.3,180.5 137.2,192.8 88.8,242 83.9,234.2 93,213.8 
		109.1,197.4 98,158 117.5,123.3 181.5,115.5 	"/>
	<polygon class="st18" points="231.4,119 218.2,131 185.9,144.2 149.7,181 137.5,193.3 89.1,242.4 84.2,234.7 93.2,214.3 
		109.2,197.9 98.4,158.6 117.9,124 181.8,116.2 	"/>
	<polygon class="st18" points="231.6,119.5 218.5,131.6 186.3,144.8 150,181.5 137.9,193.8 89.4,242.9 84.4,235.1 93.4,214.8 
		109.4,198.4 98.8,159.2 118.3,124.7 182.1,116.8 	"/>
	<polygon class="st19" points="231.8,120.1 218.8,132.1 186.6,145.3 150.3,182.1 138.2,194.3 89.7,243.3 84.7,235.6 93.5,215.2 
		109.6,198.9 99.1,159.8 118.7,125.4 182.4,117.4 	"/>
	<polygon class="st19" points="232,120.6 219.2,132.7 187,145.9 150.6,182.6 138.5,194.8 90,243.7 85,236 93.7,215.7 109.8,199.4 
		99.5,160.4 119.2,126.1 182.7,118 	"/>
	<polygon class="st19" points="232.3,121.1 219.5,133.2 187.3,146.5 150.9,183.1 138.8,195.3 90.3,244.1 85.3,236.4 93.9,216.2 
		109.9,200 99.9,161 119.6,126.8 183.1,118.7 	"/>
	<polygon class="st19" points="232.5,121.6 219.8,133.8 187.7,147.1 151.3,183.6 139.1,195.8 90.6,244.6 85.6,236.9 94.1,216.6 
		110.1,200.5 100.3,161.6 120,127.6 183.4,119.3 	"/>
	<polygon class="st19" points="232.7,122.1 220.1,134.4 188,147.6 151.6,184.1 139.4,196.3 90.8,245 85.9,237.3 94.2,217.1 
		110.3,201 100.7,162.2 120.4,128.2 183.7,119.9 	"/>
	<polygon class="st19" points="232.9,122.6 220.5,134.9 188.4,148.2 151.9,184.7 139.8,196.8 91.1,245.4 86.2,237.8 94.4,217.6 
		110.4,201.5 101.1,162.9 120.8,128.9 184,120.5 	"/>
	<polygon class="st20" points="233.1,123.1 220.8,135.5 188.7,148.8 152.2,185.2 140.1,197.3 91.4,245.9 86.4,238.2 94.6,218 
		110.6,202 101.4,163.5 121.2,129.7 184.3,121.1 	"/>
	<polygon class="st20" points="233.4,123.6 221.1,136 189.1,149.4 152.6,185.7 140.4,197.8 91.7,246.3 86.7,238.7 94.8,218.5 
		110.8,202.5 101.8,164.1 121.7,130.4 184.6,121.8 	"/>
	<polygon class="st20" points="233.6,124.2 221.5,136.6 189.4,150 152.9,186.2 140.7,198.3 92,246.7 87,239.1 95,219 110.9,203 
		102.2,164.7 122.1,131.1 184.9,122.4 	"/>
	<polygon class="st20" points="233.8,124.7 221.8,137.1 189.8,150.5 153.2,186.8 141,198.8 92.2,247.2 87.3,239.6 95.2,219.5 
		111.1,203.5 102.6,165.3 122.5,131.8 185.2,123 	"/>
	<polygon class="st20" points="234,125.2 222.1,137.7 190.1,151.1 153.6,187.3 141.3,199.3 92.5,247.6 87.6,240 95.3,219.9 
		111.3,204 103,165.9 122.9,132.5 185.5,123.6 	"/>
	<polygon class="st20" points="234.2,125.7 222.4,138.3 190.5,151.7 153.9,187.8 141.6,199.9 92.8,248 87.9,240.4 95.5,220.4 
		111.5,204.6 103.4,166.5 123.3,133.2 185.8,124.2 	"/>
	<polygon class="st21" points="234.4,126.2 222.8,138.8 190.8,152.3 154.2,188.3 142,200.4 93.1,248.4 88.2,240.9 95.7,220.9 
		111.6,205.1 103.8,167.1 123.8,133.9 186.1,124.9 	"/>
	<polygon class="st21" points="234.7,126.7 223.1,139.4 191.2,152.8 154.5,188.8 142.3,200.9 93.4,248.9 88.4,241.3 95.9,221.3 
		111.8,205.6 104.1,167.7 124.2,134.6 186.4,125.5 	"/>
	<polygon class="st21" points="234.9,127.2 223.4,139.9 191.5,153.4 154.9,189.4 142.6,201.4 93.7,249.3 88.7,241.8 96.1,221.8 
		112,206.1 104.5,168.3 124.6,135.3 186.7,126.1 	"/>
	<polygon class="st21" points="235.1,127.8 223.8,140.5 191.9,154 155.2,189.9 142.9,201.9 93.9,249.7 89,242.2 96.2,222.3 
		112.2,206.6 104.9,168.9 125,136 187,126.7 	"/>
	<polygon class="st21" points="235.3,128.3 224.1,141 192.2,154.6 155.5,190.4 143.2,202.4 94.2,250.2 89.3,242.7 96.4,222.8 
		112.3,207.1 105.3,169.6 125.4,136.7 187.3,127.3 	"/>
	<polygon class="st21" points="235.6,128.8 224.4,141.6 192.6,155.1 155.8,190.9 143.5,202.9 94.5,250.6 89.6,243.1 96.6,223.2 
		112.5,207.6 105.7,170.2 125.8,137.4 187.6,128 	"/>
	<polygon class="st22" points="235.8,129.3 224.7,142.1 192.9,155.7 156.1,191.4 143.9,203.4 94.8,251 89.9,243.6 96.8,223.7 
		112.7,208.1 106.1,170.8 126.3,138.1 187.9,128.6 	"/>
	<polygon class="st22" points="236,129.8 225.1,142.7 193.3,156.3 156.5,192 144.2,203.9 95.1,251.5 90.2,244 96.9,224.2 
		112.8,208.6 106.4,171.4 126.7,138.8 188.2,129.2 	"/>
	<polygon class="st22" points="236.2,130.3 225.4,143.3 193.6,156.9 156.8,192.5 144.5,204.4 95.3,251.9 90.4,244.4 97.1,224.6 
		113,209.1 106.8,172 127.1,139.5 188.5,129.8 	"/>
	<polygon class="st22" points="236.4,130.8 225.7,143.8 194,157.4 157.1,193 144.8,204.9 95.6,252.3 90.7,244.9 97.3,225.1 
		113.2,209.6 107.2,172.6 127.5,140.2 188.8,130.5 	"/>
	<polygon class="st22" points="236.6,131.3 226,144.4 194.3,158 157.4,193.5 145.1,205.4 95.9,252.8 91,245.3 97.5,225.6 
		113.4,210.1 107.6,173.2 127.9,140.9 189.1,131.1 	"/>
	<polygon class="st22" points="236.9,131.9 226.4,144.9 194.7,158.6 157.8,194.1 145.4,205.9 96.2,253.2 91.3,245.8 97.7,226.1 
		113.5,210.7 108,173.8 128.4,141.6 189.4,131.7 	"/>
	<polygon class="st23" points="237.1,132.4 226.7,145.5 195,159.2 158.1,194.6 145.8,206.4 96.5,253.6 91.6,246.2 97.8,226.5 
		113.7,211.2 108.3,174.4 128.8,142.3 189.7,132.3 	"/>
	<polygon class="st23" points="237.3,132.9 227,146.1 195.4,159.8 158.4,195.1 146.1,206.9 96.8,254.1 91.9,246.7 98,227 
		113.9,211.7 108.7,175.1 129.2,143 190,133 	"/>
	<polygon class="st23" points="237.5,133.5 227.4,146.7 195.7,160.4 158.7,195.7 146.4,207.5 97,254.6 92.2,247.2 98.2,227.6 
		114,212.3 109.1,175.7 129.6,143.8 190.4,133.7 	"/>
	<polygon class="st23" points="237.7,134.1 227.7,147.3 196.1,161.1 159.1,196.3 146.7,208 97.3,255.1 92.4,247.7 98.4,228.1 
		114.2,212.8 109.5,176.4 130,144.5 190.6,134.3 	"/>
	<polygon class="st23" points="238,134.6 228,147.9 196.4,161.7 159.4,196.9 147,208.6 97.6,255.5 92.7,248.2 98.6,228.6 
		114.4,213.4 109.9,177.1 130.4,145.3 190.9,135 	"/>
	<polygon class="st23" points="238.2,135.2 228.3,148.5 196.8,162.3 159.7,197.4 147.3,209.2 97.9,256 93,248.7 98.8,229.1 
		114.6,214 110.3,177.7 130.9,146.1 191.3,135.7 	"/>
	<polygon class="st24" points="238.4,135.8 228.7,149.1 197.1,162.9 160,198 147.6,209.7 98.2,256.5 93.3,249.2 98.9,229.7 
		114.7,214.5 110.7,178.4 131.3,146.8 191.6,136.4 	"/>
	<polygon class="st24" points="238.6,136.3 229,149.8 197.5,163.6 160.4,198.6 148,210.3 98.4,257 93.6,249.7 99.1,230.2 
		114.9,215.1 111,179.1 131.7,147.6 191.9,137 	"/>
	<polygon class="st24" points="238.8,136.9 229.3,150.4 197.8,164.2 160.7,199.2 148.3,210.8 98.7,257.5 93.9,250.2 99.3,230.7 
		115.1,215.7 111.4,179.7 132.1,148.3 192.2,137.7 	"/>
	<polygon class="st24" points="239.1,137.4 229.6,151 198.2,164.8 161,199.7 148.6,211.4 99,258 94.2,250.7 99.5,231.2 115.2,216.2 
		111.8,180.4 132.5,149.1 192.5,138.4 	"/>
	<polygon class="st24" points="239.3,138 230,151.6 198.5,165.5 161.3,200.3 148.9,211.9 99.3,258.4 94.4,251.2 99.6,231.8 
		115.4,216.8 112.2,181.1 132.9,149.8 192.8,139.1 	"/>
	<polygon class="st24" points="239.5,138.6 230.3,152.2 198.9,166.1 161.7,200.9 149.2,212.5 99.6,258.9 94.7,251.7 99.8,232.3 
		115.6,217.4 112.6,181.7 133.4,150.6 193.1,139.8 	"/>
	<polygon class="st25" points="239.7,139.2 230.6,152.8 199.2,166.7 162,201.5 149.6,213.1 99.9,259.4 95,252.2 100,232.8 
		115.8,217.9 113,182.4 133.8,151.4 193.4,140.4 	"/>
	<polygon class="st25" points="239.9,139.7 230.9,153.4 199.6,167.4 162.3,202 149.9,213.6 100.1,259.9 95.3,252.7 100.2,233.3 
		115.9,218.5 113.3,183 134.2,152.1 193.7,141.1 	"/>
	<polygon class="st25" points="240.2,140.3 231.3,154 199.9,168 162.6,202.6 150.2,214.2 100.4,260.4 95.6,253.1 100.4,233.9 
		116.1,219 113.7,183.7 134.6,152.9 194,141.8 	"/>
	<polygon class="st25" points="240.4,140.9 231.6,154.6 200.3,168.6 163,203.2 150.5,214.7 100.7,260.9 95.9,253.6 100.5,234.4 
		116.3,219.6 114.1,184.4 135,153.6 194.3,142.4 	"/>
	<polygon class="st25" points="240.6,141.4 231.9,155.2 200.6,169.2 163.3,203.8 150.8,215.3 101,261.4 96.2,254.1 100.7,234.9 
		116.4,220.2 114.5,185 135.5,154.4 194.6,143.1 	"/>
	<polygon class="st25" points="240.8,142 232.3,155.9 201,169.9 163.6,204.3 151.1,215.9 101.3,261.8 96.4,254.6 100.9,235.4 
		116.6,220.7 114.9,185.7 135.9,155.1 194.9,143.8 	"/>
	<polygon class="st26" points="241,142.6 232.6,156.5 201.3,170.5 163.9,204.9 151.4,216.4 101.6,262.3 96.7,255.1 101.1,236 
		116.8,221.3 115.3,186.4 136.3,155.9 195.2,144.5 	"/>
	<polygon class="st26" points="241.2,143.1 232.9,157.1 201.7,171.1 164.3,205.5 151.8,217 101.8,262.8 97,255.6 101.3,236.5 
		117,221.9 115.6,187 136.7,156.6 195.5,145.1 	"/>
	<polygon class="st26" points="241.5,143.7 233.2,157.7 202,171.8 164.6,206.1 152.1,217.5 102.1,263.3 97.3,256.1 101.4,237 
		117.1,222.4 116,187.7 137.1,157.4 195.8,145.8 	"/>
	<polygon class="st26" points="241.7,144.3 233.6,158.3 202.4,172.4 164.9,206.6 152.4,218.1 102.4,263.8 97.6,256.6 101.6,237.5 
		117.3,223 116.4,188.3 137.6,158.2 196.1,146.5 	"/>
	<polygon class="st26" points="241.9,144.8 233.9,158.9 202.7,173 165.2,207.2 152.7,218.6 102.7,264.2 97.9,257.1 101.8,238.1 
		117.5,223.6 116.8,189 138,158.9 196.4,147.2 	"/>
	<polygon class="st26" points="242.1,145.4 234.2,159.5 203.1,173.7 165.6,207.8 153,219.2 103,264.7 98.2,257.6 102,238.6 
		117.7,224.1 117.2,189.7 138.4,159.7 196.7,147.9 	"/>
	<polygon class="st27" points="242.4,146 234.6,160.1 203.4,174.3 165.9,208.4 153.3,219.8 103.2,265.2 98.4,258.1 102.2,239.1 
		117.8,224.7 117.6,190.3 138.8,160.4 197,148.5 	"/>
	<polygon class="st27" points="242.6,146.5 234.9,160.7 203.8,174.9 166.2,208.9 153.6,220.3 103.5,265.7 98.7,258.6 102.3,239.6 
		118,225.2 117.9,191 139.2,161.2 197.3,149.2 	"/>
	<polygon class="st27" points="242.8,147.1 235.2,161.4 204.1,175.6 166.5,209.5 154,220.9 103.8,266.2 99,259.1 102.5,240.2 
		118.2,225.8 118.3,191.7 139.6,161.9 197.6,149.9 	"/>
	<polygon class="st27" points="243,147.7 235.5,162 204.5,176.2 166.9,210.1 154.3,221.4 104.1,266.7 99.3,259.6 102.7,240.7 
		118.3,226.4 118.7,192.3 140.1,162.7 197.9,150.6 	"/>
	<polygon class="st27" points="243.2,148.2 235.9,162.6 204.8,176.8 167.2,210.7 154.6,222 104.4,267.2 99.6,260.1 102.9,241.2 
		118.5,226.9 119.1,193 140.5,163.4 198.2,151.2 	"/>
	<polygon class="st27" points="243.4,148.8 236.2,163.2 205.2,177.4 167.5,211.2 154.9,222.5 104.7,267.6 99.9,260.6 103.1,241.7 
		118.7,227.5 119.5,193.6 140.9,164.2 198.6,151.9 	"/>
	<polygon class="st28" points="243.7,149.4 236.5,163.8 205.5,178.1 167.8,211.8 155.2,223.1 104.9,268.1 100.2,261.1 103.2,242.3 
		118.8,228.1 119.9,194.3 141.3,165 198.9,152.6 	"/>
	<polygon class="st28" points="243.9,149.9 236.9,164.4 205.9,178.7 168.1,212.4 155.6,223.7 105.2,268.6 100.4,261.6 103.4,242.8 
		119,228.6 120.2,195 141.7,165.7 199.2,153.3 	"/>
	<polygon class="st28" points="244.1,150.5 237.2,165 206.2,179.3 168.5,213 155.9,224.2 105.5,269.1 100.7,262.1 103.6,243.3 
		119.2,229.2 120.6,195.6 142.1,166.5 199.5,153.9 	"/>
	<polygon class="st28" points="244.3,151.1 237.5,165.6 206.6,180 168.8,213.6 156.2,224.8 105.8,269.6 101,262.6 103.8,243.8 
		119.4,229.8 121,196.3 142.6,167.2 199.8,154.6 	"/>
	<polygon class="st28" points="244.5,151.6 237.8,166.2 206.9,180.6 169.1,214.1 156.5,225.3 106.1,270.1 101.3,263.1 104,244.4 
		119.5,230.3 121.4,197 143,168 200.1,155.3 	"/>
	<polygon class="st28" points="244.8,152.2 238.2,166.9 207.3,181.2 169.4,214.7 156.8,225.9 106.3,270.5 101.6,263.6 104.1,244.9 
		119.7,230.9 121.8,197.6 143.4,168.7 200.4,156 	"/>
	<polygon class="st29" points="245,152.8 238.5,167.5 207.6,181.9 169.8,215.3 157.1,226.4 106.6,271 101.9,264.1 104.3,245.4 
		119.9,231.4 122.2,198.3 143.8,169.5 200.7,156.6 	"/>
	<polygon class="st29" points="245.2,153.3 238.8,168.1 208,182.5 170.1,215.9 157.4,227 106.9,271.5 102.2,264.6 104.5,245.9 
		120.1,232 122.6,199 144.2,170.3 201,157.3 	"/>
	<polygon class="st29" points="245.4,153.9 239.1,168.7 208.3,183.1 170.4,216.4 157.8,227.6 107.2,272 102.4,265.1 104.7,246.5 
		120.2,232.6 122.9,199.6 144.7,171 201.3,158 	"/>
	<polygon class="st29" points="245.6,154.5 239.5,169.3 208.7,183.8 170.8,217 158.1,228.1 107.5,272.5 102.7,265.6 104.9,247 
		120.4,233.1 123.3,200.3 145.1,171.8 201.6,158.7 	"/>
	<polygon class="st29" points="245.9,155 239.8,169.9 209,184.4 171.1,217.6 158.4,228.7 107.8,273 103,266.1 105,247.5 
		120.6,233.7 123.7,200.9 145.5,172.5 201.9,159.4 	"/>
	<polygon class="st29" points="246.1,155.6 240.1,170.5 209.4,185 171.4,218.2 158.7,229.2 108,273.5 103.3,266.6 105.2,248.1 
		120.7,234.3 124.1,201.6 145.9,173.3 202.2,160 	"/>
	<polygon class="st30" points="246.3,156.2 240.4,171.1 209.7,185.6 171.7,218.7 159,229.8 108.3,273.9 103.6,267.1 105.4,248.6 
		120.9,234.8 124.5,202.3 146.3,174 202.5,160.7 	"/>
	<polygon class="st30" points="246.5,156.8 240.8,171.7 210.1,186.3 172,219.3 159.3,230.3 108.6,274.4 103.9,267.6 105.6,249.1 
		121.1,235.4 124.9,202.9 146.8,174.8 202.8,161.4 	"/>
	<polygon class="st30" points="246.7,157.3 241.1,172.4 210.4,186.9 172.4,219.9 159.7,230.9 108.9,274.9 104.1,268.1 105.8,249.6 
		121.3,236 125.2,203.6 147.2,175.6 203.1,162.1 	"/>
	<polygon class="st30" points="246.9,157.9 241.4,173 210.8,187.5 172.7,220.5 160,231.5 109.2,275.4 104.4,268.6 105.9,250.1 
		121.4,236.5 125.6,204.3 147.6,176.3 203.4,162.7 	"/>
	<polygon class="st30" points="247.2,158.4 241.8,173.6 211.1,188.2 173,221 160.3,232 109.4,275.9 104.7,269.1 106.1,250.7 
		121.6,237.1 126,204.9 148,177.1 203.7,163.4 	"/>
	<polygon class="st30" points="247.4,159 242.1,174.2 211.5,188.8 173.3,221.6 160.6,232.6 109.7,276.4 105,269.6 106.3,251.2 
		121.8,237.6 126.4,205.6 148.4,177.8 204,164.1 	"/>
	<polygon class="st31" points="247.6,159.6 242.4,174.8 211.8,189.4 173.7,222.2 160.9,233.1 110,276.9 105.3,270.1 106.5,251.7 
		121.9,238.2 126.8,206.3 148.8,178.6 204.3,164.8 	"/>
	<polygon class="st31" points="247.8,160.1 242.7,175.4 212.2,190.1 174,222.8 161.2,233.7 110.3,277.3 105.6,270.6 106.7,252.2 
		122.1,238.8 127.2,206.9 149.3,179.3 204.6,165.4 	"/>
	<polygon class="st31" points="248.1,160.7 243.1,176 212.5,190.7 174.3,223.3 161.6,234.2 110.6,277.8 105.9,271.1 106.8,252.8 
		122.3,239.3 127.5,207.6 149.7,180.1 204.9,166.1 	"/>
	<polygon class="st31" points="248.3,161.3 243.4,176.6 212.9,191.3 174.6,223.9 161.9,234.8 110.9,278.3 106.1,271.6 107,253.3 
		122.5,239.9 127.9,208.2 150.1,180.8 205.2,166.8 	"/>
	<polygon class="st31" points="248.5,161.9 243.7,177.2 213.2,191.9 175,224.5 162.2,235.4 111.1,278.8 106.4,272.1 107.2,253.8 
		122.6,240.5 128.3,208.9 150.5,181.6 205.6,167.5 	"/>
	<polygon class="st31" points="248.7,162.4 244.1,177.8 213.6,192.6 175.3,225.1 162.5,235.9 111.4,279.3 106.7,272.6 107.4,254.4 
		122.8,241 128.7,209.6 150.9,182.4 205.9,168.1 	"/>
	<polygon class="st32" points="248.9,163 244.4,178.5 213.9,193.2 175.6,225.6 162.8,236.5 111.7,279.8 107,273.1 107.6,254.9 
		123,241.6 129.1,210.2 151.4,183.1 206.2,168.8 	"/>
	<polygon class="st32" points="249.1,163.6 244.7,179.1 214.3,193.8 175.9,226.2 163.1,237 112,280.2 107.3,273.5 107.7,255.4 
		123.2,242.2 129.5,210.9 151.8,183.9 206.5,169.5 	"/>
	<polygon class="st32" points="249.4,164.1 245,179.7 214.6,194.5 176.3,226.8 163.4,237.6 112.3,280.7 107.6,274 107.9,255.9 
		123.3,242.7 129.8,211.6 152.2,184.6 206.8,170.2 	"/>
	<polygon class="st32" points="249.6,164.7 245.4,180.3 215,195.1 176.6,227.4 163.8,238.1 112.6,281.2 107.8,274.5 108.1,256.5 
		123.5,243.3 130.2,212.2 152.6,185.4 207.1,170.8 	"/>
	<polygon class="st32" points="249.8,165.3 245.7,180.9 215.3,195.7 176.9,227.9 164.1,238.7 112.8,281.7 108.1,275 108.3,257 
		123.7,243.9 130.6,212.9 153,186.1 207.4,171.5 	"/>
	<polygon class="st32" points="250,165.8 246,181.5 215.7,196.4 177.2,228.5 164.4,239.3 113.1,282.2 108.4,275.5 108.4,257.5 
		123.8,244.4 131,213.6 153.4,186.9 207.7,172.2 	"/>
	<polygon class="st33" points="250.3,166.4 246.4,182.1 216.1,197 177.6,229.1 164.8,239.8 113.4,282.7 108.8,276 108.7,258 
		124.1,245 131.4,214.2 153.9,187.6 208,172.9 	"/>
	<polygon class="st33" points="250.6,167 246.8,182.7 216.4,197.6 178,229.7 165.1,240.4 113.8,283.1 109.1,276.5 108.9,258.6 
		124.3,245.5 131.9,214.9 154.4,188.4 208.4,173.5 	"/>
	<polygon class="st33" points="250.8,167.5 247.1,183.3 216.9,198.3 178.4,230.2 165.5,240.9 114.1,283.6 109.4,277 109.1,259.1 
		124.5,246.1 132.3,215.6 154.8,189.2 208.7,174.2 	"/>
	<polygon class="st33" points="251.1,168.1 247.5,183.9 217.2,198.9 178.7,230.8 165.9,241.5 114.4,284.1 109.8,277.5 109.4,259.6 
		124.7,246.7 132.7,216.2 155.3,189.9 209.1,174.9 	"/>
	<polygon class="st33" points="251.4,168.7 247.9,184.6 217.7,199.5 179.1,231.4 166.2,242.1 114.8,284.6 110.1,278 109.6,260.1 
		124.9,247.2 133.2,216.9 155.8,190.7 209.4,175.6 	"/>
	<polygon class="st33" points="251.6,169.2 248.3,185.2 218.1,200.1 179.5,232 166.6,242.6 115.1,285.1 110.4,278.5 109.8,260.7 
		125.2,247.8 133.6,217.5 156.2,191.4 209.8,176.2 	"/>
	<polygon class="st34" points="251.9,169.8 248.7,185.8 218.5,200.8 179.9,232.6 167,243.2 115.4,285.6 110.8,279 110.1,261.2 
		125.4,248.4 134,218.2 156.7,192.2 210.2,176.9 	"/>
	<polygon class="st34" points="252.2,170.4 249,186.4 218.9,201.4 180.2,233.1 167.3,243.7 115.8,286.1 111.1,279.5 110.3,261.7 
		125.6,248.9 134.5,218.9 157.2,192.9 210.5,177.6 	"/>
	<polygon class="st34" points="252.5,170.9 249.4,187 219.3,202 180.6,233.7 167.7,244.3 116.1,286.5 111.5,280 110.5,262.2 
		125.8,249.5 134.9,219.5 157.7,193.7 210.9,178.3 	"/>
	<polygon class="st34" points="252.7,171.5 249.8,187.6 219.7,202.7 181,234.3 168.1,244.8 116.4,287 111.8,280.5 110.8,262.8 
		126.1,250.1 135.4,220.2 158.1,194.5 211.2,178.9 	"/>
	<polygon class="st34" points="253,172.1 250.2,188.2 220.1,203.3 181.4,234.9 168.4,245.4 116.8,287.5 112.1,281 111,263.3 
		126.3,250.6 135.8,220.9 158.6,195.2 211.6,179.6 	"/>
	<polygon class="st34" points="253.3,172.6 250.6,188.8 220.5,203.9 181.8,235.4 168.8,246 117.1,288 112.5,281.5 111.2,263.8 
		126.5,251.2 136.2,221.5 159.1,196 211.9,180.3 	"/>
	<polygon class="st35" points="253.6,173.2 250.9,189.4 220.9,204.6 182.1,236 169.2,246.5 117.5,288.5 112.8,282 111.5,264.3 
		126.7,251.7 136.7,222.2 159.6,196.7 212.3,181 	"/>
	<polygon class="st35" points="253.8,173.8 251.3,190.1 221.3,205.2 182.5,236.6 169.6,247.1 117.8,289 113.2,282.5 111.7,264.9 
		127,252.3 137.1,222.9 160,197.5 212.7,181.6 	"/>
	<polygon class="st35" points="254.1,174.3 251.7,190.7 221.7,205.8 182.9,237.2 169.9,247.6 118.1,289.5 113.5,283 111.9,265.4 
		127.2,252.9 137.5,223.5 160.5,198.2 213,182.3 	"/>
	<polygon class="st35" points="254.4,174.9 252.1,191.3 222.1,206.5 183.3,237.7 170.3,248.2 118.5,289.9 113.8,283.5 112.2,265.9 
		127.4,253.4 138,224.2 161,199 213.4,183 	"/>
	<polygon class="st35" points="254.6,175.5 252.5,191.9 222.5,207.1 183.6,238.3 170.7,248.7 118.8,290.4 114.2,284 112.4,266.4 
		127.6,254 138.4,224.8 161.4,199.8 213.7,183.7 	"/>
	<polygon class="st35" points="254.9,176 252.9,192.5 222.9,207.7 184,238.9 171,249.3 119.1,290.9 114.5,284.5 112.6,267 
		127.9,254.6 138.8,225.5 161.9,200.5 214.1,184.4 	"/>
	<polygon class="st36" points="255.2,176.6 253.2,193.1 223.3,208.4 184.4,239.5 171.4,249.9 119.5,291.4 114.8,285 112.8,267.5 
		128.1,255.1 139.3,226.2 162.4,201.3 214.4,185 	"/>
	<polygon class="st36" points="255.4,177.2 253.6,193.7 223.7,209 184.8,240 171.8,250.4 119.8,291.9 115.2,285.5 113.1,268 
		128.3,255.7 139.7,226.8 162.9,202 214.8,185.7 	"/>
	<polygon class="st36" points="255.7,177.7 254,194.3 224.1,209.6 185.1,240.6 172.1,251 120.1,292.4 115.5,286 113.3,268.5 
		128.5,256.2 140.1,227.5 163.3,202.8 215.2,186.4 	"/>
	<polygon class="st36" points="256,178.3 254.4,194.9 224.5,210.2 185.5,241.2 172.5,251.5 120.5,292.8 115.8,286.5 113.6,269.1 
		128.8,256.8 140.6,228.2 163.8,203.5 215.5,187.1 	"/>
	<polygon class="st36" points="256.3,178.9 254.8,195.6 224.9,210.9 185.9,241.8 172.9,252.1 120.8,293.3 116.2,287 113.8,269.6 
		129,257.4 141,228.8 164.3,204.3 215.9,187.7 	"/>
	<polygon class="st36" points="256.5,179.4 255.1,196.2 225.3,211.5 186.3,242.3 173.2,252.6 121.1,293.8 116.5,287.5 114,270.1 
		129.2,257.9 141.5,229.5 164.7,205.1 216.2,188.4 	"/>
	<polygon class="st37" points="256.8,180 255.5,196.8 225.7,212.1 186.7,242.9 173.6,253.2 121.5,294.3 116.9,288 114.2,270.6 
		129.4,258.5 141.9,230.1 165.2,205.8 216.6,189.1 	"/>
	<polygon class="st37" points="257.1,180.6 255.9,197.4 226.1,212.8 187,243.5 174,253.8 121.8,294.8 117.2,288.5 114.5,271.2 
		129.7,259.1 142.3,230.8 165.7,206.6 216.9,189.8 	"/>
	<polygon class="st37" points="257.4,181.1 256.3,198 226.5,213.4 187.4,244.1 174.3,254.3 122.2,295.3 117.5,289 114.7,271.7 
		129.9,259.6 142.8,231.5 166.1,207.3 217.3,190.4 	"/>
	<polygon class="st37" points="257.6,181.7 256.6,198.6 226.9,214 187.8,244.6 174.7,254.9 122.5,295.8 117.9,289.5 114.9,272.2 
		130.1,260.2 143.2,232.1 166.6,208.1 217.7,191.1 	"/>
	<polygon class="st37" points="257.9,182.3 257,199.2 227.3,214.7 188.2,245.2 175.1,255.4 122.8,296.2 118.2,290 115.2,272.7 
		130.3,260.8 143.6,232.8 167.1,208.8 218,191.8 	"/>
	<polygon class="st37" points="258.2,182.9 257.4,199.8 227.7,215.3 188.5,245.8 175.4,256 123.2,296.7 118.6,290.5 115.4,273.3 
		130.6,261.3 144.1,233.5 167.6,209.6 218.4,192.5 	"/>
	<polygon class="st38" points="258.5,183.4 257.8,200.4 228.1,215.9 188.9,246.4 175.8,256.5 123.5,297.2 118.9,291 115.6,273.8 
		130.8,261.9 144.5,234.1 168,210.3 218.7,193.1 	"/>
	<polygon class="st38" points="258.7,184 258.2,201.1 228.5,216.6 189.3,246.9 176.2,257.1 123.8,297.7 119.2,291.5 115.9,274.3 
		131,262.5 145,234.8 168.5,211.1 219.1,193.8 	"/>
	<polygon class="st38" points="259,184.6 258.5,201.7 228.9,217.2 189.7,247.5 176.6,257.7 124.2,298.2 119.6,292 116.1,274.8 
		131.2,263 145.4,235.4 169,211.9 219.4,194.5 	"/>
	<polygon class="st38" points="259.3,185.1 258.9,202.3 229.3,217.8 190.1,248.1 176.9,258.2 124.5,298.6 119.9,292.5 116.3,275.4 
		131.5,263.6 145.8,236.1 169.4,212.6 219.8,195.2 	"/>
	<polygon class="st38" points="259.5,185.7 259.3,202.9 229.7,218.4 190.4,248.7 177.3,258.8 124.8,299.1 120.2,293 116.6,275.9 
		131.7,264.1 146.3,236.8 169.9,213.4 220.2,195.9 	"/>
	<polygon class="st38" points="259.8,186.2 259.7,203.5 230.1,219.1 190.8,249.2 177.7,259.3 125.2,299.6 120.6,293.5 116.8,276.4 
		131.9,264.7 146.7,237.4 170.4,214.1 220.5,196.5 	"/>
	<polygon class="st39" points="260.1,186.8 260.1,204.1 230.5,219.7 191.2,249.8 178,259.9 125.5,300.1 120.9,294 117,276.9 
		132.1,265.3 147.1,238.1 170.9,214.9 220.9,197.2 	"/>
	<polygon class="st39" points="260.3,187.4 260.4,204.7 230.9,220.3 191.5,250.4 178.4,260.5 125.8,300.6 121.2,294.5 117.2,277.5 
		132.3,265.8 147.5,238.8 171.3,215.6 221.2,197.9 	"/>
	<polygon class="st39" points="260.5,187.9 260.7,205.3 231.2,221 191.8,251 178.7,261 126.1,301.1 121.5,295 117.4,278 
		132.5,266.4 147.9,239.4 171.7,216.4 221.5,198.6 	"/>
	<polygon class="st39" points="260.7,188.5 261.1,205.9 231.6,221.6 192.2,251.6 179,261.6 126.3,301.6 121.8,295.4 117.6,278.5 
		132.6,267 148.3,240.1 172.1,217.1 221.8,199.2 	"/>
	<polygon class="st39" points="261,189.1 261.4,206.6 231.9,222.2 192.5,252.1 179.3,262.1 126.6,302 122.1,295.9 117.8,279 
		132.8,267.5 148.7,240.8 172.5,217.9 222.1,199.9 	"/>
	<polygon class="st39" points="261.2,189.7 261.7,207.2 232.3,222.9 192.8,252.7 179.6,262.7 126.9,302.5 122.3,296.4 117.9,279.6 
		133,268.1 149.1,241.4 172.9,218.7 222.4,200.6 	"/>
	<polygon class="st40" points="261.4,190.2 262,207.8 232.6,223.5 193.1,253.3 179.9,263.2 127.2,303 122.6,296.9 118.1,280.1 
		133.2,268.6 149.4,242.1 173.4,219.4 222.7,201.3 	"/>
	<polygon class="st40" points="261.6,190.8 262.4,208.4 233,224.1 193.4,253.9 180.2,263.8 127.5,303.5 122.9,297.4 118.3,280.6 
		133.3,269.2 149.8,242.8 173.8,220.2 223,201.9 	"/>
	<polygon class="st40" points="261.8,191.4 262.7,209 233.3,224.8 193.8,254.4 180.6,264.4 127.8,304 123.2,297.9 118.5,281.1 
		133.5,269.8 150.2,243.4 174.2,220.9 223.3,202.6 	"/>
	<polygon class="st40" points="262,191.9 263,209.6 233.7,225.4 194.1,255 180.9,264.9 128,304.5 123.5,298.4 118.7,281.7 
		133.7,270.3 150.6,244.1 174.6,221.7 223.6,203.3 	"/>
	<polygon class="st40" points="262.3,192.5 263.3,210.2 234,226 194.4,255.6 181.2,265.5 128.3,305 123.8,298.9 118.8,282.2 
		133.8,270.9 151,244.7 175,222.4 223.9,204 	"/>
	<polygon class="st40" points="262.5,193.1 263.7,210.8 234.4,226.6 194.8,256.2 181.5,266 128.6,305.4 124.1,299.4 119,282.7 
		134,271.5 151.4,245.4 175.4,223.2 224.2,204.6 	"/>
	<polygon class="st41" points="262.7,193.6 264,211.4 234.7,227.3 195.1,256.7 181.8,266.6 128.9,305.9 124.3,299.9 119.2,283.2 
		134.2,272 151.7,246.1 175.9,224 224.5,205.3 	"/>
	<polygon class="st41" points="262.9,194.2 264.3,212.1 235.1,227.9 195.4,257.3 182.1,267.1 129.1,306.4 124.6,300.4 119.4,283.8 
		134.4,272.6 152.1,246.7 176.3,224.7 224.8,206 	"/>
	<polygon class="st41" points="263.1,194.8 264.6,212.7 235.4,228.5 195.7,257.9 182.4,267.7 129.4,306.9 124.9,300.9 119.5,284.3 
		134.5,273.2 152.5,247.4 176.7,225.5 225.1,206.7 	"/>
	<polygon class="st41" points="263.4,195.3 265,213.3 235.8,229.2 196,258.5 182.8,268.3 129.7,307.4 125.2,301.4 119.7,284.8 
		134.7,273.7 152.9,248.1 177.1,226.2 225.4,207.3 	"/>
	<polygon class="st41" points="263.6,195.9 265.3,213.9 236.1,229.8 196.4,259 183.1,268.8 130,307.9 125.5,301.9 119.9,285.4 
		134.9,274.3 153.3,248.7 177.5,227 225.7,208 	"/>
	<polygon class="st41" points="263.8,196.5 265.6,214.5 236.5,230.4 196.7,259.6 183.4,269.4 130.3,308.3 125.8,302.4 120.1,285.9 
		135,274.9 153.6,249.4 177.9,227.7 226,208.7 	"/>
	<polygon class="st42" points="264,197 266,215.1 236.8,231.1 197,260.2 183.7,269.9 130.6,308.8 126.1,302.9 120.3,286.4 
		135.2,275.4 154,250.1 178.4,228.5 226.3,209.4 	"/>
	<polygon class="st42" points="264.2,197.6 266.3,215.7 237.2,231.7 197.3,260.8 184,270.5 130.8,309.3 126.3,303.4 120.4,286.9 
		135.4,276 154.4,250.7 178.8,229.2 226.6,210 	"/>
	<polygon class="st42" points="264.5,198.2 266.6,216.3 237.5,232.3 197.7,261.3 184.3,271 131.1,309.8 126.6,303.9 120.6,287.5 
		135.6,276.5 154.8,251.4 179.2,230 226.9,210.7 	"/>
	<polygon class="st42" points="264.7,198.7 266.9,216.9 237.9,232.9 198,261.9 184.6,271.6 131.4,310.3 126.9,304.4 120.8,288 
		135.7,277.1 155.2,252 179.6,230.8 227.2,211.4 	"/>
	<polygon class="st42" points="264.9,199.3 267.2,217.5 238.2,233.6 198.3,262.5 185,272.2 131.7,310.8 127.2,304.9 121,288.5 
		135.9,277.7 155.6,252.7 180,231.5 227.5,212.1 	"/>
	<polygon class="st42" points="265.1,199.9 267.6,218.2 238.6,234.2 198.6,263.1 185.3,272.7 132,311.2 127.5,305.4 121.2,289 
		136.1,278.2 155.9,253.4 180.4,232.3 227.9,212.8 	"/>
	<polygon class="st43" points="265.3,200.4 267.9,218.8 238.9,234.8 198.9,263.6 185.6,273.3 132.2,311.7 127.8,305.9 121.3,289.5 
		136.2,278.8 156.3,254 180.9,233 228.1,213.4 	"/>
	<polygon class="st43" points="265.5,201 268.2,219.4 239.3,235.5 199.3,264.2 185.9,273.8 132.5,312.2 128,306.4 121.5,290.1 
		136.4,279.4 156.7,254.7 181.3,233.8 228.4,214.1 	"/>
	<polygon class="st43" points="265.8,201.6 268.6,220 239.6,236.1 199.6,264.8 186.2,274.4 132.8,312.7 128.3,306.9 121.7,290.6 
		136.6,279.9 157.1,255.4 181.7,234.5 228.8,214.8 	"/>
	<polygon class="st43" points="266,202.1 268.9,220.6 239.9,236.7 199.9,265.4 186.5,275 133.1,313.2 128.6,307.4 121.9,291.1 
		136.7,280.5 157.5,256 182.1,235.3 229.1,215.4 	"/>
	<polygon class="st43" points="266.2,202.7 269.2,221.2 240.3,237.4 200.2,266 186.9,275.5 133.4,313.7 128.9,307.9 122,291.6 
		136.9,281 157.9,256.7 182.5,236.1 229.4,216.1 	"/>
	<polygon class="st43" points="266.4,203.3 269.5,221.8 240.6,238 200.6,266.5 187.2,276.1 133.6,314.2 129.2,308.4 122.2,292.2 
		137.1,281.6 158.2,257.4 182.9,236.8 229.7,216.8 	"/>
	<polygon class="st44" points="266.6,203.8 269.9,222.4 241,238.6 200.9,267.1 187.5,276.6 133.9,314.6 129.5,308.9 122.4,292.7 
		137.2,282.2 158.6,258 183.4,237.6 230,217.5 	"/>
	<polygon class="st44" points="266.9,204.4 270.2,223 241.4,239.2 201.2,267.7 187.8,277.2 134.2,315.1 129.7,309.4 122.6,293.2 
		137.4,282.8 159,258.7 183.8,238.3 230.3,218.2 	"/>
	<polygon class="st44" points="267.1,205 270.5,223.6 241.7,239.9 201.5,268.2 188.1,277.7 134.5,315.6 130,309.9 122.8,293.8 
		137.6,283.3 159.4,259.3 184.2,239.1 230.6,218.8 	"/>
	<polygon class="st44" points="267.3,205.5 270.8,224.3 242,240.5 201.9,268.8 188.4,278.3 134.8,316.1 130.3,310.4 122.9,294.3 
		137.8,283.9 159.8,260 184.6,239.8 230.9,219.5 	"/>
	<polygon class="st44" points="267.5,206.1 271.2,224.9 242.4,241.1 202.2,269.4 188.7,278.9 135.1,316.6 130.6,310.9 123.1,294.8 
		137.9,284.4 160.1,260.7 185,240.6 231.2,220.2 	"/>
	<polygon class="st44" points="267.7,206.7 271.5,225.5 242.7,241.8 202.5,270 189.1,279.4 135.3,317.1 130.9,311.4 123.3,295.3 
		138.1,285 160.5,261.3 185.4,241.4 231.5,220.9 	"/>
	<polygon class="st45" points="267.9,207.2 271.8,226.1 243.1,242.4 202.8,270.6 189.4,280 135.6,317.5 131.2,311.9 123.5,295.9 
		138.3,285.6 160.9,262 185.9,242.1 231.8,221.5 	"/>
	<polygon class="st45" points="268.1,207.8 272.1,226.7 243.4,243 203.1,271.1 189.7,280.5 135.9,318 131.4,312.4 123.7,296.4 
		138.4,286.1 161.3,262.7 186.3,242.9 232.1,222.2 	"/>
	<polygon class="st45" points="268.4,208.4 272.5,227.3 243.8,243.7 203.5,271.7 190,281.1 136.2,318.5 131.7,312.9 123.8,296.9 
		138.6,286.7 161.7,263.3 186.7,243.6 232.4,222.9 	"/>
	<polygon class="st45" points="268.6,208.9 272.8,227.9 244.1,244.3 203.8,272.3 190.3,281.6 136.4,319 132,313.4 124,297.4 
		138.8,287.2 162.1,264 187.1,244.4 232.7,223.6 	"/>
	<polygon class="st45" points="268.8,209.5 273.1,228.5 244.5,244.9 204.1,272.9 190.6,282.2 136.7,319.5 132.3,313.9 124.2,298 
		139,287.8 162.4,264.6 187.5,245.1 233,224.2 	"/>
	<polygon class="st45" points="269,210.1 273.5,229.1 244.8,245.6 204.4,273.4 190.9,282.8 137,320 132.6,314.4 124.4,298.5 
		139.1,288.4 162.8,265.3 187.9,245.9 233.3,224.9 	"/>
	<polygon class="st46" points="269.2,210.6 273.8,229.8 245.2,246.2 204.8,274 191.2,283.3 137.3,320.5 132.9,314.9 124.5,299 
		139.3,289 163.2,266 188.4,246.6 233.6,225.6 	"/>
	<polygon class="st46" points="269.5,211.2 274.1,230.4 245.5,246.8 205.1,274.6 191.6,283.9 137.6,320.9 133.1,315.4 124.7,299.5 
		139.5,289.5 163.6,266.6 188.8,247.4 233.9,226.3 	"/>
	<polygon class="st46" points="269.7,211.8 274.4,231 245.9,247.4 205.4,275.2 191.9,284.4 137.9,321.4 133.4,315.9 124.9,300.1 
		139.6,290.1 164,267.3 189.2,248.2 234.2,226.9 	"/>
	<polygon class="st46" points="269.9,212.4 274.8,231.6 246.2,248.1 205.7,275.7 192.2,285 138.1,321.9 133.7,316.3 125.1,300.6 
		139.8,290.6 164.4,268 189.6,248.9 234.5,227.6 	"/>
	<polygon class="st46" points="270.1,212.9 275.1,232.2 246.6,248.7 206.1,276.3 192.5,285.5 138.4,322.4 134,316.8 125.2,301.1 
		140,291.2 164.7,268.6 190,249.7 234.8,228.3 	"/>
	<polygon class="st46" points="270.3,213.5 275.4,232.8 246.9,249.3 206.4,276.9 192.8,286.1 138.7,322.9 134.3,317.3 125.4,301.6 
		140.1,291.8 165.1,269.3 190.4,250.4 235.1,229 	"/>
	<polygon class="st47" points="270.5,214.1 275.7,233.4 247.3,250 206.7,277.5 193.1,286.7 139,323.4 134.6,317.8 125.6,302.2 
		140.3,292.3 165.5,270 190.9,251.2 235.4,229.6 	"/>
	<polygon class="st47" points="270.8,214.6 276.1,234 247.6,250.6 207,278 193.5,287.2 139.3,323.9 134.9,318.3 125.8,302.7 
		140.5,292.9 165.9,270.6 191.3,251.9 235.7,230.3 	"/>
	<polygon class="st47" points="271,215.2 276.4,234.6 248,251.2 207.4,278.6 193.8,287.8 139.5,324.3 135.1,318.8 126,303.2 
		140.7,293.5 166.3,271.3 191.7,252.7 236,231 	"/>
	<polygon class="st47" points="271.2,215.8 276.7,235.3 248.3,251.9 207.7,279.2 194.1,288.3 139.8,324.8 135.4,319.3 126.2,303.7 
		140.8,294 166.6,272 192.1,253.4 236.3,231.7 	"/>
	<polygon class="st47" points="271.4,216.3 277,235.9 248.7,252.5 208,279.8 194.4,288.9 140.1,325.3 135.7,319.8 126.3,304.3 
		141,294.6 167,272.6 192.5,254.2 236.6,232.4 	"/>
	<polygon class="st47" points="271.6,216.9 277.4,236.5 249,253.1 208.3,280.3 194.7,289.4 140.4,325.8 136,320.3 126.5,304.8 
		141.2,295.1 167.4,273.3 192.9,255 236.9,233 	"/>
	<polygon class="st48" points="271.9,217.5 277.7,237.1 249.4,253.8 208.6,280.9 195,290 140.7,326.3 136.3,320.8 126.7,305.3 
		141.4,295.7 167.8,273.9 193.4,255.7 237.2,233.7 	"/>
	<polygon class="st48" points="272.1,218 278,237.7 249.7,254.4 209,281.5 195.4,290.6 140.9,326.8 136.6,321.3 126.9,305.8 
		141.5,296.3 168.2,274.6 193.8,256.5 237.5,234.4 	"/>
	<polygon class="st48" points="272.3,218.6 278.4,238.3 250.1,255 209.3,282.1 195.7,291.1 141.2,327.2 136.8,321.8 127,306.4 
		141.7,296.8 168.6,275.3 194.2,257.2 237.8,235.1 	"/>
	<polygon class="st48" points="272.5,219.2 278.7,238.9 250.4,255.6 209.6,282.6 196,291.7 141.5,327.7 137.1,322.3 127.2,306.9 
		141.9,297.4 168.9,275.9 194.6,258 238.1,235.7 	"/>
	<polygon class="st48" points="272.7,219.7 279,239.5 250.8,256.3 209.9,283.2 196.3,292.2 141.8,328.2 137.4,322.8 127.4,307.4 
		142,298 169.3,276.6 195,258.8 238.4,236.4 	"/>
	<polygon class="st48" points="273,220.3 279.3,240.1 251.1,256.9 210.3,283.8 196.6,292.8 142.1,328.7 137.7,323.3 127.6,307.9 
		142.2,298.5 169.7,277.2 195.4,259.5 238.8,237.1 	"/>
	<polygon class="st49" points="273.2,220.9 279.6,240.8 251.4,257.5 210.6,284.4 196.9,293.4 142.4,329.2 138,323.8 127.8,308.5 
		142.4,299.1 170.1,277.9 195.9,260.3 239.1,237.8 	"/>
	<polygon class="st49" points="273.4,221.4 280,241.4 251.8,258.2 210.9,285 197.2,293.9 142.6,329.7 138.3,324.3 127.9,309 
		142.5,299.7 170.5,278.6 196.3,261 239.4,238.4 	"/>
	<polygon class="st49" points="273.6,222 280.3,242 252.1,258.8 211.2,285.5 197.6,294.5 142.9,330.1 138.6,324.8 128.1,309.5 
		142.7,300.2 170.9,279.2 196.7,261.8 239.7,239.1 	"/>
	<polygon class="st49" points="273.8,222.6 280.6,242.6 252.5,259.4 211.6,286.1 197.9,295 143.2,330.6 138.8,325.3 128.3,310 
		142.9,300.8 171.2,279.9 197.1,262.5 240,239.8 	"/>
	<polygon class="st49" points="274,223.1 281,243.2 252.9,260.1 211.9,286.7 198.2,295.6 143.5,331.1 139.1,325.8 128.5,310.6 
		143.1,301.4 171.6,280.6 197.5,263.3 240.3,240.5 	"/>
	<polygon class="st49" points="274.3,223.7 281.3,243.8 253.2,260.7 212.2,287.2 198.5,296.1 143.8,331.6 139.4,326.3 128.6,311.1 
		143.2,301.9 172,281.2 198,264 240.6,241.1 	"/>
	<polygon class="st50" points="274.5,224.3 281.6,244.4 253.5,261.3 212.5,287.8 198.8,296.7 144,332.1 139.7,326.8 128.8,311.6 
		143.4,302.5 172.4,281.9 198.4,264.8 240.9,241.8 	"/>
	<polygon class="st50" points="274.7,224.8 281.9,245 253.9,262 212.9,288.4 199.1,297.2 144.3,332.6 140,327.3 129,312.1 
		143.6,303 172.8,282.6 198.8,265.5 241.2,242.5 	"/>
	<polygon class="st50" points="274.9,225.4 282.3,245.6 254.2,262.6 213.2,289 199.4,297.8 144.6,333.1 140.2,327.8 129.2,312.7 
		143.7,303.6 173.2,283.2 199.2,266.3 241.5,243.2 	"/>
	<polygon class="st50" points="275.1,226 282.6,246.2 254.6,263.2 213.5,289.6 199.8,298.4 144.9,333.5 140.5,328.3 129.4,313.2 
		143.9,304.2 173.5,283.9 199.6,267.1 241.8,243.8 	"/>
	<polygon class="st50" points="275.4,226.5 282.9,246.9 254.9,263.9 213.8,290.1 200.1,298.9 145.2,334 140.8,328.8 129.5,313.7 
		144.1,304.7 173.9,284.5 200,267.8 242.1,244.5 	"/>
	<polygon class="st50" points="275.6,227.1 283.2,247.5 255.3,264.5 214.1,290.7 200.4,299.5 145.4,334.5 141.1,329.3 129.7,314.2 
		144.2,305.3 174.3,285.2 200.5,268.6 242.4,245.2 	"/>
	<polygon class="st51" points="275.8,227.7 283.6,248.1 255.6,265.1 214.5,291.3 200.7,300 145.7,335 141.4,329.8 129.9,314.8 
		144.4,305.9 174.7,285.9 200.9,269.3 242.7,245.9 	"/>
	<polygon class="st51" points="276,228.2 283.9,248.7 256,265.7 214.8,291.9 201,300.6 146,335.5 141.7,330.3 130.1,315.3 
		144.6,306.4 175.1,286.5 201.3,270.1 243,246.5 	"/>
	<polygon class="st51" points="276.2,228.8 284.2,249.3 256.3,266.4 215.1,292.4 201.3,301.1 146.3,336 142,330.8 130.2,315.8 
		144.8,307 175.4,287.2 201.7,270.9 243.3,247.2 	"/>
	<polygon class="st51" points="276.4,229.4 284.5,249.9 256.7,267 215.4,293 201.6,301.7 146.6,336.5 142.2,331.3 130.4,316.4 
		144.9,307.5 175.8,287.9 202.1,271.6 243.6,247.9 	"/>
	<polygon class="st51" points="276.7,229.9 284.9,250.5 257,267.6 215.8,293.6 202,302.3 146.9,336.9 142.5,331.8 130.6,316.9 
		145.1,308.1 176.2,288.5 202.5,272.4 243.9,248.6 	"/>
	<polygon class="st51" points="276.9,230.5 285.2,251.1 257.4,268.3 216.1,294.2 202.3,302.8 147.1,337.4 142.8,332.3 130.8,317.4 
		145.3,308.7 176.6,289.2 203,273.1 244.2,249.2 	"/>
	<polygon class="st52" points="277.1,231.1 285.5,251.8 257.7,268.9 216.4,294.7 202.6,303.4 147.4,337.9 143.1,332.8 131,317.9 
		145.4,309.2 177,289.9 203.4,273.9 244.5,249.9 	"/>
	<polygon class="st52" points="277.3,231.7 285.8,252.4 258.1,269.6 216.7,295.4 202.9,304 147.7,338.4 143.4,333.3 131.1,318.5 
		145.6,309.9 177.4,290.6 203.8,274.7 244.8,250.6 	"/>
	<polygon class="st52" points="277.5,232.2 286.2,253 258.4,270.2 217,295.9 203.2,304.5 148,338.9 143.7,333.8 131.3,319 
		145.8,310.4 177.7,291.2 204.2,275.4 245.1,251.3 	"/>
	<polygon class="st52" points="286.5,253.6 217.4,296.5 148.2,339.4 131.5,319.5 204.6,276.1 277.8,232.8 	"/>
</g>
<rect x="104.1" y="49" class="st53" width="41.9" height="10.5"/>
<path class="st54" d="M81.7,171.9V86.5c-2.4,0-5,1.9-6.6,3s-14.3,9.4-14.3,9.4L40.1,68.7c0,0,19.5-13.8,28.9-19.8
	c6.3-4,11.9-7.5,18.5-7.5h15.8c0,12.6,21.7,17.5,21.7,17.5s21.7-4.9,21.7-17.5h15.8c6.6,0,12.2,3.5,18.5,7.5
	c9.4,6,28.9,19.8,28.9,19.8l-20.7,30.2c0,0-12.8-8.4-14.3-9.4c-1.7-1.1-4.2-3-6.6-3v85.4"/>
<path class="st54" d="M168.3,171.9V42.3c-1.9-0.6-3.8-0.9-5.8-0.9h-15.8c0,12.6-21.7,17.5-21.7,17.5s-21.7-4.9-21.7-17.5H87.5
	c-2,0-3.9,0.3-5.8,0.9v129.6L168.3,171.9L168.3,171.9z"/>
<path class="st53" d="M123.6,64.9l1.4,0.3l1.4-0.3c2.7-0.6,26.6-6.5,26.6-23.5h-6.2c0,12.6-21.7,17.5-21.7,17.5s-21.7-4.9-21.7-17.5
	h-6.2C97.1,58.5,120.9,64.3,123.6,64.9z"/>
<rect x="49.9" y="63.8" transform="matrix(0.8249 -0.5653 0.5653 0.8249 -37.0993 44.3256)" class="st55" width="6.2" height="36.6"/>
<rect x="178.7" y="78.9" transform="matrix(0.5653 -0.8249 0.8249 0.5653 17.9644 198.1651)" class="st55" width="36.6" height="6.2"/>
<g>
	<path class="st53" d="M180.3,92.4c-0.4-1.1-0.4-2.3,0.1-3.4c1.1-2.1,3.7-2.9,5.8-1.8c1.9,1,2.8,3.3,2,5.4c-0.4,0.9-1.2,1.7-2.1,2.1
		l-0.2-0.2c-4,8.6-6,12.9-10,21.6s-6,12.9-10,21.6L146,180.1l-5.3-2.4L180.3,92.4z"/>
	<path class="st56" d="M219,108.9c12.4,3.7,18.9,4.8,28.8,13.6l-10,21.6c-9.9-8.8-16.4-10-28.8-13.6C213,121.8,215,117.5,219,108.9z
		"/>
	<path class="st57" d="M179.6,117.9c4-8.6,6-12.9,10-21.6l0.2,0.2c10.2,7.8,16.8,8.8,29.1,12.4c-4,8.6-6,12.9-10,21.6
		C196.6,126.8,190,125.8,179.6,117.9z"/>
	<path class="st56" d="M208.9,130.4l-10,21.6c-12.4-3.6-19-4.6-29.3-12.6c4-8.6,6-12.9,10-21.6C190,125.8,196.6,126.8,208.9,130.4z"
		/>
	<path class="st57" d="M237.8,144.1c-4,8.6-6,13-10,21.6c-10-8.8-16.4-10-28.8-13.6c4-8.6,6-13,10-21.6
		C221.3,134.1,227.8,135.2,237.8,144.1z"/>
</g>
<ellipse class="st58" cx="92.9" cy="176" rx="39.8" ry="39.5"/>
<path class="st53" d="M66.7,167.5c-0.3-0.1-0.5-0.4-0.5-0.6l-0.6-14.3c0-0.3,0.1-0.6,0.4-0.8l12-8.7c0.3-0.2,0.6-0.2,0.9-0.1l13.5,5
	c0.3,0.1,0.5,0.4,0.5,0.7v11.6c0,0.3-0.2,0.6-0.4,0.8l-13.6,9.8c-0.3,0.2-0.6,0.2-0.9,0.1L66.7,167.5z"/>
<path class="st59" d="M124.4,193.9c-0.1,0.3-0.3,0.5-0.6,0.6l-13.9,3.8c-0.3,0.1-0.6,0-0.8-0.3l-6.9-9.7c-0.2-0.3-0.2-0.6-0.1-0.9
	l5.2-15.9c0.1-0.3,0.3-0.5,0.6-0.6l11.2-3.5c0.3-0.1,0.6,0,0.8,0.2l9,11.2c0.2,0.2,0.2,0.6,0.2,0.9L124.4,193.9z"/>
<path class="st60" d="M107.8,171c-0.3,0.1-0.6,0-0.9-0.1L93.3,161c-0.2-0.2-0.4-0.5-0.4-0.8v-11.5c0-0.3,0.2-0.6,0.5-0.7l13.5-5
	c0.3-0.1,0.6-0.1,0.9,0.1l12.1,8.7c0.2,0.2,0.4,0.5,0.4,0.8l-0.6,14.3c0,0.3-0.2,0.5-0.5,0.6L107.8,171z"/>
<path class="st60" d="M76.7,198.1c-0.2,0.2-0.5,0.3-0.8,0.3L62,194.6c-0.3-0.1-0.5-0.3-0.6-0.6l-4.6-14.1c-0.1-0.3,0-0.6,0.2-0.9
	l9-11.2c0.2-0.2,0.5-0.3,0.8-0.2l11.2,3.4c0.3,0.1,0.5,0.3,0.6,0.6l5.2,15.9c0.1,0.3,0,0.6-0.1,0.9L76.7,198.1z"/>
<path class="st53" d="M109,198.1c0.2,0.3,0.2,0.6,0,0.8l-7.9,11.9c-0.2,0.3-0.5,0.4-0.8,0.4H85.4c-0.3,0-0.6-0.2-0.8-0.4l-7.9-11.9
	c-0.2-0.3-0.2-0.6,0-0.8l6.9-9.7c0.2-0.2,0.5-0.4,0.8-0.4h16.8c0.3,0,0.6,0.2,0.8,0.4L109,198.1z"/>
<path class="st61" d="M65.6,152.6c0-0.2-0.2-0.4-0.4-0.4c-0.1,0-0.1,0-0.1,0l-4.7,1.5c-0.3,0.1-0.5,0.3-0.7,0.6l-6.4,19.7
	c0,0.3,0,0.6,0.2,0.9l2.9,4c0.1,0.2,0.3,0.2,0.5,0.1c0,0,0.1-0.1,0.1-0.1l9-11.2c0.2-0.3,0.3-0.6,0.3-0.9L65.6,152.6z M106.8,143
	c0.2-0.1,0.3-0.3,0.2-0.4c0,0,0-0.1-0.1-0.1l-2.9-4c-0.2-0.2-0.5-0.4-0.8-0.5c-3.4-0.7-6.9-1.2-10.4-1.4c-3.5,0.2-7,0.7-10.4,1.4
	c-0.3,0.1-0.6,0.3-0.8,0.5l-2.9,4c-0.1,0.2-0.1,0.4,0,0.5c0,0,0.1,0.1,0.1,0.1l13.5,5c0.3,0.1,0.6,0.1,0.9,0L106.8,143z M101.3,188
	c0.3,0,0.6-0.2,0.7-0.5l5.2-15.9c0.1-0.3,0-0.6-0.2-0.8L93.3,161c-0.2-0.2-0.6-0.2-0.8,0l-13.6,9.8c-0.2,0.2-0.3,0.5-0.2,0.8
	l5.2,15.9c0.1,0.3,0.4,0.5,0.7,0.5L101.3,188L101.3,188z M126.1,154.4c-0.2-0.3-0.4-0.5-0.7-0.6l-4.7-1.5c-0.2-0.1-0.4,0-0.5,0.2
	c0,0,0,0.1,0,0.1l-0.6,14.3c0,0.3,0.1,0.6,0.3,0.9l9,11.2c0.1,0.2,0.3,0.2,0.5,0.1c0,0,0.1-0.1,0.1-0.1l2.9-4
	c0.2-0.3,0.2-0.6,0.2-0.9L126.1,154.4z M101.1,210.8c-0.1,0.2-0.1,0.4,0.1,0.5c0,0,0.1,0.1,0.1,0.1l4.7,1.5c0.3,0.1,0.6,0.1,0.9-0.1
	l16.8-12.2c0.2-0.2,0.3-0.5,0.4-0.9v-4.9c0-0.2-0.1-0.4-0.3-0.4c-0.1,0-0.1,0-0.2,0l-13.9,3.8c-0.3,0.1-0.6,0.3-0.8,0.6L101.1,210.8
	z M62,194.6c-0.2-0.1-0.4,0-0.5,0.2c0,0,0,0.1,0,0.2v4.9c0,0.3,0.1,0.6,0.4,0.9l16.8,12.2c0.3,0.1,0.6,0.2,0.9,0.1l4.7-1.5
	c0.2,0,0.3-0.2,0.3-0.4c0,0,0-0.1-0.1-0.1l-7.9-11.9c-0.2-0.3-0.5-0.4-0.8-0.6L62,194.6z"/>
<g>
	<path class="st53" d="M179.4,181.8c2.1,1.1,4.4,1.8,6.8,1.9c-2.3-2.6-3.6-4.2-3.6-4.2c-1.5-1.7-2.9-1.8-5.1-0.1
		c-0.5,0.4-1.2,0.9-2,1.6C176.8,180.8,178.2,181.1,179.4,181.8z"/>
	<path class="st53" d="M157.4,204.9c11.7-0.7,45.4-2.5,47-2.5c1.4-3.1,2.3-6.5,2.6-9.9v-1.5c0-4.7-0.6-5.8-1.4-7
		c-2.7,2.6-29.2,8.4-34.1,10.2C165.5,196.5,159.3,201.8,157.4,204.9z"/>
	<path class="st53" d="M158.6,204.8c0.4-0.6,5.3-7.9,17.8-10.3s23-5.4,29.3-10.6c-0.6-1.1-1.3-2.2-2.1-3.2c-2.5-3.1-3.3-3.6-4.5-3.6
		c-0.9,0.1-1.4,0.8-2,2c-1.4,2.5-3.7,4.3-6.4,5c-4.4,1.3-9.5-0.2-11.8-1.5c-1.6-1.1-3.7-1.1-5.4-0.1l-1.1,1l-0.5,0.4l2.4,3
		c0.3,0.4,0.2,1-0.3,1.3c-0.4,0.2-0.9,0.2-1.2-0.1l-2.4-3.1c-0.7,0.5-1.5,1-2.3,1.4l2,3.1c0.3,0.4,0.2,1-0.2,1.3
		c-0.4,0.3-1,0.2-1.3-0.2v-0.1l-2.1-3.2c-0.8,0.4-1.6,0.8-2.4,1.2l1.7,3c0.3,0.4,0.1,1-0.3,1.3s-1,0.1-1.3-0.3l-1.8-3.2
		c-0.8,0.3-1.6,0.6-2.4,0.9l1.4,3.1c0.3,0.5,0.1,1-0.4,1.3s-1,0.1-1.3-0.4l-0.1-0.1l-1.5-3.2c-0.7,0.3-2,0.7-2.7,0.9l1.3,3.1
		c0.2,0.5,0,1-0.5,1.2c-0.5,0.2-1,0-1.2-0.5l0,0l-1.3-3.2c-3.3,1-5.4,1.5-6.5,1.8l-0.8,0.2c-6,1.4-10,2.4-10,5.9v2.3
		c3.1,0.8,6.2,1.4,9.4,1.8C150.1,204.8,154.3,204.9,158.6,204.8z"/>
	<path class="st62" d="M204.5,201.9c-1.9,0.1-12.1,0.6-24.9,1.4l-5.4,0.4c-9.3,0.6-18.9,1.3-28.5,0.3c-3.1-0.3-6.3-0.9-9.3-1.8v2.1
		c1,0.3,2.1,0.6,3.2,0.9l1.2,0.3l0.7,0.1c0,0.1-0.1,0.3-0.1,0.4c0.2,1.1,1.2,1.9,2.4,1.8c1,0.1,1.9-0.5,2.3-1.4l0.9,0.1l1.2,0.1h0.1
		c-0.1,0.2-0.1,0.4-0.1,0.6c0.4,1.3,1.8,2,3.1,1.7c0.8-0.2,1.4-0.9,1.7-1.7c0-0.1,0-0.1,0-0.2l2.3,0.1c-0.1,0.2-0.2,0.4-0.2,0.7
		c0.4,1.3,1.8,2,3.1,1.7c0.8-0.2,1.4-0.9,1.7-1.7c0-0.2,0-0.4-0.1-0.6h2.3c-0.1,0.2-0.1,0.4-0.1,0.6c0.4,1.3,1.8,2,3.1,1.7
		c0.8-0.2,1.4-0.9,1.7-1.7c0-0.2-0.1-0.4-0.1-0.6h0.2c7.6-0.2,14.8-0.6,20.6-0.8l3.2-0.1l0,0c0.4,1.3,1.8,2,3.1,1.7
		c0.8-0.2,1.4-0.9,1.7-1.7c0-0.1,0-0.1,0-0.2l2.1-0.1c0,0.1,0,0.2,0,0.2c0.4,1.3,1.8,2,3.1,1.7c0.8-0.2,1.4-0.9,1.7-1.7
		c0-0.1,0-0.2,0-0.4l2.7-0.1v-4L204.5,201.9z"/>
</g>
</svg>
