<?xml version="1.0" encoding="UTF-8" standalone="no"?>
<svg width="95px" height="120px" viewBox="0 0 95 120" version="1.1" xmlns="http://www.w3.org/2000/svg" xmlns:xlink="http://www.w3.org/1999/xlink">
    <defs>
        <rect id="path-1" x="0" y="0" width="95" height="120"></rect>
        <polygon id="path-3" points="72.862625 0.651786882 0 0.651786882 0 111.135265 72.862625 111.135265 72.862625 0.651786882"></polygon>
    </defs>
    <g id="Page-1" stroke="none" stroke-width="1" fill="none" fill-rule="evenodd">
        <g id="Group-10">
            <mask id="mask-2" fill="white">
                <use xlink:href="#path-1"></use>
            </mask>
            <g id="Mask"></g>
            <g mask="url(#mask-2)" id="Page-1">
                <g>
                    <g id="Group-3" transform="translate(0.000000, 0.105225)">
                        <mask id="mask-4" fill="white">
                            <use xlink:href="#path-3"></use>
                        </mask>
                        <g id="Clip-2"></g>
                        <path d="M65.9981328,0.65171118 L6.86434375,0.65171118 C3.08883594,0.65171118 -0.0001484375,3.80239295 -0.0001484375,7.65331033 L-0.0001484375,104.132909 C-0.0001484375,107.983826 3.08883594,111.135265 6.86434375,111.135265 L65.9981328,111.135265 C69.7736406,111.135265 72.862625,107.983826 72.862625,104.132909 L72.862625,7.65331033 C72.862625,3.80239295 69.7736406,0.65171118 65.9981328,0.65171118" id="Fill-1" fill="#ED1C24" mask="url(#mask-4)"></path>
                    </g>
                    <path d="M94.5872695,168.161772 L94.5872695,73.809376 C94.5872695,52.9075321 84.467543,50.5062917 72.7981289,50.5062917 L72.7981289,83.9495447 L72.7981289,94.4371817 C72.7981289,99.4190743 68.8385586,103.45773 63.9542227,103.45773 C62.0519961,103.45773 60.2922695,102.843037 58.8487148,101.801389 L58.8487148,93.2168792 L58.8487148,79.9532811 C58.8487148,73.0932431 55.5474648,67.5322368 48.8210195,67.5322368 C46.202582,67.5322368 43.7778555,68.3785757 41.7925039,69.8131124 L41.7925039,90.0934499 L41.7925039,123.040103 C41.7925039,131.781315 51.2539102,138.262847 51.2539102,145.496849 L51.2539102,168.161772 L94.5872695,168.161772 Z" id="Fill-4" fill="#FDD09E"></path>
                    <path d="M41.7922813,73.492491 C45.6561094,73.492491 47.9286875,78.6621224 47.9286875,83.7007908 C47.9286875,87.0036318 44.6111094,87.7659424 41.7922813,87.7659424 L41.7922813,73.492491 Z" id="Fill-6" fill="#FEE5CA"></path>
                </g>
            </g>
        </g>
    </g>
</svg>
